<?xml version="1.0" encoding="UTF-8" standalone="no"?>
<!-- Generator: Adobe Illustrator 19.0.0, SVG Export Plug-In . SVG Version: 6.00 Build 0)  -->

<svg
   xmlns:dc="http://purl.org/dc/elements/1.1/"
   xmlns:cc="http://creativecommons.org/ns#"
   xmlns:rdf="http://www.w3.org/1999/02/22-rdf-syntax-ns#"
   xmlns:sodipodi="http://sodipodi.sourceforge.net/DTD/sodipodi-0.dtd"
   xmlns:inkscape="http://www.inkscape.org/namespaces/inkscape"
   xmlns="http://www.w3.org/2000/svg"
   version="1.1"
   id="Capa_1"
   x="0px"
   y="0px"
   viewBox="0 0 56 56"
   style="enable-background:new 0 0 56 56;"
   xml:space="preserve"
   sodipodi:docname="asic-dash.svg"
   inkscape:version="0.92.3 (2405546, 2018-03-11)"><metadata
   id="metadata4344"><rdf:RDF><cc:Work
       rdf:about=""><dc:format>image/svg+xml</dc:format><dc:type
         rdf:resource="http://purl.org/dc/dcmitype/StillImage" /><dc:title /></cc:Work></rdf:RDF></metadata><defs
   id="defs4342" /><sodipodi:namedview
   pagecolor="#ffffff"
   bordercolor="#666666"
   borderopacity="1"
   objecttolerance="10"
   gridtolerance="10"
   guidetolerance="10"
   inkscape:pageopacity="0"
   inkscape:pageshadow="2"
   inkscape:window-width="1377"
   inkscape:window-height="851"
   id="namedview4340"
   showgrid="false"
   inkscape:zoom="8.4285714"
   inkscape:cx="45.618066"
   inkscape:cy="26.472766"
   inkscape:window-x="0"
   inkscape:window-y="0"
   inkscape:window-maximized="0"
   inkscape:current-layer="Capa_1" />
<path
   style="fill:#E7ECED;"
   d="M49.104,56H6.896C5.849,56,5,55.151,5,54.104V1.896C5,0.849,5.849,0,6.896,0h42.209  C50.151,0,51,0.849,51,1.896v52.209C51,55.151,50.151,56,49.104,56z"
   id="path4285" />

<circle
   style="fill:#25AE88;"
   cx="21"
   cy="47"
   r="2"
   id="circle4289" />
<circle
   style="fill:#ED7161;"
   cx="26"
   cy="47"
   r="2"
   id="circle4291" />




<rect
   x="44"
   y="44"
   style="fill:#CBD4D8;"
   width="2"
   height="6"
   id="rect4301" />
<rect
   x="41"
   y="44"
   style="fill:#CBD4D8;"
   width="2"
   height="6"
   id="rect4303" />
<rect
   x="38"
   y="44"
   style="fill:#CBD4D8;"
   width="2"
   height="6"
   id="rect4305" />
<rect
   x="35"
   y="44"
   style="fill:#CBD4D8;"
   width="2"
   height="6"
   id="rect4307" />
<g
   id="g4309">
</g>
<g
   id="g4311">
</g>
<g
   id="g4313">
</g>
<g
   id="g4315">
</g>
<g
   id="g4317">
</g>
<g
   id="g4319">
</g>
<g
   id="g4321">
</g>
<g
   id="g4323">
</g>
<g
   id="g4325">
</g>
<g
   id="g4327">
</g>
<g
   id="g4329">
</g>
<g
   id="g4331">
</g>
<g
   id="g4333">
</g>
<g
   id="g4335">
</g>
<g
   id="g4337">
</g>
<g
   transform="matrix(0.06822696,0,0,0.06957724,10.945258,7.2399801)"
   id="g4865"><path
     inkscape:connector-curvature="0"
     style="fill:#428dff"
     d="m 238.5,494.998 c -0.8,0 -1.7,0 -2.5,-0.1 -63.2,-0.7 -122.5,-25.9 -167,-70.8 -44.4,-45 -69,-104.7 -69,-168 0,-4.7 3.8,-8.5 8.5,-8.5 4.7,0 8.5,3.8 8.5,8.5 0,121 98.5,220.6 219.5,221.8 0.2,0 0.4,0 0.6,0 0.5,0 1.1,0.1 1.6,0.1 0.1,0 0.1,0 0.2,0 16.4,0 32.8,-1.8 48.8,-5.3 2.2,-0.5 4.3,-1 6.6,-1.6 100.1,-25.9 168.5,-116.1 166.4,-219.4 -2,-103.4 -74.1,-190.8 -175.1,-212.6 -14.5,-3.1 -29.4,-4.7 -44.3,-4.8 -0.2,0 -0.4,0 -0.7,0 -0.5,0 -1.1,-0.1 -1.6,-0.1 -4.7,0.1 -8.6,-3.7 -8.6,-8.4 -0.1,-4.7 3.7,-8.6 8.4,-8.6 1,0 2,0 3,0.1 15.9,0.2 31.8,1.9 47.4,5.2 52.4,11.3 100,40.3 134.1,81.6 34.1,41.3 53.4,93.6 54.5,147.2 1.1,53.6 -16.1,106.6 -48.5,149.2 -32.4,42.6 -78.8,73.6 -130.6,87 -2.3,0.6 -4.7,1.2 -7.2,1.8 -17.2,3.8 -34.8,5.8 -52.5,5.7 -0.2,0 -0.3,0 -0.5,0 z"
     id="path4801" /><path
     inkscape:connector-curvature="0"
     style="fill:#428dff"
     d="m 12.6,213.698 c -2.3,-0.4 -4.6,0.1 -6.4,1.5 -1.8,1.4 -3,3.4 -3.3,5.7 -1.7,11.6 -2.7,23.4 -2.9,35.2 h 17.1 c 0.2,-11 1.1,-21.9 2.7,-32.7 0.5,-4.6 -2.6,-8.9 -7.2,-9.7 z"
     id="path4803" /><path
     inkscape:connector-curvature="0"
     style="fill:#428dff"
     d="m 38.8,160.798 3.6,-7.4 c 9.4,-17.8 21.1,-34.3 35,-49 1.7,-1.8 3.3,-3.8 5.1,-5.6 l 5.6,-5.1 c 3.8,-3.3 7.3,-6.9 11.3,-10 7.9,-6.3 16.1,-12 24.8,-17.2 34.6,-21 74.3,-32.2 114.8,-32.3 v -17 c -43.6,0.1 -86.4,12.2 -123.7,34.8 -9.3,5.6 -18.2,11.8 -26.7,18.6 -4.3,3.3 -8.1,7.2 -12.2,10.8 l -6,5.5 c -1.9,1.9 -3.7,4 -5.5,6 -14.9,15.8 -27.6,33.5 -37.7,52.8 l -3.8,8 c -1,2 -1.2,4.4 -0.5,6.5 0.8,2.2 2.4,3.9 4.5,4.8 4.3,1.7 9.3,-0.1 11.4,-4.2 z"
     id="path4805" /><path
     inkscape:connector-curvature="0"
     style="fill:#428dff"
     d="m 24.2,182.498 c -0.8,-0.7 -1.8,-1.3 -2.8,-1.7 -2.2,-0.7 -4.5,-0.6 -6.6,0.4 -2.1,1.1 -3.7,2.9 -4.4,5.2 -0.6,2.3 -0.3,4.7 0.8,6.7 l 1,1.4 c 0.4,0.4 0.8,0.8 1.3,1.2 0.4,0.4 0.9,0.7 1.4,0.9 0.5,0.2 1.1,0.4 1.6,0.6 2.2,0.5 4.5,0.3 6.5,-0.8 0.9,-0.6 1.8,-1.3 2.4,-2.2 1.9,-2.7 2.3,-6.1 1,-9.1 -0.6,-1.1 -1.3,-1.9 -2.2,-2.6 z"
     id="path4807" /><path
     inkscape:connector-curvature="0"
     style="fill:#428dff"
     d="m 238,426.698 c 0.3,0 0.8,0.1 1,0.1 12.6,0 25.2,-1.4 37.6,-4.1 1.5,-0.3 2.9,-0.7 5.1,-1.3 76.6,-19.8 129.6,-89.6 128,-168.7 -1.6,-79.1 -57.5,-146.8 -134.8,-163.5 -11.2,-2.4 -22.6,-3.6 -34.1,-3.7 h -0.5 c -0.3,0 -1.1,-0.1 -1.4,-0.1 -93.9,0 -170.1,75.9 -170.6,169.7 -0.5,93.9 74.9,170.5 168.8,171.5 z M 85.3,256.098 c 0,-84.5 68.2,-153.1 152.7,-153.6 0.2,0 1,0.1 1.3,0.1 h 1.2 c 84.3,0.6 152.2,69.3 152,153.5 0,70.2 -47.6,131.5 -115.6,148.9 -1.5,0.4 -2.8,0.7 -4.1,1 -10.8,2.4 -21.9,3.7 -33,3.7 l -0.6,-0.1 c -0.2,0 -0.5,0 -0.7,0 h -1.3 c -84,-1.1 -151.6,-69.4 -151.9,-153.5 z"
     id="path4809" /><path
     inkscape:connector-curvature="0"
     style="fill:#428dff"
     d="m 242.2,51.998 c -3.2,-1.3 -6.8,-0.6 -9.3,1.8 -0.8,0.8 -1.4,1.8 -1.8,2.8 -0.4,1 -0.7,2.1 -0.7,3.2 0,2.3 0.9,4.5 2.5,6.1 1.6,1.6 3.8,2.5 6.1,2.5 1.1,0 2.2,-0.2 3.2,-0.7 1,-0.4 2,-1 2.8,-1.8 1.6,-1.6 2.4,-3.8 2.5,-6.1 0,-1.1 -0.2,-2.2 -0.7,-3.2 -0.4,-1 -1,-2 -1.8,-2.8 -0.8,-0.8 -1.8,-1.4 -2.8,-1.8 z"
     id="path4811" /><path
     inkscape:connector-curvature="0"
     style="fill:#428dff"
     d="m 245,446.298 c -0.8,-0.8 -1.8,-1.4 -2.8,-1.8 -3.2,-1.3 -6.8,-0.6 -9.3,1.8 -0.8,0.8 -1.4,1.8 -1.8,2.8 -0.4,1 -0.7,2.1 -0.7,3.2 0,2.3 0.9,4.5 2.5,6.1 1.6,1.6 3.8,2.5 6.1,2.5 1.1,0 2.2,-0.2 3.2,-0.7 1,-0.4 2,-1 2.8,-1.8 1.6,-1.6 2.4,-3.8 2.5,-6.1 0,-1.1 -0.2,-2.2 -0.7,-3.2 -0.4,-1 -1,-2 -1.8,-2.8 z"
     id="path4813" /><path
     inkscape:connector-curvature="0"
     style="fill:#428dff"
     d="m 195.2,61.798 c -0.3,-0.5 -0.7,-0.9 -1.1,-1.3 -3.4,-3.2 -8.7,-3.2 -12,0 -1.6,1.6 -2.5,3.7 -2.5,6 0,1.1 0.2,2.3 0.6,3.3 0.4,1 1.1,1.9 1.9,2.7 1.6,1.6 3.8,2.5 6.1,2.5 2.2,0 4.4,-0.9 6,-2.5 1.6,-1.6 2.6,-3.8 2.6,-6.1 0,-0.5 -0.1,-1.1 -0.2,-1.6 -0.1,-0.6 -0.3,-1.1 -0.5,-1.6 -0.3,-0.5 -0.6,-0.9 -0.9,-1.4 z"
     id="path4815" /><path
     inkscape:connector-curvature="0"
     style="fill:#428dff"
     d="m 286.5,437.798 c -1,0.4 -1.9,1.1 -2.7,1.9 -0.8,0.8 -1.5,1.7 -1.9,2.7 -0.4,1.1 -0.7,2.2 -0.7,3.3 0,2.3 0.9,4.4 2.6,6 0.8,0.8 1.7,1.5 2.7,1.9 3.2,1.4 6.9,0.6 9.3,-1.9 1.6,-1.6 2.5,-3.7 2.5,-6 0,-1.1 -0.2,-2.3 -0.6,-3.3 -1.9,-4.3 -6.9,-6.4 -11.2,-4.6 z"
     id="path4817" /><path
     inkscape:connector-curvature="0"
     style="fill:#428dff"
     d="m 144,78.298 c -1.6,-0.7 -3.3,-0.9 -5,-0.5 -0.5,0.1 -1.1,0.3 -1.5,0.5 -0.5,0.2 -1.1,0.4 -1.5,0.8 -0.4,0.3 -0.9,0.7 -1.3,1 -0.8,0.8 -1.4,1.8 -1.8,2.8 -0.4,1 -0.7,2.1 -0.7,3.2 0,0.6 0.1,1.1 0.2,1.7 0.1,0.5 0.3,1.1 0.5,1.5 0.2,0.6 0.4,1.1 0.8,1.5 l 1,1.3 c 0.4,0.4 0.8,0.7 1.3,1 0.5,0.3 1,0.6 1.5,0.9 0.5,0.2 1,0.3 1.5,0.4 0.6,0.1 1.1,0.2 1.7,0.2 1.1,0 2.2,-0.2 3.2,-0.6 1,-0.5 2,-1.1 2.8,-1.9 0.3,-0.4 0.7,-0.9 1,-1.3 0.3,-0.5 0.6,-1 0.8,-1.5 0.2,-0.5 0.4,-1 0.5,-1.5 0.1,-0.6 0.2,-1.1 0.2,-1.7 0,-1.1 -0.2,-2.2 -0.7,-3.2 -0.6,-2.2 -2.3,-3.9 -4.5,-4.6 z"
     id="path4819" /><path
     inkscape:connector-curvature="0"
     style="fill:#428dff"
     d="m 335.4,417.698 c -0.5,0.1 -1.1,0.3 -1.5,0.5 -0.5,0.2 -1.1,0.4 -1.5,0.8 -0.4,0.3 -0.9,0.7 -1.3,1 -3.3,3.4 -3.3,8.8 0,12.1 0.4,0.3 0.9,0.7 1.3,1 0.5,0.3 1,0.6 1.5,0.8 0.5,0.2 1,0.4 1.5,0.5 0.6,0.1 1.1,0.2 1.7,0.2 3.5,0 6.6,-2.1 7.9,-5.3 1.3,-3.2 0.6,-6.9 -1.8,-9.3 -2.1,-2 -5,-2.9 -7.8,-2.3 z"
     id="path4821" /><path
     inkscape:connector-curvature="0"
     style="fill:#428dff"
     d="m 103.4,109.398 c -2.6,-1.1 -5.7,-0.9 -8.1,0.7 -2.4,1.6 -3.8,4.3 -3.7,7.2 0,2.2 0.9,4.4 2.5,6 0.8,0.8 1.7,1.5 2.7,1.9 1.1,0.4 2.2,0.7 3.3,0.7 1.1,0 2.2,-0.2 3.2,-0.7 1,-0.4 2,-1.1 2.7,-1.9 1.6,-1.6 2.5,-3.7 2.6,-6 0,-1.1 -0.3,-2.3 -0.7,-3.3 -0.4,-1 -1.1,-2 -1.9,-2.7 -0.6,-0.8 -1.6,-1.4 -2.6,-1.9 z"
     id="path4823" /><path
     inkscape:connector-curvature="0"
     style="fill:#428dff"
     d="m 371.7,388.898 c -1.6,1.6 -2.6,3.7 -2.6,6 0,2.3 0.9,4.5 2.6,6.1 1.6,1.6 3.7,2.5 6,2.5 2.3,0 4.5,-0.9 6.1,-2.5 1.6,-1.6 2.5,-3.8 2.5,-6.1 0,-2.2 -0.9,-4.4 -2.5,-6 -0.8,-0.8 -1.7,-1.5 -2.7,-1.9 -3.3,-1.3 -6.9,-0.5 -9.4,1.9 z"
     id="path4825" /><path
     inkscape:connector-curvature="0"
     style="fill:#428dff"
     d="m 75,151.898 c -3.4,-3.2 -8.7,-3.2 -12.1,0 -0.8,0.8 -1.4,1.8 -1.8,2.8 -0.9,2.1 -0.9,4.4 0,6.5 0.4,1 1,2 1.8,2.8 1.6,1.6 3.8,2.4 6.1,2.5 2.3,0 4.4,-0.9 6.1,-2.5 0.8,-0.8 1.4,-1.8 1.8,-2.8 0.9,-2.1 0.9,-4.4 0,-6.5 -0.5,-1 -1.1,-2 -1.9,-2.8 z"
     id="path4827" /><path
     inkscape:connector-curvature="0"
     style="fill:#428dff"
     d="m 402.9,348.198 c -1.6,1.6 -2.4,3.8 -2.5,6.1 0,1.1 0.2,2.2 0.7,3.2 0.4,1 1,2 1.8,2.8 3.4,3.3 8.8,3.3 12.1,0 0.8,-0.8 1.4,-1.8 1.8,-2.8 0.4,-1 0.7,-2.1 0.7,-3.2 0,-3.5 -2.1,-6.6 -5.3,-7.9 -3.2,-1.4 -6.9,-0.7 -9.3,1.8 z"
     id="path4829" /><path
     inkscape:connector-curvature="0"
     style="fill:#428dff"
     d="m 57.3,202.098 c -0.2,-0.5 -0.5,-1.1 -0.9,-1.5 -0.3,-0.5 -0.6,-0.9 -1,-1.3 -3.4,-3.2 -8.6,-3.2 -12,0 -2.4,2.4 -3.1,6.1 -1.8,9.3 1.3,3.2 4.4,5.3 7.8,5.3 2.3,0 4.5,-0.9 6.1,-2.6 1.6,-1.6 2.5,-3.7 2.5,-6 0,-0.6 0,-1.2 -0.2,-1.7 -0.2,-0.5 -0.4,-1 -0.5,-1.5 z"
     id="path4831" /><path
     inkscape:connector-curvature="0"
     style="fill:#428dff"
     d="m 422.5,312.898 c 3.3,3.3 8.7,3.3 12,0 0.8,-0.8 1.5,-1.7 1.9,-2.8 0.4,-1 0.7,-2.1 0.7,-3.2 0,-2.3 -0.9,-4.4 -2.6,-6 -3.4,-3.2 -8.7,-3.2 -12,0 -1.6,1.6 -2.5,3.7 -2.5,6 0,2.2 0.9,4.4 2.5,6 z"
     id="path4833" /><path
     inkscape:connector-curvature="0"
     style="fill:#428dff"
     d="m 48.7,262.198 c 1.6,-1.6 2.4,-3.8 2.5,-6.1 0,-1.1 -0.2,-2.2 -0.7,-3.2 -0.4,-1 -1,-2 -1.8,-2.8 -3.4,-3.2 -8.7,-3.2 -12.1,0 -0.8,0.8 -1.4,1.8 -1.8,2.8 -0.4,1 -0.7,2.1 -0.7,3.2 0,2.3 0.9,4.4 2.5,6.1 3.4,3.3 8.8,3.3 12.1,0 z"
     id="path4835" /><path
     inkscape:connector-curvature="0"
     style="fill:#428dff"
     d="m 432,248.198 c -1,0.4 -2,1 -2.8,1.8 -3.3,3.4 -3.3,8.8 0,12.1 0.8,0.8 1.8,1.4 2.8,1.8 1,0.5 2.1,0.7 3.2,0.7 3.5,0 6.6,-2.1 7.9,-5.3 1.3,-3.2 0.6,-6.9 -1.8,-9.3 -2.5,-2.4 -6.2,-3.1 -9.3,-1.8 z"
     id="path4837" /><path
     inkscape:connector-curvature="0"
     style="fill:#428dff"
     d="m 43.3,300.898 c -3.3,3.3 -3.2,8.7 0.1,12 3.3,3.3 8.6,3.3 12,0.1 0.4,-0.4 0.7,-0.8 1,-1.3 0.3,-0.5 0.6,-1 0.9,-1.5 0.2,-0.5 0.3,-1 0.4,-1.5 0.1,-0.6 0.2,-1.1 0.2,-1.7 0,-2.2 -0.9,-4.4 -2.5,-6 -3.4,-3.3 -8.7,-3.3 -12.1,-0.1 z"
     id="path4839" /><path
     inkscape:connector-curvature="0"
     style="fill:#428dff"
     d="m 434.5,199.298 c -0.8,-0.8 -1.7,-1.4 -2.7,-1.9 -3.2,-1.3 -6.8,-0.5 -9.3,1.9 -1.6,1.6 -2.5,3.8 -2.5,6.1 0,0.5 0,1.1 0.2,1.6 0.1,0.6 0.2,1.1 0.4,1.6 0.3,0.5 0.5,1 0.8,1.4 0.3,0.5 0.7,0.9 1.1,1.3 2.8,3 7.4,3.5 10.8,1.2 3.4,-2.3 4.7,-6.6 3.1,-10.4 -0.4,-1.1 -1,-2.1 -1.9,-2.8 z"
     id="path4841" /><path
     inkscape:connector-curvature="0"
     style="fill:#428dff"
     d="m 75,348.198 c -3.4,-3.2 -8.7,-3.2 -12.1,0 -0.8,0.8 -1.4,1.8 -1.8,2.8 -0.9,2.1 -0.9,4.4 0,6.5 0.4,1 1,2 1.8,2.8 1.6,1.6 3.8,2.4 6.1,2.5 2.3,0 4.4,-0.9 6.1,-2.5 0.8,-0.8 1.4,-1.8 1.8,-2.8 0.9,-2.1 0.9,-4.4 0,-6.5 -0.5,-1 -1.1,-2 -1.9,-2.8 z"
     id="path4843" /><path
     inkscape:connector-curvature="0"
     style="fill:#428dff"
     d="m 415,151.898 c -3.4,-3.2 -8.7,-3.2 -12.1,0 -1.6,1.6 -2.5,3.8 -2.5,6.1 0,4.7 3.8,8.5 8.5,8.5 4.7,0 8.5,-3.8 8.5,-8.5 0,-2.3 -0.9,-4.5 -2.4,-6.1 z"
     id="path4845" /><path
     inkscape:connector-curvature="0"
     style="fill:#428dff"
     d="m 103.4,386.998 c -2.1,-0.9 -4.5,-0.9 -6.6,0 -1,0.4 -2,1.1 -2.7,1.9 -0.8,0.8 -1.4,1.7 -1.9,2.7 -1.2,3.2 -0.5,6.8 1.9,9.3 0.8,0.8 1.7,1.4 2.7,1.9 1.1,0.4 2.2,0.6 3.3,0.6 1.1,0 2.2,-0.2 3.2,-0.6 1,-0.4 2,-1.1 2.7,-1.9 1.6,-1.6 2.6,-3.7 2.6,-6 0,-2.3 -0.9,-4.4 -2.6,-6 -0.6,-0.8 -1.5,-1.5 -2.6,-1.9 z"
     id="path4847" /><path
     inkscape:connector-curvature="0"
     style="fill:#428dff"
     d="m 381,125.198 c 1,-0.4 2,-1.1 2.7,-1.9 1.6,-1.6 2.5,-3.7 2.5,-6 0,-2.3 -0.9,-4.5 -2.5,-6.1 -1.6,-1.6 -3.7,-2.5 -6,-2.5 -2.3,0 -4.4,0.9 -6,2.5 -1.6,1.6 -2.6,3.8 -2.6,6.1 0.1,4.7 3.9,8.4 8.5,8.5 1.2,0.1 2.4,-0.2 3.4,-0.6 z"
     id="path4849" /><path
     inkscape:connector-curvature="0"
     style="fill:#428dff"
     d="m 148.6,422.798 c -0.2,-0.5 -0.4,-1.1 -0.8,-1.5 -0.3,-0.4 -0.7,-0.9 -1,-1.3 -0.8,-0.8 -1.8,-1.4 -2.8,-1.9 -3.2,-1.3 -6.8,-0.5 -9.3,1.9 l -1,1.3 c -0.3,0.5 -0.6,1 -0.8,1.5 -0.2,0.5 -0.4,1 -0.5,1.5 -0.1,0.6 -0.2,1.1 -0.2,1.7 0,1.1 0.2,2.2 0.7,3.2 0.4,1 1,2 1.8,2.8 1.6,1.6 3.8,2.4 6.1,2.5 1.1,0 2.2,-0.2 3.2,-0.7 2.1,-0.8 3.8,-2.5 4.6,-4.6 0.5,-1 0.7,-2.1 0.7,-3.2 0,-0.6 -0.1,-1.1 -0.2,-1.7 0,-0.5 -0.2,-1 -0.5,-1.5 z"
     id="path4851" /><path
     inkscape:connector-curvature="0"
     style="fill:#428dff"
     d="m 332.3,93.198 c 0.5,0.3 1,0.6 1.5,0.8 0.5,0.2 1,0.4 1.5,0.5 0.6,0.1 1.1,0.1 1.7,0.2 2.3,0 4.4,-0.9 6.1,-2.5 0.8,-0.8 1.4,-1.8 1.8,-2.8 0.5,-1 0.7,-2.1 0.7,-3.2 0,-4.7 -3.8,-8.5 -8.5,-8.5 -4.7,0 -8.5,3.8 -8.5,8.5 0,1.1 0.2,2.2 0.7,3.2 0.4,1.1 1,2 1.8,2.8 0.3,0.3 0.7,0.7 1.2,1 z"
     id="path4853" /><path
     inkscape:connector-curvature="0"
     style="fill:#428dff"
     d="m 194.1,439.698 c -2.4,-2.5 -6.1,-3.3 -9.3,-1.9 -3.2,1.3 -5.3,4.5 -5.2,8 0,2.2 0.9,4.4 2.5,6 1.6,1.6 3.8,2.5 6.1,2.6 4.7,-0.1 8.4,-3.9 8.5,-8.5 0,-1.1 -0.3,-2.3 -0.7,-3.3 -0.4,-1.3 -1,-2.2 -1.9,-2.9 z"
     id="path4855" /><path
     inkscape:connector-curvature="0"
     style="fill:#428dff"
     d="m 289.7,74.998 c 2.3,0 4.5,-0.9 6.1,-2.5 3.3,-3.3 3.3,-8.7 0,-12 -2.5,-2.4 -6.1,-3.1 -9.3,-1.9 -1,0.4 -2,1.1 -2.7,1.9 -1.6,1.6 -2.6,3.7 -2.6,6 0,2.3 0.9,4.4 2.6,6 0.8,0.8 1.7,1.4 2.7,1.9 1,0.4 2.1,0.6 3.2,0.6 z"
     id="path4857" /><path
     inkscape:connector-curvature="0"
     style="fill:#428dff"
     d="m 501.2,327.298 c 14.4,-46.4 14.4,-96 0,-142.4 -0.1,-0.2 -0.1,-0.4 -0.2,-0.6 -8,-25.3 -20.2,-49.1 -36,-70.4 -0.1,-0.1 -0.2,-0.3 -0.3,-0.4 -45,-60.6 -116.1,-96.3 -191.6,-96.3 -6.7,0 -12.5,0.2 -17.8,0.7 -3,0.3 -5.7,2.1 -7,4.9 -1.3,2.8 -1,6 0.8,8.5 1.8,2.5 4.7,3.9 7.8,3.6 4.8,-0.4 10.1,-0.7 16.3,-0.7 64.4,0 125.6,28 167.7,76.8 h -16.2 c -4.7,0 -8.5,3.8 -8.5,8.5 0,4.7 3.8,8.5 8.5,8.5 h 29.6 c 11.2,15.8 20.3,33 27.1,51.2 h -22.1 c -4.7,0 -8.5,3.8 -8.5,8.5 0,4.7 3.8,8.5 8.5,8.5 h 27.6 c 4.7,16.7 7.4,33.9 8,51.2 h -25.4 c -4.7,0 -8.5,3.8 -8.5,8.5 0,4.7 3.8,8.5 8.5,8.5 h 25.4 c -0.7,17.3 -3.3,34.5 -8,51.2 h -27.6 c -4.7,0 -8.5,3.8 -8.5,8.5 0,4.7 3.8,8.5 8.5,8.5 h 22.1 c -6.8,18.2 -15.9,35.4 -27.1,51.2 h -29.6 c -4.7,0 -8.5,3.8 -8.5,8.5 0,4.7 3.8,8.5 8.5,8.5 h 16.2 c -42.1,48.8 -103.3,76.8 -167.7,76.8 -6.2,0 -11.5,-0.2 -16.3,-0.6 -3,-0.3 -6,1.1 -7.8,3.6 -1.8,2.5 -2.1,5.7 -0.8,8.5 1.3,2.8 3.9,4.6 7,4.9 5.3,0.5 11.1,0.7 17.8,0.7 75.5,0 146.6,-35.7 191.6,-96.3 0.1,-0.1 0.2,-0.3 0.3,-0.4 15.8,-21.3 28,-45.1 36,-70.4 0.1,0.1 0.1,-0.1 0.2,-0.3 z"
     id="path4859" /><path
     inkscape:connector-curvature="0"
     style="fill:#428dff"
     d="m 325.5,310.398 28.8,-68.3 c 6.7,-15.8 5.1,-33.9 -4.2,-48.3 -9.2,-14.4 -25.1,-23.1 -42.2,-23.1 H 203.4 c -3.3,0 -6.2,1.8 -7.7,4.8 l -16.8,34.1 c -1.3,2.6 -1.1,5.8 0.4,8.3 1.6,2.5 4.3,4 7.2,4 h 121.1 l -28.6,68.2 H 153 c -3.3,0 -6.2,1.8 -7.7,4.8 l -16.7,34.2 c -1.3,2.6 -1.1,5.8 0.4,8.3 1.6,2.5 4.3,4 7.2,4 h 142.9 c 20.3,0 38.7,-12.3 46.4,-31 z m -167.1,-3.1 h 120.8 c 6.8,0 13,-4.1 15.6,-10.4 l 28.8,-68.3 c 2.2,-5.2 1.7,-11.2 -1.4,-16 -3.1,-4.8 -8.4,-7.8 -14.2,-7.7 H 200.3 l 8.4,-17.1 h 99.2 c 11.3,0 21.8,5.8 27.9,15.3 6.3,9.6 7.3,21.8 2.8,32.3 l -28.8,68.3 c -5.1,12.4 -17.2,20.6 -30.7,20.6 H 150 Z"
     id="path4861" /><path
     inkscape:connector-curvature="0"
     style="fill:#428dff"
     d="m 211.1,276.898 16.8,-34.1 c 1.3,-2.6 1.1,-5.8 -0.4,-8.3 -1.6,-2.5 -4.3,-4 -7.2,-4 h -83.9 c -3.3,0 -6.2,1.8 -7.7,4.8 l -16.8,34.1 c -1.3,2.6 -1.1,5.8 0.4,8.3 1.6,2.5 4.3,4 7.2,4 h 83.9 c 3.2,0 6.2,-1.8 7.7,-4.8 z m -77.9,-12.3 8.4,-17.1 h 64.9 l -8.4,17.1 z"
     id="path4863" /></g></svg>