<?xml version="1.0" encoding="UTF-8" standalone="no"?>
<!-- Generator: Adobe Illustrator 19.0.0, SVG Export Plug-In . SVG Version: 6.00 Build 0)  -->

<svg
   xmlns:dc="http://purl.org/dc/elements/1.1/"
   xmlns:cc="http://creativecommons.org/ns#"
   xmlns:rdf="http://www.w3.org/1999/02/22-rdf-syntax-ns#"
   xmlns:svg="http://www.w3.org/2000/svg"
   xmlns="http://www.w3.org/2000/svg"
   xmlns:sodipodi="http://sodipodi.sourceforge.net/DTD/sodipodi-0.dtd"
   xmlns:inkscape="http://www.inkscape.org/namespaces/inkscape"
   version="1.1"
   id="Capa_1"
   x="0px"
   y="0px"
   viewBox="0 0 56 56"
   style="enable-background:new 0 0 56 56;"
   xml:space="preserve"
   sodipodi:docname="asic-ltc.svg"
   inkscape:version="0.92.3 (2405546, 2018-03-11)"><metadata
   id="metadata4344"><rdf:RDF><cc:Work
       rdf:about=""><dc:format>image/svg+xml</dc:format><dc:type
         rdf:resource="http://purl.org/dc/dcmitype/StillImage" /><dc:title /></cc:Work></rdf:RDF></metadata><defs
   id="defs4342" /><sodipodi:namedview
   pagecolor="#ffffff"
   bordercolor="#666666"
   borderopacity="1"
   objecttolerance="10"
   gridtolerance="10"
   guidetolerance="10"
   inkscape:pageopacity="0"
   inkscape:pageshadow="2"
   inkscape:window-width="1376"
   inkscape:window-height="851"
   id="namedview4340"
   showgrid="false"
   inkscape:zoom="11.9198"
   inkscape:cx="13.35781"
   inkscape:cy="29.229695"
   inkscape:window-x="1"
   inkscape:window-y="0"
   inkscape:window-maximized="0"
   inkscape:current-layer="Capa_1" />
<path
   style="fill:#E7ECED;"
   d="M49.104,56H6.896C5.849,56,5,55.151,5,54.104V1.896C5,0.849,5.849,0,6.896,0h42.209  C50.151,0,51,0.849,51,1.896v52.209C51,55.151,50.151,56,49.104,56z"
   id="path4285" />

<circle
   style="fill:#25AE88;"
   cx="21"
   cy="47"
   r="2"
   id="circle4289" />
<circle
   style="fill:#ED7161;"
   cx="26"
   cy="47"
   r="2"
   id="circle4291" />




<rect
   x="44"
   y="44"
   style="fill:#CBD4D8;"
   width="2"
   height="6"
   id="rect4301" />
<rect
   x="41"
   y="44"
   style="fill:#CBD4D8;"
   width="2"
   height="6"
   id="rect4303" />
<rect
   x="38"
   y="44"
   style="fill:#CBD4D8;"
   width="2"
   height="6"
   id="rect4305" />
<rect
   x="35"
   y="44"
   style="fill:#CBD4D8;"
   width="2"
   height="6"
   id="rect4307" />
<g
   id="g4309">
</g>
<g
   id="g4311">
</g>
<g
   id="g4313">
</g>
<g
   id="g4315">
</g>
<g
   id="g4317">
</g>
<g
   id="g4319">
</g>
<g
   id="g4321">
</g>
<g
   id="g4323">
</g>
<g
   id="g4325">
</g>
<g
   id="g4327">
</g>
<g
   id="g4329">
</g>
<g
   id="g4331">
</g>
<g
   id="g4333">
</g>
<g
   id="g4335">
</g>
<g
   id="g4337">
</g>
<g
   transform="matrix(0.06830743,0,0,0.06794214,10.595642,7.7698673)"
   id="g5720"><path
     inkscape:connector-curvature="0"
     style="fill:#e3e7f2"
     d="m 495.6,196.398 c -1.5,-5.8 -3.3,-11.5 -5.3,-17.1 -6.4,-18.1 -15,-35.3 -25.7,-51.2 -3.9,-5.9 -8.1,-11.6 -12.6,-17.1 -43.7,-54 -109.5,-85.4 -178.9,-85.3 -5.7,0 -11.4,0.2 -17.1,0.7 v 0 c -5.6,-0.4 -11.3,-0.7 -17.1,-0.7 -2.2,0 -4.4,0.1 -6.6,0.2 -2.1,-0.1 -4.1,-0.2 -6.2,-0.2 -120.1,0 -217.6,103.2 -217.6,230.4 0,127.2 97.5,230.4 217.6,230.4 2.1,0 4.1,-0.1 6.2,-0.2 2.2,0.1 4.4,0.2 6.6,0.2 5.7,0 11.4,-0.3 17.1,-0.7 v 0 c 5.6,0.5 11.3,0.7 17.1,0.7 69.5,0 135.2,-31.3 178.9,-85.3 4.4,-5.5 8.7,-11.2 12.6,-17.1 10.7,-15.9 19.3,-33.1 25.7,-51.2 2,-5.5 3.8,-11.3 5.3,-17.1 4.5,-16.7 7.1,-33.9 7.6,-51.2 0.2,-2.8 0.3,-5.6 0.3,-8.5 0,-2.9 -0.1,-5.7 -0.3,-8.5 -0.5,-17.3 -3,-34.5 -7.6,-51.2 z"
     data-original="#E3E7F2"
     class=""
     id="path5640" /><g
     id="g5654"><path
       inkscape:connector-curvature="0"
       style="fill:#ffffff"
       d="m 246.7,486.298 c -2.6,0.1 -5.2,0.2 -7.8,0.2 -2.2,0 -4.4,-0.1 -6.6,-0.2 -2,0.1 -4.2,0.2 -6.2,0.2 -120.1,0 -217.6,-103.2 -217.6,-230.4 0,-127.2 97.5,-230.4 217.6,-230.4 2,0 4.2,0.1 6.2,0.2 2.2,-0.1 4.4,-0.2 6.6,-0.2 l 7.7,0.2 c -117.7,2.8 -212.5,104.8 -212.5,230.2 0,125.4 94.8,227.5 212.6,230.2 z"
       data-original="#FFFFFF"
       id="path5642" /><path
       inkscape:connector-curvature="0"
       style="fill:#ffffff"
       d="m 281.6,26.398 c -1.5,-0.1 -2.9,-0.2 -10.8,-0.6 0.7,-0.1 1.5,-0.1 2.2,-0.1 4.3,0 8.5,0.1 12.8,0.4 -1.4,0 -2.8,0.1 -4.2,0.3 z"
       data-original="#FFFFFF"
       id="path5644" /><path
       inkscape:connector-curvature="0"
       style="fill:#ffffff"
       d="m 281.6,485.798 c 1.4,0.2 2.8,0.3 4.3,0.3 -4.3,0.3 -8.5,0.4 -12.8,0.4 -0.8,0 -1.6,0 -2.4,-0.1 3.6,-0.1 7.3,-0.3 10.9,-0.6 z"
       data-original="#FFFFFF"
       id="path5646" /><path
       inkscape:connector-curvature="0"
       style="fill:#ffffff"
       d="m 256,485.798 c 1.5,0.2 2.9,0.3 10.8,0.6 -0.7,0.1 -1.5,0.1 -2.2,0.1 -2.2,0 -4.4,-0.1 -6.6,-0.2 -2,0.1 -4.2,0.2 -6.2,0.2 -1.4,0 -2.8,0 -4.3,-0.2 2.9,-0.1 5.7,-0.3 8.5,-0.5 z"
       data-original="#FFFFFF"
       id="path5648" /><path
       inkscape:connector-curvature="0"
       style="fill:#ffffff"
       d="m 256,26.398 -8.5,-0.5 c 1.4,-0.1 2.8,-0.2 4.3,-0.2 2,0 4.2,0.1 6.2,0.2 2.2,-0.1 4.4,-0.2 6.6,-0.2 1.5,0 2.9,0 4.3,0.1 -4.4,0 -8.6,0.2 -12.9,0.6 z"
       data-original="#FFFFFF"
       id="path5650" /><path
       inkscape:connector-curvature="0"
       style="fill:#ffffff"
       d="m 0,256.098 c 0.3,-38.5 9.6,-76.4 27.3,-110.6 10.1,-19.2 22.8,-37 37.7,-52.8 1.8,-2 3.6,-4 5.5,-6 l 6,-5.5 c 4.1,-3.6 7.9,-7.4 12.2,-10.8 8.5,-6.8 17.4,-13 26.7,-18.6 37.3,-22.6 80,-34.6 123.7,-34.8 v 17.1 c -40.5,0.1 -80.2,11.3 -114.8,32.3 -8.6,5.2 -16.9,10.9 -24.8,17.2 -4,3.1 -7.5,6.7 -11.3,10 l -5.6,5.1 c -1.8,1.8 -3.4,3.7 -5.1,5.6 -13.8,14.7 -25.6,31.1 -35,49 -16.5,31.9 -25.2,67 -25.4,102.8 z"
       data-original="#FFFFFF"
       id="path5652" /></g><g
     id="g5718"><path
       inkscape:connector-curvature="0"
       style="fill:#798188"
       d="m 238.5,494.998 c -0.8,0 -1.7,0 -2.5,-0.1 -63.2,-0.7 -122.5,-25.9 -167,-70.8 -44.4,-45 -69,-104.7 -69,-168 0,-4.7 3.8,-8.5 8.5,-8.5 4.7,0 8.5,3.8 8.5,8.5 0,121 98.5,220.6 219.5,221.8 0.2,0 0.4,0 0.6,0 0.5,0 1.1,0.1 1.6,0.1 0.1,0 0.1,0 0.2,0 16.4,0 32.8,-1.8 48.8,-5.3 2.2,-0.5 4.3,-1 6.6,-1.6 100.1,-25.9 168.5,-116.1 166.4,-219.4 -2,-103.4 -74.1,-190.8 -175.1,-212.6 -14.5,-3.1 -29.4,-4.7 -44.3,-4.8 -0.2,0 -0.4,0 -0.7,0 -0.5,0 -1.1,-0.1 -1.6,-0.1 -4.7,0.1 -8.6,-3.7 -8.6,-8.4 -0.1,-4.7 3.7,-8.6 8.4,-8.6 1,0 2,0 3,0.1 15.9,0.2 31.8,1.9 47.4,5.2 52.4,11.3 100,40.3 134.1,81.6 34.1,41.3 53.4,93.6 54.5,147.2 1.1,53.6 -16.1,106.6 -48.5,149.2 -32.4,42.6 -78.8,73.6 -130.6,87 -2.3,0.6 -4.7,1.2 -7.2,1.8 -17.2,3.8 -34.8,5.8 -52.5,5.7 -0.2,0 -0.3,0 -0.5,0 z"
       data-original="#428DFF"
       class="active-path"
       data-old_color="#828588"
       id="path5656" /><path
       inkscape:connector-curvature="0"
       style="fill:#798188"
       d="m 19.8,223.398 c 0.5,-4.6 -2.6,-8.9 -7.2,-9.7 -2.3,-0.4 -4.6,0.1 -6.4,1.5 -1.8,1.4 -3,3.4 -3.3,5.7 -1.7,11.6 -2.7,23.4 -2.9,35.2 h 17.1 c 0.2,-11 1.1,-21.9 2.7,-32.7 z"
       data-original="#428DFF"
       class="active-path"
       data-old_color="#828588"
       id="path5658" /><path
       inkscape:connector-curvature="0"
       style="fill:#798188"
       d="m 27.4,164.798 c 4.3,1.9 9.2,0.1 11.4,-4 l 3.6,-7.4 c 9.4,-17.8 21.1,-34.3 35,-49 1.7,-1.8 3.3,-3.8 5.1,-5.6 l 5.6,-5.1 c 3.8,-3.3 7.3,-6.9 11.3,-10 7.9,-6.3 16.1,-12 24.8,-17.2 34.6,-21 74.3,-32.2 114.8,-32.3 v -17 c -43.6,0.1 -86.4,12.2 -123.7,34.8 -9.3,5.6 -18.2,11.8 -26.7,18.6 -4.3,3.3 -8.1,7.2 -12.2,10.8 l -6,5.5 c -1.9,1.9 -3.7,4 -5.5,6 -14.9,15.8 -27.6,33.5 -37.7,52.8 l -3.8,8 c -1,2 -1.2,4.4 -0.5,6.5 0.8,1.9 2.4,3.7 4.5,4.6 z"
       data-original="#428DFF"
       class="active-path"
       data-old_color="#828588"
       id="path5660" /><path
       inkscape:connector-curvature="0"
       style="fill:#798188"
       d="m 12.2,194.398 c 0.4,0.4 0.8,0.8 1.3,1.2 0.4,0.4 0.9,0.7 1.4,0.9 0.5,0.2 1.1,0.4 1.6,0.6 2.2,0.5 4.5,0.3 6.5,-0.8 0.9,-0.6 1.8,-1.3 2.4,-2.2 1.9,-2.7 2.3,-6.1 1,-9.1 -0.5,-1 -1.2,-1.8 -2.1,-2.6 -0.8,-0.7 -1.8,-1.3 -2.8,-1.7 -2.2,-0.7 -4.5,-0.6 -6.6,0.4 -2.1,1.1 -3.7,2.9 -4.4,5.2 -0.6,2.3 -0.3,4.7 0.8,6.7 z"
       data-original="#428DFF"
       class="active-path"
       data-old_color="#828588"
       id="path5662" /><path
       inkscape:connector-curvature="0"
       style="fill:#798188"
       d="m 240.8,85.498 h -0.5 c -0.3,0 -1.1,-0.1 -1.4,-0.1 -93.9,0 -170.1,75.9 -170.6,169.7 -0.5,93.9 74.9,170.5 168.8,171.5 h 0.9 c 0.3,0 0.8,0.1 1,0.1 12.6,0 25.2,-1.4 37.6,-4.1 1.4,-0.3 2.8,-0.7 5.1,-1.3 76.6,-19.8 129.6,-89.6 127.9,-168.7 -1.7,-79.1 -57.4,-146.7 -134.7,-163.4 -11.2,-2.3 -22.6,-3.6 -34.1,-3.7 z m 151.7,170.6 c 0,70.3 -47.7,131.6 -115.7,148.9 -1.5,0.4 -2.7,0.7 -4,1 -10.9,2.4 -21.9,3.7 -33,3.7 l -0.6,-0.1 c -0.2,0 -0.5,0 -0.7,0 h -1.3 c -84.3,-0.9 -152.1,-69.7 -151.9,-154 0.2,-84.3 68.4,-152.7 152.7,-153.2 0.2,0 1,0.1 1.3,0.1 h 1.2 c 10.3,0.1 20.6,1.2 30.7,3.4 70.7,15.5 121.1,77.9 121.3,150.2 z"
       data-original="#428DFF"
       class="active-path"
       data-old_color="#828588"
       id="path5664" /><path
       inkscape:connector-curvature="0"
       style="fill:#798188"
       d="m 232.9,53.798 c -0.8,0.8 -1.4,1.8 -1.8,2.8 -0.5,1 -0.7,2.1 -0.7,3.2 0,0.6 0.1,1.1 0.2,1.7 0.1,0.5 0.3,1.1 0.5,1.5 0.2,0.5 0.4,1 0.8,1.4 0.3,0.5 0.6,0.9 1,1.4 1.6,1.6 3.8,2.5 6.1,2.5 2.3,0 4.4,-0.9 6.1,-2.5 0.3,-0.4 0.7,-0.9 1,-1.4 0.3,-0.4 0.6,-0.9 0.8,-1.4 0.2,-0.5 0.4,-1 0.5,-1.5 0.1,-0.6 0.2,-1.1 0.2,-1.7 0,-1.1 -0.2,-2.2 -0.7,-3.2 -0.4,-1 -1,-2 -1.8,-2.8 -3.5,-3.2 -8.8,-3.2 -12.2,0 z"
       data-original="#428DFF"
       class="active-path"
       data-old_color="#828588"
       id="path5666" /><path
       inkscape:connector-curvature="0"
       style="fill:#798188"
       d="m 232.9,446.298 c -0.8,0.8 -1.4,1.8 -1.8,2.8 -0.5,1 -0.7,2.1 -0.7,3.2 0,0.5 0.1,1.1 0.2,1.6 0.1,0.6 0.3,1.1 0.5,1.6 0.2,0.5 0.4,1 0.8,1.5 0.3,0.5 0.6,0.9 1,1.4 1.6,1.6 3.8,2.5 6.1,2.5 2.3,0 4.4,-0.9 6.1,-2.5 0.3,-0.4 0.7,-0.9 1,-1.4 0.3,-0.4 0.6,-0.9 0.8,-1.4 0.3,-0.5 0.4,-1.1 0.5,-1.6 0.1,-0.5 0.2,-1.1 0.2,-1.6 0,-1.1 -0.2,-2.2 -0.7,-3.2 -0.4,-1 -1,-2 -1.8,-2.8 -3.5,-3.3 -8.8,-3.3 -12.2,-0.1 z"
       data-original="#428DFF"
       class="active-path"
       data-old_color="#828588"
       id="path5668" /><path
       inkscape:connector-curvature="0"
       style="fill:#798188"
       d="m 194.1,72.498 c 0.4,-0.4 0.8,-0.8 1.1,-1.3 0.3,-0.5 0.5,-0.9 0.8,-1.4 0.2,-0.5 0.3,-1.1 0.5,-1.6 0.1,-0.6 0.2,-1.1 0.2,-1.7 0,-2.3 -0.9,-4.4 -2.6,-6 -2,-2 -4.9,-2.9 -7.7,-2.4 -0.5,0.1 -1.1,0.3 -1.6,0.5 -0.5,0.2 -1,0.5 -1.4,0.8 -0.4,0.3 -0.9,0.7 -1.3,1.1 -3.3,3.3 -3.3,8.7 0,12 3.3,3.3 8.7,3.3 12,0 z"
       data-original="#428DFF"
       class="active-path"
       data-old_color="#828588"
       id="path5670" /><path
       inkscape:connector-curvature="0"
       style="fill:#798188"
       d="m 286.5,437.798 c -1,0.4 -1.9,1.1 -2.7,1.9 -0.4,0.4 -0.8,0.8 -1.1,1.3 -0.3,0.5 -0.5,0.9 -0.8,1.4 -0.2,0.5 -0.4,1.1 -0.5,1.6 -0.1,0.6 -0.2,1.1 -0.2,1.7 0,1.1 0.2,2.2 0.7,3.2 0.9,2.1 2.5,3.7 4.6,4.6 3.2,1.4 6.9,0.6 9.3,-1.9 0.8,-0.8 1.4,-1.7 1.9,-2.7 0.4,-1 0.6,-2.1 0.6,-3.2 0,-2.3 -0.9,-4.5 -2.5,-6.1 -2.5,-2.4 -6.1,-3.1 -9.3,-1.8 z"
       data-original="#428DFF"
       class="active-path"
       data-old_color="#828588"
       id="path5672" /><path
       inkscape:connector-curvature="0"
       style="fill:#798188"
       d="m 144,94.098 c 1,-0.5 2,-1.1 2.8,-1.9 1.6,-1.6 2.5,-3.8 2.5,-6.1 0,-1.1 -0.2,-2.2 -0.7,-3.2 -0.4,-1 -1,-2 -1.8,-2.8 -2.1,-2 -5,-2.8 -7.8,-2.3 -0.5,0.1 -1.1,0.3 -1.5,0.5 -0.5,0.2 -1.1,0.4 -1.5,0.8 -0.4,0.3 -0.9,0.7 -1.3,1 -0.8,0.8 -1.4,1.8 -1.8,2.8 -0.5,1 -0.7,2.1 -0.7,3.2 0,2.3 0.9,4.5 2.5,6.1 1.6,1.6 3.8,2.5 6.1,2.5 1.1,0 2.2,-0.2 3.2,-0.6 z"
       data-original="#428DFF"
       class="active-path"
       data-old_color="#828588"
       id="path5674" /><path
       inkscape:connector-curvature="0"
       style="fill:#798188"
       d="m 340.3,418.198 c -0.5,-0.3 -1.1,-0.4 -1.6,-0.5 -1.1,-0.3 -2.2,-0.3 -3.3,0 -0.5,0.1 -1.1,0.3 -1.5,0.5 -0.5,0.2 -1.1,0.4 -1.5,0.8 -0.4,0.3 -0.9,0.7 -1.3,1 -0.4,0.4 -0.7,0.8 -1,1.3 -0.3,0.5 -0.6,1 -0.8,1.5 -0.2,0.5 -0.4,1 -0.5,1.5 -0.1,0.6 -0.2,1.1 -0.2,1.7 0,4.7 3.8,8.5 8.5,8.5 2.3,0 4.5,-0.9 6.1,-2.6 0.8,-0.8 1.4,-1.7 1.8,-2.7 0.4,-1 0.7,-2.1 0.7,-3.2 0,-2.3 -0.9,-4.4 -2.5,-6.1 -0.4,-0.4 -0.8,-0.7 -1.3,-1 -0.5,-0.2 -1,-0.5 -1.6,-0.7 z"
       data-original="#428DFF"
       class="active-path"
       data-old_color="#828588"
       id="path5676" /><path
       inkscape:connector-curvature="0"
       style="fill:#798188"
       d="m 100.2,125.898 c 0.5,0 1.1,-0.1 1.6,-0.2 0.5,-0.2 1.1,-0.3 1.6,-0.5 0.5,-0.3 1,-0.5 1.4,-0.8 0.5,-0.3 0.9,-0.7 1.3,-1.1 0.8,-0.8 1.4,-1.7 1.9,-2.7 0.4,-1 0.6,-2.1 0.6,-3.2 0,-2.3 -0.9,-4.5 -2.5,-6.1 -3.4,-3.2 -8.6,-3.2 -12,0 -1.6,1.6 -2.5,3.8 -2.5,6.1 0,1.1 0.2,2.2 0.6,3.2 1.4,3.1 4.5,5.2 8,5.3 z"
       data-original="#428DFF"
       class="active-path"
       data-old_color="#828588"
       id="path5678" /><path
       inkscape:connector-curvature="0"
       style="fill:#798188"
       d="m 374.4,386.998 c -1,0.4 -2,1.1 -2.7,1.9 -1.6,1.6 -2.5,3.7 -2.6,6 0,1.1 0.2,2.3 0.7,3.3 0.4,1 1.1,2 1.9,2.7 0.8,0.8 1.7,1.4 2.7,1.9 3.2,1.2 6.8,0.5 9.3,-1.9 0.8,-0.8 1.4,-1.7 1.9,-2.7 0.4,-1.1 0.6,-2.2 0.6,-3.3 0,-2.2 -0.9,-4.4 -2.5,-6 -2.4,-2.4 -6.1,-3.2 -9.3,-1.9 z"
       data-original="#428DFF"
       class="active-path"
       data-old_color="#828588"
       id="path5680" /><path
       inkscape:connector-curvature="0"
       style="fill:#798188"
       d="m 69,166.498 c 2.3,0 4.4,-0.9 6.1,-2.5 0.4,-0.4 0.7,-0.9 1,-1.4 0.3,-0.4 0.6,-0.9 0.8,-1.5 0.2,-0.5 0.4,-1 0.5,-1.5 0.1,-0.6 0.2,-1.1 0.2,-1.7 0,-2.3 -0.9,-4.4 -2.5,-6.1 -0.4,-0.4 -0.8,-0.7 -1.3,-1 -0.5,-0.3 -1,-0.6 -1.5,-0.8 -0.5,-0.2 -1,-0.4 -1.5,-0.5 -1.1,-0.3 -2.2,-0.3 -3.3,0 -0.6,0.1 -1.1,0.2 -1.6,0.5 -0.5,0.2 -1.1,0.4 -1.5,0.8 -0.4,0.3 -0.9,0.7 -1.3,1 -0.8,0.8 -1.4,1.8 -1.8,2.8 -0.4,1 -0.7,2.1 -0.7,3.2 0,2.3 0.9,4.5 2.5,6.1 1.4,1.7 3.6,2.6 5.9,2.6 z"
       data-original="#428DFF"
       class="active-path"
       data-old_color="#828588"
       id="path5682" /><path
       inkscape:connector-curvature="0"
       style="fill:#798188"
       d="m 405.7,346.398 c -1.1,0.4 -2,1 -2.8,1.8 -0.8,0.8 -1.4,1.8 -1.9,2.8 -0.4,1 -0.6,2.1 -0.6,3.2 0,0.6 0,1.1 0.2,1.7 0.1,0.5 0.3,1 0.4,1.5 0.5,1 1.1,2 1.9,2.8 1.6,1.6 3.8,2.4 6.1,2.5 4.7,0 8.5,-3.8 8.5,-8.5 0,-1.1 -0.2,-2.2 -0.7,-3.2 -0.4,-1.1 -1.1,-2 -1.9,-2.8 -2.4,-2.4 -6.1,-3.1 -9.2,-1.8 z"
       data-original="#428DFF"
       class="active-path"
       data-old_color="#828588"
       id="path5684" /><path
       inkscape:connector-curvature="0"
       style="fill:#798188"
       d="m 55.4,199.298 c -0.4,-0.4 -0.8,-0.7 -1.3,-1 -0.5,-0.3 -0.9,-0.6 -1.4,-0.9 -0.5,-0.2 -1.1,-0.3 -1.6,-0.4 -2.5,-0.5 -5.1,0.2 -7.1,1.8 -2,1.6 -3.1,4 -3.1,6.6 0,2.3 0.9,4.4 2.6,6 0.8,0.8 1.7,1.5 2.7,1.9 1.1,0.4 2.2,0.7 3.3,0.7 4.7,-0.1 8.4,-3.9 8.4,-8.5 0,-2.4 -0.9,-4.6 -2.5,-6.2 z"
       data-original="#428DFF"
       class="active-path"
       data-old_color="#828588"
       id="path5686" /><path
       inkscape:connector-curvature="0"
       style="fill:#798188"
       d="m 422.5,312.898 c 3.3,3.3 8.7,3.3 12,0 2.5,-2.4 3.3,-6.1 1.9,-9.3 -0.4,-1 -1.1,-2 -1.9,-2.7 -3.4,-3.2 -8.7,-3.2 -12,0 -0.8,0.8 -1.4,1.7 -1.9,2.7 -1.2,3.2 -0.5,6.9 1.9,9.3 z"
       data-original="#428DFF"
       class="active-path"
       data-old_color="#828588"
       id="path5688" /><path
       inkscape:connector-curvature="0"
       style="fill:#798188"
       d="m 48.7,262.198 c 3.3,-3.4 3.3,-8.8 0,-12.1 -3.3,-3.3 -8.8,-3.3 -12.1,0 -3.3,3.3 -3.3,8.8 0,12.1 0.4,0.3 0.9,0.7 1.3,1 0.5,0.3 1,0.6 1.5,0.8 0.5,0.2 1,0.4 1.5,0.5 0.6,0.1 1.1,0.2 1.7,0.2 2.3,-0.1 4.5,-1 6.1,-2.5 z"
       data-original="#428DFF"
       class="active-path"
       data-old_color="#828588"
       id="path5690" /><path
       inkscape:connector-curvature="0"
       style="fill:#798188"
       d="m 427.4,252.898 c -0.4,1 -0.7,2.1 -0.7,3.2 0,2.3 0.9,4.4 2.5,6.1 0.4,0.3 0.9,0.7 1.3,1 0.5,0.3 1,0.6 1.5,0.8 0.5,0.2 1,0.4 1.5,0.5 0.6,0.1 1.1,0.2 1.7,0.2 2.3,0 4.5,-0.9 6.1,-2.5 1.6,-1.6 2.5,-3.8 2.5,-6.1 0,-1.1 -0.2,-2.2 -0.7,-3.2 -0.4,-1 -1,-2 -1.8,-2.8 -3.4,-3.2 -8.7,-3.2 -12.1,0 -0.8,0.8 -1.4,1.7 -1.8,2.8 z"
       data-original="#428DFF"
       class="active-path"
       data-old_color="#828588"
       id="path5692" /><path
       inkscape:connector-curvature="0"
       style="fill:#798188"
       d="m 46.1,314.798 c 1.1,0.4 2.2,0.6 3.3,0.6 2.2,0 4.4,-0.9 6,-2.5 1.6,-1.6 2.5,-3.8 2.5,-6.1 0,-2.2 -0.9,-4.4 -2.5,-6 -2.5,-2.4 -6.1,-3.1 -9.3,-1.9 -2,0.9 -3.7,2.6 -4.6,4.6 -1.4,3.2 -0.6,6.9 1.9,9.3 0.7,0.9 1.7,1.6 2.7,2 z"
       data-original="#428DFF"
       class="active-path"
       data-old_color="#828588"
       id="path5694" /><path
       inkscape:connector-curvature="0"
       style="fill:#798188"
       d="m 422.5,199.298 c -1.6,1.6 -2.5,3.8 -2.5,6.1 0,0.5 0,1.1 0.2,1.6 0.1,0.6 0.2,1.1 0.4,1.6 0.3,0.5 0.5,1 0.8,1.4 0.3,0.5 0.7,0.9 1.1,1.3 2.4,2.4 6.1,3.1 9.3,1.8 3.2,-1.3 5.3,-4.4 5.3,-7.8 0,-2.3 -0.9,-4.5 -2.6,-6.1 -3.4,-3.1 -8.6,-3.1 -12,0.1 z"
       data-original="#428DFF"
       class="active-path"
       data-old_color="#828588"
       id="path5696" /><path
       inkscape:connector-curvature="0"
       style="fill:#798188"
       d="m 62.9,360.298 c 2.9,3 7.5,3.4 10.9,1.2 3.5,-2.3 4.8,-6.7 3.3,-10.5 -1.6,-3.8 -5.6,-6 -9.7,-5.2 -4.1,0.8 -7,4.4 -7,8.5 0,2.2 0.9,4.4 2.5,6 z"
       data-original="#428DFF"
       class="active-path"
       data-old_color="#828588"
       id="path5698" /><path
       inkscape:connector-curvature="0"
       style="fill:#798188"
       d="m 416.8,154.698 c -0.4,-1.1 -1.1,-2 -1.9,-2.8 -2.4,-2.4 -6.1,-3.1 -9.2,-1.8 -1.1,0.4 -2,1 -2.8,1.8 -0.8,0.8 -1.4,1.8 -1.9,2.8 -0.4,1 -0.6,2.1 -0.6,3.2 0,0.6 0,1.1 0.2,1.7 0.1,0.5 0.3,1 0.4,1.5 0.5,1 1.1,2 1.9,2.8 1.6,1.6 3.8,2.4 6.1,2.5 2.2,0 4.4,-0.9 6,-2.5 2.4,-2.3 3.1,-6 1.8,-9.2 z"
       data-original="#428DFF"
       class="active-path"
       data-old_color="#828588"
       id="path5700" /><path
       inkscape:connector-curvature="0"
       style="fill:#798188"
       d="m 94.1,388.898 c -3.3,3.3 -3.3,8.7 0,12 3.3,3.3 8.7,3.3 12,0 3.3,-3.3 3.3,-8.7 0,-12 -3.3,-3.2 -8.6,-3.2 -12,0 z"
       data-original="#428DFF"
       class="active-path"
       data-old_color="#828588"
       id="path5702" /><path
       inkscape:connector-curvature="0"
       style="fill:#798188"
       d="m 374.4,125.198 c 3.2,1.4 6.9,0.6 9.3,-1.9 0.8,-0.8 1.4,-1.7 1.9,-2.7 0.4,-1 0.6,-2.1 0.6,-3.2 0,-2.9 -1.4,-5.5 -3.8,-7.1 -2.4,-1.6 -5.4,-1.9 -8,-0.8 -1,0.4 -2,1.1 -2.7,1.9 -0.8,0.8 -1.5,1.7 -1.9,2.7 -0.4,1.1 -0.7,2.2 -0.7,3.3 0,1.1 0.2,2.2 0.7,3.2 0.4,1 1.1,2 1.9,2.7 0.8,0.8 1.7,1.5 2.7,1.9 z"
       data-original="#428DFF"
       class="active-path"
       data-old_color="#828588"
       id="path5704" /><path
       inkscape:connector-curvature="0"
       style="fill:#798188"
       d="m 139.1,417.698 c -0.5,0.1 -1.1,0.3 -1.5,0.5 -0.5,0.2 -1.1,0.4 -1.5,0.8 -0.4,0.3 -0.9,0.7 -1.3,1 -0.8,0.8 -1.4,1.8 -1.8,2.8 -0.5,1 -0.7,2.1 -0.7,3.2 0,2.3 0.9,4.4 2.5,6.1 1.6,1.6 3.8,2.5 6.1,2.5 1.1,0 2.2,-0.2 3.2,-0.7 1,-0.4 2,-1 2.8,-1.8 1.6,-1.6 2.4,-3.8 2.5,-6.1 0,-1.1 -0.2,-2.2 -0.7,-3.2 -0.4,-1.1 -1,-2 -1.8,-2.8 -2.1,-2 -5,-2.8 -7.8,-2.3 z"
       data-original="#428DFF"
       class="active-path"
       data-old_color="#828588"
       id="path5706" /><path
       inkscape:connector-curvature="0"
       style="fill:#798188"
       d="m 343.1,92.198 c 0.8,-0.8 1.4,-1.8 1.8,-2.8 0.4,-1 0.7,-2.1 0.7,-3.2 0,-0.5 -0.1,-1.1 -0.2,-1.6 -0.1,-0.6 -0.2,-1.1 -0.5,-1.6 -0.2,-0.5 -0.4,-1 -0.8,-1.4 -0.3,-0.5 -0.7,-0.9 -1,-1.4 -0.4,-0.3 -0.9,-0.7 -1.3,-1 -0.5,-0.3 -1,-0.6 -1.5,-0.8 -0.5,-0.3 -1.1,-0.4 -1.6,-0.5 -1.1,-0.2 -2.2,-0.2 -3.3,0 -0.5,0.1 -1.1,0.3 -1.5,0.5 -0.5,0.2 -1.1,0.4 -1.5,0.8 -0.4,0.3 -0.9,0.7 -1.3,1 -0.4,0.4 -0.7,0.9 -1,1.4 -0.3,0.4 -0.6,0.9 -0.8,1.4 -0.3,0.5 -0.4,1.1 -0.5,1.6 -0.1,0.5 -0.2,1.1 -0.2,1.6 0,2.3 0.9,4.4 2.5,6.1 1.6,1.6 3.8,2.5 6.1,2.5 2.1,-0.2 4.3,-1.1 5.9,-2.6 z"
       data-original="#428DFF"
       class="active-path"
       data-old_color="#828588"
       id="path5708" /><path
       inkscape:connector-curvature="0"
       style="fill:#798188"
       d="m 186.5,437.298 c -0.5,0.1 -1.1,0.3 -1.6,0.4 -0.5,0.3 -0.9,0.5 -1.4,0.8 -0.4,0.3 -0.9,0.7 -1.3,1.1 -3.3,3.3 -3.3,8.7 0,12 0.4,0.4 0.8,0.8 1.3,1.1 0.5,0.3 0.9,0.5 1.4,0.8 0.6,0.2 1.1,0.3 1.6,0.5 0.6,0.1 1.1,0.2 1.7,0.2 4.7,-0.1 8.4,-3.9 8.5,-8.5 0,-2.6 -1.2,-5 -3.2,-6.6 -1.9,-1.6 -4.5,-2.3 -7,-1.8 z"
       data-original="#428DFF"
       class="active-path"
       data-old_color="#828588"
       id="path5710" /><path
       inkscape:connector-curvature="0"
       style="fill:#798188"
       d="m 286.5,74.398 c 3.2,1.2 6.8,0.5 9.3,-1.9 0.8,-0.8 1.4,-1.7 1.9,-2.7 0.4,-1.1 0.6,-2.2 0.6,-3.3 0,-2.2 -0.9,-4.4 -2.5,-6 -2.5,-2.4 -6.1,-3.1 -9.3,-1.9 -1,0.4 -2,1.1 -2.7,1.9 -0.4,0.4 -0.8,0.8 -1.1,1.3 -0.3,0.5 -0.6,0.9 -0.8,1.4 -0.2,0.5 -0.4,1.1 -0.5,1.6 -0.1,0.5 -0.2,1.1 -0.2,1.6 0,1.1 0.2,2.3 0.7,3.3 0.4,1 1.1,2 1.9,2.7 0.7,0.9 1.6,1.6 2.7,2 z"
       data-original="#428DFF"
       class="active-path"
       data-old_color="#828588"
       id="path5712" /><path
       inkscape:connector-curvature="0"
       style="fill:#798188"
       d="m 501,184.298 c -8,-25.3 -20.1,-49.1 -36,-70.3 -0.1,-0.2 -0.2,-0.3 -0.3,-0.5 -45,-60.6 -116.1,-96.3 -191.6,-96.3 -6.7,0 -12.5,0.2 -17.8,0.7 -3,0.3 -5.7,2.1 -7,4.9 -1.3,2.8 -1,6 0.8,8.5 1.8,2.5 4.7,3.9 7.8,3.6 4.8,-0.4 10.1,-0.7 16.3,-0.7 64.4,0 125.6,28 167.7,76.8 h -16.2 c -4.7,0 -8.5,3.8 -8.5,8.5 0,4.7 3.8,8.5 8.5,8.5 h 29.6 c 11.2,15.8 20.3,33 27.1,51.2 h -22.1 c -4.7,0 -8.5,3.8 -8.5,8.5 0,4.7 3.8,8.5 8.5,8.5 h 27.6 c 4.7,16.7 7.4,33.9 8,51.2 h -25.4 c -4.7,0 -8.5,3.8 -8.5,8.5 0,4.7 3.8,8.5 8.5,8.5 h 25.4 c -0.7,17.3 -3.3,34.5 -8,51.2 h -27.6 c -4.7,0 -8.5,3.8 -8.5,8.5 0,4.7 3.8,8.5 8.5,8.5 h 22.1 c -6.8,18.2 -15.9,35.4 -27.1,51.2 h -29.6 c -4.7,0 -8.5,3.8 -8.5,8.5 0,4.7 3.8,8.5 8.5,8.5 h 16.2 c -42.1,48.8 -103.3,76.8 -167.7,76.8 -6.2,0 -11.5,-0.2 -16.3,-0.6 -3,-0.3 -6,1.1 -7.8,3.6 -1.8,2.5 -2.1,5.7 -0.8,8.5 1.3,2.8 3.9,4.6 7,4.9 5.3,0.5 11.1,0.7 17.8,0.7 75.5,0 146.6,-35.7 191.6,-96.3 0.1,-0.1 0.2,-0.3 0.3,-0.5 15.8,-21.3 28,-45.1 36,-70.3 0.1,-0.2 0.1,-0.4 0.2,-0.6 14.4,-46.4 14.4,-96 0,-142.4 -0.1,0.1 -0.1,-0.1 -0.2,-0.3 z"
       data-original="#428DFF"
       class="active-path"
       data-old_color="#828588"
       id="path5714" /><path
       inkscape:connector-curvature="0"
       style="fill:#798188"
       d="m 207.8,142.998 -21.2,81.1 -34.6,6.5 c -4,0.8 -7,4.3 -7,8.4 v 34.1 c 0,2.5 1.1,4.9 3.1,6.6 2,1.7 4.5,2.3 7,1.8 l 17.3,-3.2 -15.9,61 c -0.7,2.6 -0.1,5.3 1.5,7.4 1.6,2.1 4.1,3.3 6.8,3.3 h 153.6 c 3.7,0 6.9,-2.3 8.1,-5.8 l 14.3,-42.7 c 0.9,-2.6 0.4,-5.5 -1.2,-7.7 -1.6,-2.2 -4.2,-3.6 -6.9,-3.6 h -83 l 6.7,-27.7 35.3,-6.6 c 4,-0.8 7,-4.3 7,-8.4 v -34.1 c 0,-2.5 -1.1,-4.9 -3.1,-6.6 -2,-1.6 -4.5,-2.3 -7,-1.8 l -19.2,3.6 14.8,-61.5 c 0.6,-2.5 0,-5.2 -1.6,-7.3 -1.6,-2.1 -4.1,-3.3 -6.7,-3.3 h -59.7 c -4,0.1 -7.4,2.8 -8.4,6.5 z m 57.2,10.7 -15.3,63.8 c -0.7,2.8 0.1,5.8 2.1,7.9 2,2.1 4.9,3 7.8,2.5 l 22.1,-4.2 v 16.8 l -33.7,6.3 c -3.4,0.7 -6.1,3.3 -6.8,6.7 l -10.4,43.3 c -0.6,2.5 0,5.2 1.6,7.3 1.6,2.1 4.1,3.3 6.7,3.3 h 82 l -8.6,25.6 H 175.9 l 16.5,-63.3 c 0.7,-2.8 0,-5.8 -2,-8 -2,-2.1 -4.9,-3.1 -7.8,-2.6 l -20.4,3.8 v -16.8 l 33,-6.2 c 3.2,-0.6 5.8,-3 6.7,-6.2 l 20.9,-80 z"
       data-original="#428DFF"
       class="active-path"
       data-old_color="#828588"
       id="path5716" /></g></g><circle
   style="fill:#38454f"
   cx="15.352606"
   cy="46.939445"
   r="3"
   id="circle4287" /></svg>