<?xml version="1.0" encoding="UTF-8" standalone="no"?>
<!-- Generator: Adobe Illustrator 19.0.0, SVG Export Plug-In . SVG Version: 6.00 Build 0)  -->

<svg
   xmlns:dc="http://purl.org/dc/elements/1.1/"
   xmlns:cc="http://creativecommons.org/ns#"
   xmlns:rdf="http://www.w3.org/1999/02/22-rdf-syntax-ns#"
   xmlns:sodipodi="http://sodipodi.sourceforge.net/DTD/sodipodi-0.dtd"
   xmlns:inkscape="http://www.inkscape.org/namespaces/inkscape"
   xmlns="http://www.w3.org/2000/svg"
   version="1.1"
   id="Capa_1"
   x="0px"
   y="0px"
   viewBox="0 0 56 56"
   style="enable-background:new 0 0 56 56;"
   xml:space="preserve"
   sodipodi:docname="asic-btc.svg"
   inkscape:version="0.92.3 (2405546, 2018-03-11)"><metadata
   id="metadata4344"><rdf:RDF><cc:Work
       rdf:about=""><dc:format>image/svg+xml</dc:format><dc:type
         rdf:resource="http://purl.org/dc/dcmitype/StillImage" /><dc:title /></cc:Work></rdf:RDF></metadata><defs
   id="defs4342" /><sodipodi:namedview
   pagecolor="#ffffff"
   bordercolor="#666666"
   borderopacity="1"
   objecttolerance="10"
   gridtolerance="10"
   guidetolerance="10"
   inkscape:pageopacity="0"
   inkscape:pageshadow="2"
   inkscape:window-width="1377"
   inkscape:window-height="851"
   id="namedview4340"
   showgrid="false"
   inkscape:zoom="2.97995"
   inkscape:cx="-17.240404"
   inkscape:cy="33.550419"
   inkscape:window-x="0"
   inkscape:window-y="0"
   inkscape:window-maximized="0"
   inkscape:current-layer="Capa_1" />
<path
   style="fill:#E7ECED;"
   d="M49.104,56H6.896C5.849,56,5,55.151,5,54.104V1.896C5,0.849,5.849,0,6.896,0h42.209  C50.151,0,51,0.849,51,1.896v52.209C51,55.151,50.151,56,49.104,56z"
   id="path4285" />
<circle
   style="fill:#38454F;"
   cx="14"
   cy="47"
   r="3"
   id="circle4287" />
<circle
   style="fill:#25AE88;"
   cx="21"
   cy="47"
   r="2"
   id="circle4289" />
<circle
   style="fill:#ED7161;"
   cx="26"
   cy="47"
   r="2"
   id="circle4291" />




<rect
   x="44"
   y="44"
   style="fill:#CBD4D8;"
   width="2"
   height="6"
   id="rect4301" />
<rect
   x="41"
   y="44"
   style="fill:#CBD4D8;"
   width="2"
   height="6"
   id="rect4303" />
<rect
   x="38"
   y="44"
   style="fill:#CBD4D8;"
   width="2"
   height="6"
   id="rect4305" />
<rect
   x="35"
   y="44"
   style="fill:#CBD4D8;"
   width="2"
   height="6"
   id="rect4307" />
<g
   id="g4309">
</g>
<g
   id="g4311">
</g>
<g
   id="g4313">
</g>
<g
   id="g4315">
</g>
<g
   id="g4317">
</g>
<g
   id="g4319">
</g>
<g
   id="g4321">
</g>
<g
   id="g4323">
</g>
<g
   id="g4325">
</g>
<g
   id="g4327">
</g>
<g
   id="g4329">
</g>
<g
   id="g4331">
</g>
<g
   id="g4333">
</g>
<g
   id="g4335">
</g>
<g
   id="g4337">
</g>
<g
   id="g4519"
   transform="matrix(0.07061105,0,0,0.07023763,9.8224073,5.2490958)"><g
     id="g4517"><path
       style="fill:#fbfbfb"
       d="m 495.616,196.267 c -1.536,-5.803 -3.328,-11.52 -5.291,-17.067 -6.361,-18.085 -14.992,-35.289 -25.685,-51.2 -3.919,-5.898 -8.134,-11.594 -12.629,-17.067 C 408.316,56.918 342.543,25.553 273.067,25.6 267.35,25.6 261.632,25.771 256,26.283 v 0.014 c -5.642,-0.414 -11.319,-0.696 -17.067,-0.696 -2.208,0 -4.39,0.105 -6.583,0.167 -2.071,-0.061 -4.132,-0.167 -6.217,-0.167 -120.177,0 -217.6,103.154 -217.6,230.4 0,127.246 97.423,230.4 217.6,230.4 2.085,0 4.146,-0.105 6.217,-0.167 2.193,0.061 4.375,0.167 6.583,0.167 5.747,0 11.425,-0.283 17.067,-0.696 v 0.014 c 5.632,0.512 11.349,0.683 17.067,0.683 69.476,0.047 135.249,-31.318 178.944,-85.333 4.437,-5.461 8.704,-11.179 12.629,-17.067 10.693,-15.911 19.324,-33.115 25.685,-51.2 1.963,-5.547 3.755,-11.264 5.291,-17.067 4.536,-16.709 7.085,-33.894 7.595,-51.2 0.171,-2.816 0.256,-5.632 0.256,-8.533 0,-2.901 -0.085,-5.717 -0.256,-8.533 -0.51,-17.308 -3.059,-34.494 -7.595,-51.202 z"
       data-original="#E3E7F2"
       class="active-path"
       data-old_color="#F4F5F8"
       id="path4437"
       inkscape:connector-curvature="0" /><g
       transform="translate(1)"
       id="g4449"><path
         style="fill:#ffffff"
         d="m 245.699,486.229 c -2.56,0.085 -5.205,0.171 -7.765,0.171 -2.219,0 -4.352,-0.085 -6.571,-0.171 -2.048,0.085 -4.181,0.171 -6.229,0.171 -120.149,0 -217.6,-103.168 -217.6,-230.4 0,-127.232 97.451,-230.4 217.6,-230.4 2.048,0 4.181,0.085 6.229,0.171 2.219,-0.085 4.352,-0.171 6.571,-0.171 l 7.68,0.171 C 127.853,28.587 33.133,130.56 33.133,256 c 0,125.44 94.72,227.499 212.566,230.229 z"
         data-original="#FFFFFF"
         class=""
         id="path4439"
         inkscape:connector-curvature="0" /><path
         style="fill:#ffffff"
         d="m 280.6,26.283 c -1.451,-0.085 -2.901,-0.171 -10.752,-0.597 0.737,-0.071 1.478,-0.1 2.219,-0.086 4.267,0 8.533,0.085 12.8,0.427 -1.426,-0.002 -2.851,0.083 -4.267,0.256 z"
         data-original="#FFFFFF"
         class=""
         id="path4441"
         inkscape:connector-curvature="0" /><path
         style="fill:#ffffff"
         d="m 280.6,485.717 c 1.416,0.173 2.841,0.258 4.267,0.256 -4.267,0.341 -8.533,0.427 -12.8,0.427 -0.797,0.014 -1.595,-0.014 -2.389,-0.085 3.669,-0.086 7.338,-0.342 10.922,-0.598 z"
         data-original="#FFFFFF"
         class=""
         id="path4443"
         inkscape:connector-curvature="0" /><path
         style="fill:#ffffff"
         d="m 255,485.717 c 1.451,0.171 2.901,0.256 10.752,0.597 -0.737,0.071 -1.478,0.1 -2.219,0.085 -2.219,0 -4.352,-0.085 -6.571,-0.171 -2.048,0.085 -4.181,0.171 -6.229,0.171 -1.424,0.03 -2.849,-0.027 -4.267,-0.171 2.902,-0.169 5.718,-0.34 8.534,-0.511 z"
         data-original="#FFFFFF"
         class=""
         id="path4445"
         inkscape:connector-curvature="0" /><path
         style="fill:#ffffff"
         d="m 255,26.283 -8.533,-0.512 c 1.417,-0.144 2.842,-0.201 4.267,-0.171 2.048,0 4.181,0.085 6.229,0.171 2.219,-0.085 4.352,-0.171 6.571,-0.171 1.451,0 2.901,0 4.267,0.085 -4.268,0 -8.534,0.256 -12.801,0.598 z"
         data-original="#FFFFFF"
         class=""
         id="path4447"
         inkscape:connector-curvature="0" /></g><g
       id="g4515"><path
         style="fill:#ffffff"
         d="m 0,256 c 0.261,-38.51 9.603,-76.416 27.267,-110.637 10.081,-19.222 22.749,-36.972 37.65,-52.755 1.841,-1.987 3.609,-4.047 5.514,-5.969 l 6.01,-5.473 c 4.063,-3.581 7.901,-7.435 12.161,-10.778 8.467,-6.769 17.375,-12.968 26.665,-18.555 37.299,-22.607 80.051,-34.627 123.666,-34.767 v 17.067 c -40.493,0.139 -80.183,11.301 -114.811,32.29 -8.629,5.186 -16.904,10.939 -24.771,17.221 -3.961,3.1 -7.508,6.702 -11.289,10.02 l -5.594,5.073 c -1.768,1.787 -3.402,3.709 -5.111,5.555 C 63.516,118.946 51.749,135.429 42.386,153.28 26,185.059 17.326,220.248 17.067,256 Z"
         data-original="#FFFFFF"
         class=""
         id="path4451"
         inkscape:connector-curvature="0" /><g
         id="g4513"><path
           style="fill:#ff9b00"
           d="m 12.202,194.315 c 0.375,0.443 0.809,0.833 1.289,1.16 0.405,0.365 0.862,0.667 1.358,0.894 0.52,0.238 1.056,0.439 1.604,0.603 2.175,0.54 4.473,0.261 6.456,-0.784 0.934,-0.554 1.751,-1.285 2.405,-2.153 1.919,-2.658 2.289,-6.132 0.973,-9.134 -0.521,-0.971 -1.22,-1.836 -2.06,-2.55 -0.827,-0.742 -1.79,-1.318 -2.835,-1.694 -2.17,-0.714 -4.531,-0.57 -6.597,0.404 -2.096,1.058 -3.675,2.918 -4.379,5.157 -0.559,2.272 -0.27,4.67 0.814,6.744 z"
           data-original="#428DFF"
           class=""
           data-old_color="#FFA300"
           id="path4453"
           inkscape:connector-curvature="0" /><path
           style="fill:#ff9b00"
           d="M 238.933,426.667 C 333.19,426.667 409.6,350.257 409.6,256 409.6,161.743 333.19,85.333 238.933,85.333 144.676,85.333 68.267,161.743 68.267,256 c 0.107,94.212 76.454,170.559 170.666,170.667 z m 0,-324.267 c 84.831,0 153.6,68.769 153.6,153.6 0,84.831 -68.769,153.6 -153.6,153.6 -84.831,0 -153.6,-68.769 -153.6,-153.6 0.096,-84.791 68.809,-153.504 153.6,-153.6 z"
           data-original="#428DFF"
           class=""
           data-old_color="#FFA300"
           id="path4455"
           inkscape:connector-curvature="0" /><path
           style="fill:#ff9b00"
           d="m 244.992,65.792 c 0.341,-0.429 0.683,-0.854 1.021,-1.279 0.324,-0.476 0.583,-0.993 0.771,-1.538 0.245,-0.485 0.418,-1.003 0.512,-1.538 0.094,-0.564 0.151,-1.133 0.171,-1.704 0.02,-3.467 -2.059,-6.601 -5.261,-7.931 -3.202,-1.33 -6.89,-0.59 -9.331,1.872 -0.754,0.828 -1.362,1.78 -1.796,2.813 -0.436,1.027 -0.667,2.13 -0.679,3.246 0.016,2.263 0.902,4.432 2.475,6.059 3.364,3.3 8.752,3.3 12.117,0 z"
           data-original="#428DFF"
           class=""
           data-old_color="#FFA300"
           id="path4457"
           inkscape:connector-curvature="0" /><path
           style="fill:#ff9b00"
           d="m 232.875,446.208 c -0.754,0.828 -1.362,1.78 -1.796,2.813 -0.436,1.027 -0.667,2.13 -0.679,3.246 0.016,2.263 0.902,4.432 2.475,6.059 3.365,3.3 8.752,3.3 12.117,0 0.341,-0.429 0.683,-0.854 1.021,-1.279 0.324,-0.476 0.583,-0.993 0.771,-1.538 0.245,-0.485 0.418,-1.003 0.513,-1.538 0.094,-0.564 0.151,-1.133 0.171,-1.704 0.02,-3.467 -2.059,-6.601 -5.261,-7.931 -3.202,-1.33 -6.891,-0.589 -9.332,1.872 z"
           data-original="#428DFF"
           class=""
           data-old_color="#FFA300"
           id="path4459"
           inkscape:connector-curvature="0" /><path
           style="fill:#ff9b00"
           d="m 188.158,74.921 c 2.245,0.022 4.403,-0.872 5.975,-2.475 1.635,-1.575 2.558,-3.747 2.558,-6.017 0,-2.27 -0.924,-4.442 -2.558,-6.017 -2.455,-2.414 -6.105,-3.15 -9.304,-1.875 -1.038,0.413 -1.971,1.054 -2.729,1.875 -3.3,3.332 -3.3,8.701 0,12.033 0.782,0.794 1.708,1.432 2.729,1.879 1.064,0.404 2.192,0.606 3.329,0.597 z"
           data-original="#428DFF"
           class=""
           data-old_color="#FFA300"
           id="path4461"
           inkscape:connector-curvature="0" /><path
           style="fill:#ff9b00"
           d="m 296.788,440.829 c -0.265,-0.482 -0.612,-0.915 -1.025,-1.279 -3.421,-3.158 -8.695,-3.158 -12.117,0 -3.3,3.332 -3.3,8.701 0,12.033 1.617,1.597 3.786,2.513 6.059,2.558 1.115,-0.011 2.217,-0.244 3.242,-0.683 1.077,-0.387 2.044,-1.031 2.817,-1.875 1.603,-1.572 2.497,-3.73 2.475,-5.975 0.028,-0.573 -0.03,-1.148 -0.171,-1.704 -0.1,-0.552 -0.243,-1.095 -0.425,-1.625 -0.256,-0.5 -0.541,-0.985 -0.855,-1.45 z"
           data-original="#428DFF"
           class=""
           data-old_color="#FFA300"
           id="path4463"
           inkscape:connector-curvature="0" /><path
           style="fill:#ff9b00"
           d="m 133.717,90.792 c 0.315,0.449 0.657,0.877 1.025,1.283 0.833,0.769 1.782,1.402 2.813,1.875 1.032,0.412 2.135,0.615 3.246,0.596 0.573,0.027 1.147,-0.029 1.704,-0.167 0.523,-0.104 1.037,-0.248 1.538,-0.429 0.531,-0.251 1.044,-0.536 1.538,-0.854 0.446,-0.316 0.873,-0.656 1.28,-1.021 0.341,-0.429 0.683,-0.854 1.021,-1.283 0.324,-0.475 0.583,-0.99 0.771,-1.533 0.245,-0.485 0.418,-1.003 0.513,-1.538 0.098,-0.565 0.155,-1.136 0.171,-1.708 0.029,-1.119 -0.205,-2.229 -0.683,-3.242 -0.434,-1.033 -1.04,-1.986 -1.792,-2.817 -0.429,-0.341 -0.854,-0.679 -1.279,-1.021 -0.476,-0.324 -0.993,-0.583 -1.538,-0.771 -0.485,-0.245 -1.003,-0.418 -1.538,-0.513 -1.663,-0.347 -3.393,-0.168 -4.95,0.513 -2.141,0.78 -3.828,2.467 -4.608,4.608 -0.436,1.026 -0.667,2.127 -0.679,3.242 0.013,0.573 0.07,1.144 0.171,1.708 0.091,0.535 0.263,1.053 0.508,1.538 0.184,0.543 0.444,1.059 0.768,1.534 z"
           data-original="#428DFF"
           class=""
           data-old_color="#FFA300"
           id="path4465"
           inkscape:connector-curvature="0" /><path
           style="fill:#ff9b00"
           d="m 331.008,419.925 c -0.792,0.801 -1.404,1.761 -1.796,2.817 -0.437,1.026 -0.667,2.127 -0.679,3.242 -0.022,2.27 0.87,4.453 2.475,6.058 1.605,1.605 3.788,2.497 6.058,2.475 1.115,-0.014 2.216,-0.246 3.242,-0.683 1.034,-0.433 1.987,-1.039 2.817,-1.792 3.3,-3.365 3.3,-8.752 0,-12.117 -0.829,-0.755 -1.782,-1.361 -2.817,-1.792 -3.177,-1.341 -6.849,-0.633 -9.3,1.792 z"
           data-original="#428DFF"
           class=""
           data-old_color="#FFA300"
           id="path4467"
           inkscape:connector-curvature="0" /><path
           style="fill:#ff9b00"
           d="m 93.012,121.941 c 0.302,0.48 0.676,0.912 1.108,1.279 1.596,1.629 3.778,2.55 6.059,2.558 1.115,-0.011 2.217,-0.244 3.242,-0.683 1.04,-0.412 1.975,-1.053 2.733,-1.875 0.432,-0.367 0.806,-0.799 1.108,-1.279 0.254,-0.429 0.513,-0.942 0.767,-1.454 0.171,-0.508 0.341,-1.021 0.513,-1.621 0.1,-0.535 0.157,-1.077 0.171,-1.621 -0.02,-1.142 -0.252,-2.271 -0.683,-3.329 -0.412,-1.039 -1.053,-1.972 -1.875,-2.729 -2.023,-1.982 -4.893,-2.84 -7.672,-2.295 -2.779,0.545 -5.112,2.424 -6.236,5.024 -0.406,1.063 -0.609,2.192 -0.6,3.329 -0.028,0.546 0.03,1.093 0.171,1.621 0.092,0.552 0.236,1.095 0.429,1.621 0.253,0.513 0.507,1.026 0.765,1.454 z"
           data-original="#428DFF"
           class=""
           data-old_color="#FFA300"
           id="path4469"
           inkscape:connector-curvature="0" /><path
           style="fill:#ff9b00"
           d="m 374.442,386.9 c -2.05,0.917 -3.691,2.558 -4.608,4.608 -0.437,1.025 -0.67,2.127 -0.683,3.242 -0.009,2.285 0.917,4.474 2.562,6.059 0.78,0.797 1.707,1.435 2.729,1.879 1.031,0.41 2.132,0.612 3.242,0.596 2.273,0.04 4.463,-0.855 6.059,-2.475 1.606,-1.605 2.497,-3.789 2.475,-6.059 0.022,-2.244 -0.872,-4.4 -2.475,-5.971 -2.457,-2.41 -6.102,-3.146 -9.301,-1.879 z"
           data-original="#428DFF"
           class=""
           data-old_color="#FFA300"
           id="path4471"
           inkscape:connector-curvature="0" /><path
           style="fill:#ff9b00"
           d="m 72.192,150.013 c -2.061,-0.938 -4.427,-0.938 -6.487,0 -1.034,0.434 -1.987,1.041 -2.817,1.796 -1.558,1.636 -2.441,3.8 -2.475,6.059 0.016,0.571 0.073,1.141 0.171,1.704 0.095,0.535 0.268,1.053 0.513,1.538 0.187,0.544 0.447,1.062 0.771,1.538 0.341,0.425 0.679,0.85 1.021,1.279 0.831,0.752 1.783,1.358 2.817,1.792 2.067,0.911 4.421,0.911 6.487,0 1.053,-0.394 2.013,-1.005 2.816,-1.792 1.57,-1.628 2.455,-3.797 2.471,-6.059 -0.032,-2.258 -0.914,-4.422 -2.471,-6.059 -0.803,-0.791 -1.763,-1.403 -2.817,-1.796 z"
           data-original="#428DFF"
           class=""
           data-old_color="#FFA300"
           id="path4473"
           inkscape:connector-curvature="0" /><path
           style="fill:#ff9b00"
           d="m 402.859,348.075 c -3.313,3.34 -3.298,8.73 0.033,12.052 3.331,3.322 8.721,3.322 12.052,0 3.331,-3.322 3.345,-8.712 0.032,-12.052 -3.427,-3.145 -8.691,-3.145 -12.117,0 z"
           data-original="#428DFF"
           class=""
           data-old_color="#FFA300"
           id="path4475"
           inkscape:connector-curvature="0" /><path
           style="fill:#ff9b00"
           d="m 55.379,199.167 c -2.016,-1.999 -4.895,-2.863 -7.679,-2.304 -0.552,0.09 -1.095,0.232 -1.621,0.425 -0.512,0.234 -0.997,0.52 -1.45,0.854 -0.497,0.245 -0.934,0.595 -1.283,1.025 -0.821,0.758 -1.462,1.691 -1.875,2.729 -0.403,1.063 -0.605,2.192 -0.596,3.329 -0.023,2.245 0.869,4.402 2.471,5.975 1.564,1.625 3.719,2.548 5.975,2.558 2.28,-0.008 4.463,-0.93 6.059,-2.558 0.435,-0.367 0.809,-0.8 1.108,-1.283 0.258,-0.425 0.513,-0.937 0.771,-1.45 0.193,-0.525 0.335,-1.068 0.425,-1.621 0.141,-0.528 0.199,-1.075 0.171,-1.621 0.005,-2.267 -0.884,-4.444 -2.476,-6.058 z"
           data-original="#428DFF"
           class=""
           data-old_color="#FFA300"
           id="path4477"
           inkscape:connector-curvature="0" /><path
           style="fill:#ff9b00"
           d="m 422.483,312.829 c 1.605,1.606 3.789,2.497 6.059,2.475 2.245,0.022 4.403,-0.872 5.975,-2.475 1.629,-1.596 2.55,-3.778 2.558,-6.059 -0.009,-2.255 -0.932,-4.409 -2.558,-5.971 -3.355,-3.246 -8.679,-3.246 -12.033,0 -1.603,1.571 -2.497,3.727 -2.475,5.971 -0.023,2.271 0.869,4.454 2.474,6.059 z"
           data-original="#428DFF"
           class=""
           data-old_color="#FFA300"
           id="path4479"
           inkscape:connector-curvature="0" /><path
           style="fill:#ff9b00"
           d="m 36.608,249.941 c -0.754,0.828 -1.362,1.78 -1.796,2.813 -0.906,2.068 -0.906,4.42 0,6.487 0.414,1.045 1.024,2.001 1.796,2.817 0.83,0.752 1.781,1.358 2.813,1.792 2.067,0.911 4.421,0.911 6.487,0 1.033,-0.434 1.986,-1.04 2.817,-1.792 0.77,-0.817 1.378,-1.773 1.792,-2.817 0.911,-2.067 0.911,-4.421 0,-6.487 -0.434,-1.032 -1.04,-1.983 -1.792,-2.813 -0.83,-0.754 -1.782,-1.362 -2.817,-1.796 -2.079,-0.85 -4.409,-0.85 -6.487,0 -1.033,0.435 -1.984,1.042 -2.813,1.796 z"
           data-original="#428DFF"
           class=""
           data-old_color="#FFA300"
           id="path4481"
           inkscape:connector-curvature="0" /><path
           style="fill:#ff9b00"
           d="m 426.667,256 c 0.024,4.07 2.918,7.556 6.913,8.329 3.996,0.773 7.981,-1.384 9.52,-5.152 1.539,-3.768 0.203,-8.097 -3.191,-10.343 -3.394,-2.246 -7.901,-1.782 -10.767,1.107 -1.559,1.636 -2.443,3.8 -2.475,6.059 z"
           data-original="#428DFF"
           class=""
           data-old_color="#FFA300"
           id="path4483"
           inkscape:connector-curvature="0" /><path
           style="fill:#ff9b00"
           d="m 57.259,303.529 c -0.258,-0.512 -0.513,-1.025 -0.771,-1.45 -0.322,-0.492 -0.693,-0.95 -1.108,-1.367 -2.037,-1.964 -4.898,-2.822 -7.679,-2.304 -0.555,0.121 -1.097,0.292 -1.621,0.513 -0.509,0.204 -0.995,0.461 -1.45,0.767 -0.46,0.299 -0.89,0.642 -1.283,1.025 -1.591,1.615 -2.479,3.792 -2.471,6.059 -0.024,2.255 0.855,4.426 2.442,6.029 1.587,1.603 3.748,2.505 6.004,2.504 2.27,0.022 4.453,-0.87 6.058,-2.475 1.605,-1.605 2.497,-3.788 2.475,-6.058 0.028,-0.546 -0.03,-1.093 -0.171,-1.621 -0.09,-0.553 -0.233,-1.096 -0.425,-1.622 z"
           data-original="#428DFF"
           class=""
           data-old_color="#FFA300"
           id="path4485"
           inkscape:connector-curvature="0" /><path
           style="fill:#ff9b00"
           d="m 422.483,199.167 c -1.606,1.605 -2.497,3.789 -2.475,6.059 -0.022,2.245 0.872,4.403 2.475,5.975 1.596,1.629 3.778,2.55 6.059,2.558 4.666,-0.111 8.423,-3.867 8.533,-8.533 -0.008,-2.28 -0.93,-4.463 -2.558,-6.059 -3.389,-3.159 -8.644,-3.159 -12.034,0 z"
           data-original="#428DFF"
           class=""
           data-old_color="#FFA300"
           id="path4487"
           inkscape:connector-curvature="0" /><path
           style="fill:#ff9b00"
           d="m 62.888,360.192 c 0.831,0.752 1.783,1.358 2.817,1.792 2.067,0.911 4.421,0.911 6.487,0 1.054,-0.394 2.013,-1.005 2.816,-1.792 3.294,-3.367 3.294,-8.75 0,-12.117 -0.802,-0.79 -1.761,-1.402 -2.816,-1.796 -2.079,-0.85 -4.409,-0.85 -6.487,0 -1.034,0.434 -1.987,1.041 -2.817,1.796 -3.3,3.365 -3.3,8.752 0,12.117 z"
           data-original="#428DFF"
           class=""
           data-old_color="#FFA300"
           id="path4489"
           inkscape:connector-curvature="0" /><path
           style="fill:#ff9b00"
           d="m 414.975,151.808 c -2.896,-2.953 -7.476,-3.444 -10.932,-1.171 -3.456,2.273 -4.82,6.672 -3.256,10.501 1.564,3.829 5.618,6.015 9.677,5.219 4.058,-0.797 6.985,-4.354 6.986,-8.49 -0.029,-2.26 -0.913,-4.425 -2.475,-6.059 z"
           data-original="#428DFF"
           class=""
           data-old_color="#FFA300"
           id="path4491"
           inkscape:connector-curvature="0" /><path
           style="fill:#ff9b00"
           d="m 103.421,386.9 c -1.555,-0.683 -3.284,-0.862 -4.946,-0.513 -0.513,0.171 -1.112,0.341 -1.625,0.513 -0.508,0.254 -0.937,0.513 -1.45,0.767 -0.465,0.324 -0.894,0.697 -1.279,1.112 -0.795,0.78 -1.432,1.707 -1.875,2.729 -0.413,1.03 -0.617,2.132 -0.6,3.242 -0.01,1.137 0.194,2.267 0.6,3.329 0.443,1.022 1.08,1.949 1.875,2.729 0.385,0.415 0.813,0.787 1.279,1.108 0.513,0.258 0.942,0.512 1.45,0.771 0.53,0.182 1.073,0.324 1.625,0.425 0.556,0.141 1.131,0.199 1.704,0.171 1.109,0.017 2.211,-0.186 3.242,-0.596 1.023,-0.445 1.951,-1.083 2.733,-1.879 0.823,-0.756 1.464,-1.689 1.875,-2.729 0.44,-1.055 0.672,-2.186 0.683,-3.329 -0.012,-1.115 -0.244,-2.217 -0.683,-3.242 -0.914,-2.052 -2.555,-3.694 -4.608,-4.608 z"
           data-original="#428DFF"
           class=""
           data-old_color="#FFA300"
           id="path4493"
           inkscape:connector-curvature="0" /><path
           style="fill:#ff9b00"
           d="m 374.442,125.096 c 3.187,1.379 6.896,0.631 9.3,-1.875 1.603,-1.572 2.497,-3.73 2.475,-5.975 0.023,-2.27 -0.869,-4.454 -2.475,-6.059 -1.578,-1.628 -3.748,-2.546 -6.015,-2.546 -2.267,0 -4.437,0.919 -6.015,2.546 -1.645,1.585 -2.571,3.774 -2.562,6.059 0.013,1.115 0.245,2.216 0.683,3.242 0.914,2.052 2.556,3.694 4.609,4.608 z"
           data-original="#428DFF"
           class=""
           data-old_color="#FFA300"
           id="path4495"
           inkscape:connector-curvature="0" /><path
           style="fill:#ff9b00"
           d="m 145.579,418.9 c -0.476,-0.323 -0.993,-0.581 -1.538,-0.767 -0.483,-0.249 -1.002,-0.421 -1.538,-0.513 -1.663,-0.349 -3.394,-0.17 -4.95,0.513 -1.034,0.431 -1.985,1.037 -2.813,1.792 -1.559,1.635 -2.443,3.799 -2.475,6.059 0.014,0.544 0.071,1.086 0.171,1.621 0.079,0.565 0.25,1.112 0.508,1.621 0.17,0.525 0.431,1.015 0.771,1.45 0.293,0.49 0.636,0.948 1.025,1.367 0.814,0.772 1.769,1.38 2.813,1.792 1.027,0.438 2.13,0.67 3.246,0.683 0.571,-0.016 1.141,-0.073 1.704,-0.171 0.535,-0.095 1.053,-0.268 1.538,-0.513 0.544,-0.186 1.061,-0.444 1.538,-0.767 0.425,-0.341 0.85,-0.683 1.279,-1.025 0.341,-0.429 0.683,-0.854 1.021,-1.367 0.34,-0.435 0.601,-0.925 0.771,-1.45 0.257,-0.509 0.431,-1.056 0.512,-1.621 0.098,-0.535 0.155,-1.077 0.171,-1.621 0.03,-1.119 -0.205,-2.23 -0.683,-3.242 -0.392,-1.055 -1.003,-2.015 -1.792,-2.817 -0.405,-0.365 -0.832,-0.708 -1.279,-1.024 z"
           data-original="#428DFF"
           class=""
           data-old_color="#FFA300"
           id="path4497"
           inkscape:connector-curvature="0" /><path
           style="fill:#ff9b00"
           d="m 337.067,94.546 c 1.119,0.031 2.229,-0.202 3.242,-0.679 1.044,-0.414 1.999,-1.022 2.817,-1.792 3.3,-3.366 3.3,-8.754 0,-12.121 -0.831,-0.752 -1.783,-1.358 -2.817,-1.792 -3.186,-1.252 -6.808,-0.554 -9.3,1.792 -0.754,0.83 -1.362,1.782 -1.796,2.817 -0.436,1.026 -0.667,2.127 -0.679,3.242 -0.082,3.475 2.038,6.623 5.288,7.855 1.013,0.476 2.124,0.709 3.245,0.678 z"
           data-original="#428DFF"
           class=""
           data-old_color="#FFA300"
           id="path4499"
           inkscape:connector-curvature="0" /><path
           style="fill:#ff9b00"
           d="m 192.85,438.442 c -0.425,-0.258 -0.937,-0.512 -1.45,-0.767 -0.526,-0.193 -1.068,-0.336 -1.621,-0.429 -2.784,-0.559 -5.663,0.305 -7.679,2.304 -0.768,0.804 -1.402,1.725 -1.879,2.729 -0.403,1.063 -0.605,2.192 -0.596,3.329 -0.017,1.109 0.186,2.211 0.596,3.242 0.477,1.005 1.111,1.928 1.879,2.733 1.596,1.629 3.778,2.55 6.059,2.558 0.544,-0.014 1.086,-0.071 1.621,-0.171 0.6,-0.171 1.108,-0.341 1.621,-0.513 0.513,-0.254 1.025,-0.513 1.45,-0.767 0.482,-0.301 0.915,-0.675 1.283,-1.108 0.821,-0.76 1.462,-1.694 1.875,-2.733 0.44,-1.025 0.672,-2.127 0.683,-3.242 -0.02,-1.142 -0.252,-2.271 -0.683,-3.329 -0.413,-1.038 -1.054,-1.971 -1.875,-2.729 -0.368,-0.432 -0.801,-0.806 -1.284,-1.107 z"
           data-original="#428DFF"
           class=""
           data-old_color="#FFA300"
           id="path4501"
           inkscape:connector-curvature="0" /><path
           style="fill:#ff9b00"
           d="m 289.704,74.921 c 1.109,0.017 2.211,-0.186 3.242,-0.596 1.06,-0.423 2.019,-1.063 2.817,-1.879 1.606,-1.605 2.497,-3.789 2.475,-6.059 0.021,-2.245 -0.872,-4.402 -2.475,-5.975 -3.388,-3.242 -8.728,-3.242 -12.117,0 -3.3,3.332 -3.3,8.701 0,12.033 0.828,0.778 1.78,1.413 2.817,1.879 1.03,0.411 2.132,0.613 3.241,0.597 z"
           data-original="#428DFF"
           class=""
           data-old_color="#FFA300"
           id="path4503"
           inkscape:connector-curvature="0" /><path
           style="fill:#ff9b00"
           d="m 500.976,184.246 c -7.996,-25.303 -20.159,-49.094 -35.99,-70.391 -0.121,-0.137 -0.186,-0.315 -0.315,-0.443 C 419.635,52.801 348.578,17.071 273.067,17.066 c -6.411,0 -12.002,0.228 -17.137,0.671 -5.621,-0.397 -11.276,-0.671 -16.996,-0.671 -43.615,0.141 -86.368,12.16 -123.666,34.767 -9.29,5.586 -18.198,11.785 -26.665,18.554 -4.26,3.343 -8.098,7.197 -12.161,10.778 l -6.01,5.473 c -1.905,1.923 -3.672,3.983 -5.514,5.97 -14.901,15.783 -27.569,33.533 -37.65,52.755 l -3.845,7.972 c -1.048,2.026 -1.213,4.394 -0.456,6.545 0.757,2.151 2.368,3.894 4.454,4.818 4.266,1.854 9.24,0.104 11.405,-4.013 l 3.561,-7.404 c 9.363,-17.851 21.13,-34.334 34.971,-48.988 1.709,-1.846 3.343,-3.768 5.111,-5.556 l 5.594,-5.073 c 3.781,-3.318 7.328,-6.921 11.289,-10.02 7.867,-6.282 16.142,-12.035 24.771,-17.221 86.247,-52.105 196.785,-39.491 269.075,30.705 72.29,70.196 88.148,180.316 38.6,268.057 C 382.25,452.926 279.762,496.215 182.318,470.561 84.873,444.908 16.987,356.764 17.067,256 c 0.191,-10.957 1.089,-21.891 2.689,-32.732 0.547,-4.611 -2.586,-8.853 -7.154,-9.686 -2.251,-0.395 -4.566,0.149 -6.404,1.507 -1.839,1.358 -3.04,3.41 -3.324,5.678 C 1.151,232.436 0.191,244.206 0,256 c 0.148,131.898 107.035,238.785 238.933,238.933 5.72,0 11.375,-0.274 16.996,-0.671 5.136,0.443 10.726,0.671 17.137,0.671 75.511,-0.005 146.568,-35.735 191.604,-96.346 0.129,-0.128 0.194,-0.306 0.315,-0.443 15.831,-21.297 27.995,-45.088 35.99,-70.391 0.084,-0.184 0.123,-0.38 0.194,-0.572 14.441,-46.356 14.441,-96.008 0,-142.365 -0.071,-0.19 -0.11,-0.386 -0.193,-0.57 z m -14.278,131.487 h -16.392 c 4.299,-16.75 6.762,-33.917 7.344,-51.2 h 17.067 c -0.654,17.323 -3.346,34.508 -8.019,51.2 z M 454.116,384 h -13.583 c 10.214,-16.023 18.472,-33.213 24.598,-51.2 h 16.083 c -6.752,18.18 -15.862,35.393 -27.098,51.2 z M 481.214,179.2 H 465.131 C 459.005,161.213 450.747,144.023 440.533,128 h 13.583 c 11.236,15.807 20.346,33.02 27.098,51.2 z m -3.564,68.267 c -0.582,-17.283 -3.045,-34.451 -7.344,-51.2 h 16.393 c 4.673,16.693 7.365,33.878 8.019,51.2 z M 370.801,56.882 c 26.678,13.175 50.452,31.553 69.922,54.052 H 428.609 C 412.452,89.852 392.919,71.588 370.801,56.882 Z m 0,398.236 c 22.118,-14.706 41.651,-32.97 57.808,-54.052 h 12.114 c -19.471,22.5 -43.244,40.877 -69.922,54.052 z"
           data-original="#428DFF"
           class=""
           data-old_color="#FFA300"
           id="path4505"
           inkscape:connector-curvature="0" /><path
           style="fill:#ff9b00"
           d="m 213.333,315.733 h 64 c 16.495,0 29.867,-13.372 29.867,-29.867 0,-16.495 -13.372,-29.867 -29.867,-29.867 h -64 c -4.713,0 -8.533,3.82 -8.533,8.533 V 307.2 c 0,4.713 3.821,8.533 8.533,8.533 z m 8.534,-42.666 h 55.467 c 7.069,0 12.8,5.731 12.8,12.8 0,7.069 -5.731,12.8 -12.8,12.8 h -55.467 z"
           data-original="#428DFF"
           class=""
           data-old_color="#FFA300"
           id="path4507"
           inkscape:connector-curvature="0" /><path
           style="fill:#ff9b00"
           d="m 153.6,349.867 h 17.067 v 17.067 c 0,4.713 3.821,8.533 8.533,8.533 h 34.133 c 4.713,0 8.533,-3.821 8.533,-8.533 v -17.067 h 17.067 v 17.067 c 0,4.713 3.821,8.533 8.533,8.533 H 281.6 c 4.713,0 8.533,-3.821 8.533,-8.533 v -18.358 c 22.524,-4.57 40.859,-20.882 48.019,-42.72 7.16,-21.839 2.043,-45.84 -13.403,-62.859 9.174,-15.788 10.587,-34.915 3.831,-51.879 -6.756,-16.964 -20.931,-29.884 -38.447,-35.042 v -19.541 c 0,-4.713 -3.821,-8.533 -8.533,-8.533 h -34.133 c -4.713,0 -8.533,3.821 -8.533,8.533 V 153.6 h -17.067 v -17.067 c 0,-4.713 -3.821,-8.533 -8.533,-8.533 H 179.2 c -4.713,0 -8.533,3.821 -8.533,8.533 V 153.6 H 153.6 c -4.713,0 -8.533,3.821 -8.533,8.533 v 34.133 c 0,4.713 3.82,8.533 8.533,8.533 h 17.067 v 17.067 H 153.6 c -4.713,0 -8.533,3.821 -8.533,8.533 v 34.133 c 0,4.713 3.82,8.533 8.533,8.533 h 17.067 v 25.6 H 153.6 c -4.713,0 -8.533,3.82 -8.533,8.533 v 34.133 c 0,4.715 3.82,8.536 8.533,8.536 z m 8.533,-34.134 H 179.2 c 4.713,0 8.533,-3.821 8.533,-8.533 v -42.667 c 0,-4.713 -3.82,-8.533 -8.533,-8.533 H 162.133 V 238.933 H 179.2 c 4.713,0 8.533,-3.821 8.533,-8.533 v -34.133 c 0,-4.713 -3.82,-8.533 -8.533,-8.533 H 162.133 V 170.667 H 179.2 c 4.713,0 8.533,-3.821 8.533,-8.533 V 145.067 H 204.8 v 17.067 c 0,4.713 3.82,8.533 8.533,8.533 h 34.133 c 4.713,0 8.533,-3.821 8.533,-8.533 v -17.067 h 17.067 v 17.779 c 0.001,4.166 3.009,7.723 7.117,8.417 14.717,2.416 27.085,12.383 32.573,26.251 5.489,13.868 3.292,29.599 -5.786,41.433 -2.729,3.572 -2.221,8.648 1.163,11.608 14.275,12.398 19.701,32.16 13.759,50.109 -5.942,17.949 -22.089,30.569 -40.942,31.999 -4.448,0.339 -7.884,4.048 -7.883,8.509 V 358.4 H 256 v -17.067 c 0,-4.713 -3.82,-8.533 -8.533,-8.533 h -34.133 c -4.713,0 -8.533,3.821 -8.533,8.533 V 358.4 h -17.067 v -17.067 c 0,-4.713 -3.82,-8.533 -8.533,-8.533 h -17.067 v -17.067 z"
           data-original="#428DFF"
           class=""
           data-old_color="#FFA300"
           id="path4509"
           inkscape:connector-curvature="0" /><path
           style="fill:#ff9b00"
           d="m 213.333,238.933 h 59.733 c 14.138,0 25.6,-11.462 25.6,-25.6 0,-14.138 -11.462,-25.6 -25.6,-25.6 h -59.733 c -4.713,0 -8.533,3.82 -8.533,8.533 V 230.4 c 0,2.263 0.899,4.434 2.499,6.034 1.6,1.6 3.771,2.499 6.034,2.499 z m 8.534,-34.133 h 51.2 c 4.713,0 8.533,3.821 8.533,8.533 0,4.713 -3.82,8.533 -8.533,8.533 h -51.2 z"
           data-original="#428DFF"
           class=""
           data-old_color="#FFA300"
           id="path4511"
           inkscape:connector-curvature="0" /></g></g></g></g></svg>