<?xml version="1.0" encoding="UTF-8" standalone="no"?>
<!-- Generator: Adobe Illustrator 19.0.0, SVG Export Plug-In . SVG Version: 6.00 Build 0)  -->

<svg
   xmlns:dc="http://purl.org/dc/elements/1.1/"
   xmlns:cc="http://creativecommons.org/ns#"
   xmlns:rdf="http://www.w3.org/1999/02/22-rdf-syntax-ns#"
   xmlns:svg="http://www.w3.org/2000/svg"
   xmlns="http://www.w3.org/2000/svg"
   xmlns:sodipodi="http://sodipodi.sourceforge.net/DTD/sodipodi-0.dtd"
   xmlns:inkscape="http://www.inkscape.org/namespaces/inkscape"
   version="1.1"
   id="Capa_1"
   x="0px"
   y="0px"
   viewBox="0 0 58 58"
   style="enable-background:new 0 0 58 58;"
   xml:space="preserve"
   sodipodi:docname="cooler-2.svg"
   inkscape:version="0.92.3 (2405546, 2018-03-11)"><metadata
   id="metadata374"><rdf:RDF><cc:Work
       rdf:about=""><dc:format>image/svg+xml</dc:format><dc:type
         rdf:resource="http://purl.org/dc/dcmitype/StillImage" /><dc:title /></cc:Work></rdf:RDF></metadata><defs
   id="defs372" /><sodipodi:namedview
   pagecolor="#ffffff"
   bordercolor="#666666"
   borderopacity="1"
   objecttolerance="10"
   gridtolerance="10"
   guidetolerance="10"
   inkscape:pageopacity="0"
   inkscape:pageshadow="2"
   inkscape:window-width="640"
   inkscape:window-height="480"
   id="namedview370"
   showgrid="false"
   inkscape:zoom="4.0689655"
   inkscape:cx="29"
   inkscape:cy="29"
   inkscape:window-x="0"
   inkscape:window-y="0"
   inkscape:window-maximized="1"
   inkscape:current-layer="Capa_1" />
<circle
   style="fill:#283238;"
   cx="29"
   cy="29"
   r="6"
   id="circle319" />
<path
   style="fill:#283238;"
   d="M55.151,0H2.849C1.276,0,0,1.276,0,2.849v52.301C0,56.724,1.276,58,2.849,58h52.301  C56.724,58,58,56.724,58,55.151V2.849C58,1.276,56.724,0,55.151,0z M6,3c1.657,0,3,1.343,3,3S7.657,9,6,9S3,7.657,3,6S4.343,3,6,3z   M6,55c-1.657,0-3-1.343-3-3s1.343-3,3-3s3,1.343,3,3S7.657,55,6,55z M52,55c-1.657,0-3-1.343-3-3s1.343-3,3-3s3,1.343,3,3  S53.657,55,52,55z M29,55C14.641,55,3,43.359,3,29S14.641,3,29,3s26,11.641,26,26S43.359,55,29,55z M52,9c-1.657,0-3-1.343-3-3  s1.343-3,3-3s3,1.343,3,3S53.657,9,52,9z"
   id="path321" />
<path
   style="fill:#546a79"
   d="m 34.995423,28.933812 c 0.01644,1.510678 -0.539882,2.969336 -1.542786,4.082305 5.552893,4.299261 12.382169,4.565055 21.158242,0.490649 0.793879,-4.485357 0.415389,-9.234912 -1.329138,-13.794651 -2.484522,2.716721 -6.52068,11.50511 -18.286318,9.221697 z"
   id="path323"
   inkscape:connector-curvature="0" />
<path
   style="fill:#546a79"
   d="M 23.003918,29.069589 C 22.98748,27.55891 23.543801,26.100253 24.546705,24.987283 18.993811,20.688022 12.164536,20.422228 3.3884625,24.496635 2.5945831,28.981992 2.9730733,33.731546 4.7176005,38.291285 7.2021233,35.574564 11.238281,26.786175 23.003918,29.069589 Z"
   id="path325"
   inkscape:connector-curvature="0" />
<path
   style="fill:#546a79"
   d="M 24.808406,33.289518 C 23.728272,32.233079 23.090742,30.808257 23.012321,29.312014 16.045139,30.198468 11.029047,34.840165 7.7043768,43.92706 10.315123,47.65978 13.941438,50.75097 18.398392,52.741435 18.234512,49.062891 14.874584,39.994071 24.808406,33.289518 Z"
   id="path327"
   inkscape:connector-curvature="0" />
<path
   style="fill:#546a79"
   d="m 33.191868,24.71352 c 1.080134,1.056439 1.717664,2.481261 1.796085,3.977504 C 41.955135,27.80457 46.971226,23.162873 50.295897,14.075977 47.685151,10.343258 44.058835,7.2520684 39.601881,5.2616029 39.76483,8.94051 43.12569,18.008967 33.191868,24.71352 Z"
   id="path329"
   inkscape:connector-curvature="0" />
<path
   style="fill:#546a79"
   d="m 29.067559,34.997453 c -1.510678,0.01644 -2.969335,-0.539883 -4.082305,-1.542787 -4.299261,5.552894 -4.565055,12.382169 -0.490649,21.158243 4.485358,0.793879 9.234912,0.415389 13.794651,-1.329138 -2.715789,-2.484884 -11.50511,-6.520681 -9.221697,-18.286318 z"
   id="path331"
   inkscape:connector-curvature="0" />
<path
   style="fill:#546a79"
   d="m 28.931782,23.005948 c 1.510679,-0.01644 2.969336,0.539882 4.082306,1.542786 4.299261,-5.552893 4.565055,-12.382169 0.490649,-21.1582421 -4.485358,-0.7938791 -9.234912,-0.4153891 -13.794651,1.329138 2.716721,2.4845224 11.50511,6.5206811 9.221696,18.2863181 z"
   id="path333"
   inkscape:connector-curvature="0" />
<path
   style="fill:#546a79"
   d="m 33.287851,33.193897 c -1.056439,1.080134 -2.481261,1.717665 -3.977504,1.796085 0.886454,6.967183 5.528151,11.983274 14.615047,15.307945 3.732719,-2.610746 6.823909,-6.237062 8.814374,-10.694016 -3.678907,0.162948 -12.747364,3.523808 -19.451917,-6.410014 z"
   id="path335"
   inkscape:connector-curvature="0" />
<path
   style="fill:#546a79"
   d="m 24.712422,24.809141 c 1.056439,-1.080134 2.481262,-1.717665 3.977504,-1.796084 C 27.803472,16.045874 23.161776,11.029782 14.07488,7.7051113 10.342161,10.315858 7.2509713,13.942173 5.2605058,18.399127 8.9384806,18.236541 18.006938,14.875681 24.712422,24.809141 Z"
   id="path337"
   inkscape:connector-curvature="0" />
<g
   id="g339">
</g>
<g
   id="g341">
</g>
<g
   id="g343">
</g>
<g
   id="g345">
</g>
<g
   id="g347">
</g>
<g
   id="g349">
</g>
<g
   id="g351">
</g>
<g
   id="g353">
</g>
<g
   id="g355">
</g>
<g
   id="g357">
</g>
<g
   id="g359">
</g>
<g
   id="g361">
</g>
<g
   id="g363">
</g>
<g
   id="g365">
</g>
<g
   id="g367">
</g>
</svg>