<?xml version="1.0" encoding="UTF-8" standalone="no"?>
<!-- Generator: Adobe Illustrator 19.0.0, SVG Export Plug-In . SVG Version: 6.00 Build 0)  -->

<svg
   xmlns:dc="http://purl.org/dc/elements/1.1/"
   xmlns:cc="http://creativecommons.org/ns#"
   xmlns:rdf="http://www.w3.org/1999/02/22-rdf-syntax-ns#"
   xmlns:svg="http://www.w3.org/2000/svg"
   xmlns="http://www.w3.org/2000/svg"
   xmlns:sodipodi="http://sodipodi.sourceforge.net/DTD/sodipodi-0.dtd"
   xmlns:inkscape="http://www.inkscape.org/namespaces/inkscape"
   version="1.1"
   id="Capa_1"
   x="0px"
   y="0px"
   viewBox="0 0 58 58"
   style="enable-background:new 0 0 58 58;"
   xml:space="preserve"
   sodipodi:docname="cooler-2.svg"
   inkscape:version="0.92.3 (2405546, 2018-03-11)"><metadata
   id="metadata374"><rdf:RDF><cc:Work
       rdf:about=""><dc:format>image/svg+xml</dc:format><dc:type
         rdf:resource="http://purl.org/dc/dcmitype/StillImage" /><dc:title></dc:title></cc:Work></rdf:RDF></metadata><defs
   id="defs372" /><sodipodi:namedview
   pagecolor="#ffffff"
   bordercolor="#666666"
   borderopacity="1"
   objecttolerance="10"
   gridtolerance="10"
   guidetolerance="10"
   inkscape:pageopacity="0"
   inkscape:pageshadow="2"
   inkscape:window-width="640"
   inkscape:window-height="480"
   id="namedview370"
   showgrid="false"
   inkscape:zoom="4.0689655"
   inkscape:cx="29"
   inkscape:cy="29"
   inkscape:window-x="0"
   inkscape:window-y="0"
   inkscape:window-maximized="0"
   inkscape:current-layer="Capa_1" />
<circle
   style="fill:#283238;"
   cx="29"
   cy="29"
   r="6"
   id="circle319" />
<path
   style="fill:#283238;"
   d="M55.151,0H2.849C1.276,0,0,1.276,0,2.849v52.301C0,56.724,1.276,58,2.849,58h52.301  C56.724,58,58,56.724,58,55.151V2.849C58,1.276,56.724,0,55.151,0z M6,3c1.657,0,3,1.343,3,3S7.657,9,6,9S3,7.657,3,6S4.343,3,6,3z   M6,55c-1.657,0-3-1.343-3-3s1.343-3,3-3s3,1.343,3,3S7.657,55,6,55z M52,55c-1.657,0-3-1.343-3-3s1.343-3,3-3s3,1.343,3,3  S53.657,55,52,55z M29,55C14.641,55,3,43.359,3,29S14.641,3,29,3s26,11.641,26,26S43.359,55,29,55z M52,9c-1.657,0-3-1.343-3-3  s1.343-3,3-3s3,1.343,3,3S53.657,9,52,9z"
   id="path321" />
<path
   style="fill:#546a79"
   d="m 32.566529,24.181883 c 1.214065,0.899147 2.040794,2.223418 2.322303,3.694904 6.780088,-1.82994 11.115928,-7.112945 13.16787,-16.56862 C 44.960891,7.9668154 40.946537,5.4004011 36.258576,4.0374571 36.923709,7.6583715 41.491492,16.182556 32.566529,24.181883 Z"
   id="path323"
   inkscape:connector-curvature="0" />
<path
   style="fill:#546a79"
   d="M 25.433471,33.822117 C 24.219406,32.92297 23.392677,31.598699 23.111168,30.127213 16.33108,31.957153 11.99524,37.240158 9.9432982,46.695833 13.039109,50.037185 17.053463,52.603599 21.741424,53.966543 21.076291,50.345628 16.508508,41.821444 25.433471,33.822117 Z"
   id="path325"
   inkscape:connector-curvature="0" />
<path
   style="fill:#546a79"
   d="m 29.886783,34.932067 c -1.494329,0.223009 -3.015017,-0.12923 -4.255004,-0.970255 -3.500679,6.088734 -2.82991,12.889954 2.405452,21.027281 4.551838,0.173084 9.205593,-0.850726 13.483573,-3.201317 -3.031073,-2.090728 -12.288641,-4.88895 -11.634021,-16.855709 z"
   id="path327"
   inkscape:connector-curvature="0" />
<path
   style="fill:#546a79"
   d="m 28.113491,23.070971 c 1.494329,-0.223009 3.015017,0.12923 4.255004,0.970255 3.500679,-6.088734 2.82991,-12.889954 -2.405452,-21.0272812 -4.551838,-0.1730834 -9.205593,0.8507267 -13.483573,3.2013174 3.030799,2.09169 12.288641,4.8889498 11.634021,16.8557088 z"
   id="path329"
   inkscape:connector-curvature="0" />
<path
   style="fill:#546a79"
   d="m 33.820117,32.568529 c -0.899147,1.214065 -2.223418,2.040794 -3.694904,2.322303 1.82994,6.780088 7.112945,11.115928 16.56862,13.16787 3.341352,-3.095811 5.907766,-7.110165 7.27071,-11.798126 -3.62064,0.664172 -12.145099,5.232916 -20.144426,-3.692047 z"
   id="path331"
   inkscape:connector-curvature="0" />
<path
   style="fill:#546a79"
   d="M 24.179883,25.435471 C 25.07903,24.221406 26.403301,23.394677 27.874787,23.113168 26.044847,16.33308 20.761842,11.99724 11.306167,9.9452982 7.9648154,13.041109 5.3984011,17.055463 4.0354571,21.743424 7.6563715,21.078291 16.180556,16.510508 24.179883,25.435471 Z"
   id="path333"
   inkscape:connector-curvature="0" />
<path
   style="fill:#546a79"
   d="m 34.931029,28.115491 c 0.223009,1.494329 -0.12923,3.015017 -0.970255,4.255004 6.088734,3.500679 12.889954,2.82991 21.027281,-2.405452 0.173084,-4.551838 -0.850726,-9.205593 -3.201317,-13.483573 -2.09169,3.030799 -4.88895,12.288641 -16.855709,11.634021 z"
   id="path335"
   inkscape:connector-curvature="0" />
<path
   style="fill:#546a79"
   d="M 23.069245,29.887548 C 22.846236,28.393219 23.198475,26.87253 24.0395,25.632544 17.950766,22.131865 11.149546,22.802633 3.0122189,28.037995 2.8391355,32.589833 3.8629455,37.243588 6.2135362,41.521568 8.3049522,38.491731 11.102212,29.233889 23.069245,29.887548 Z"
   id="path337"
   inkscape:connector-curvature="0" />
<g
   id="g339">
</g>
<g
   id="g341">
</g>
<g
   id="g343">
</g>
<g
   id="g345">
</g>
<g
   id="g347">
</g>
<g
   id="g349">
</g>
<g
   id="g351">
</g>
<g
   id="g353">
</g>
<g
   id="g355">
</g>
<g
   id="g357">
</g>
<g
   id="g359">
</g>
<g
   id="g361">
</g>
<g
   id="g363">
</g>
<g
   id="g365">
</g>
<g
   id="g367">
</g>
</svg>