<?xml version="1.0" encoding="iso-8859-1"?>
<!-- Generator: Adobe Illustrator 19.0.0, SVG Export Plug-In . SVG Version: 6.00 Build 0)  -->
<svg version="1.1" id="Capa_1" xmlns="http://www.w3.org/2000/svg"  x="0px" y="0px"
	 viewBox="0 0 512 512" style="enable-background:new 0 0 512 512;" xml:space="preserve">
<path style="fill:#E3E7F2;" d="M495.6,196.398c-1.5-5.8-3.3-11.5-5.3-17.1c-6.4-18.1-15-35.3-25.7-51.2c-3.9-5.9-8.1-11.6-12.6-17.1
	c-43.7-54-109.5-85.4-178.9-85.3c-5.7,0-11.4,0.2-17.1,0.7l0,0c-5.6-0.4-11.3-0.7-17.1-0.7c-2.2,0-4.4,0.1-6.6,0.2
	c-2.1-0.1-4.1-0.2-6.2-0.2c-120.1,0-217.6,103.2-217.6,230.4s97.5,230.4,217.6,230.4c2.1,0,4.1-0.1,6.2-0.2c2.2,0.1,4.4,0.2,6.6,0.2
	c5.7,0,11.4-0.3,17.1-0.7l0,0c5.6,0.5,11.3,0.7,17.1,0.7c69.5,0,135.2-31.3,178.9-85.3c4.4-5.5,8.7-11.2,12.6-17.1
	c10.7-15.9,19.3-33.1,25.7-51.2c2-5.5,3.8-11.3,5.3-17.1c4.5-16.7,7.1-33.9,7.6-51.2c0.2-2.8,0.3-5.6,0.3-8.5s-0.1-5.7-0.3-8.5
	C502.7,230.298,500.2,213.098,495.6,196.398z"/>
<g>
	<path style="fill:#FFFFFF;" d="M246.7,486.298c-2.6,0.1-5.2,0.2-7.8,0.2c-2.2,0-4.4-0.1-6.6-0.2c-2,0.1-4.2,0.2-6.2,0.2
		c-120.1,0-217.6-103.2-217.6-230.4s97.5-230.4,217.6-230.4c2,0,4.2,0.1,6.2,0.2c2.2-0.1,4.4-0.2,6.6-0.2l7.7,0.2
		c-117.7,2.8-212.5,104.8-212.5,230.2S128.9,483.598,246.7,486.298z"/>
	<path style="fill:#FFFFFF;" d="M281.6,26.398c-1.5-0.1-2.9-0.2-10.8-0.6c0.7-0.1,1.5-0.1,2.2-0.1c4.3,0,8.5,0.1,12.8,0.4
		C284.4,26.098,283,26.198,281.6,26.398z"/>
	<path style="fill:#FFFFFF;" d="M281.6,485.798c1.4,0.2,2.8,0.3,4.3,0.3c-4.3,0.3-8.5,0.4-12.8,0.4c-0.8,0-1.6,0-2.4-0.1
		C274.3,486.298,278,486.098,281.6,485.798z"/>
	<path style="fill:#FFFFFF;" d="M256,485.798c1.5,0.2,2.9,0.3,10.8,0.6c-0.7,0.1-1.5,0.1-2.2,0.1c-2.2,0-4.4-0.1-6.6-0.2
		c-2,0.1-4.2,0.2-6.2,0.2c-1.4,0-2.8,0-4.3-0.2C250.4,486.198,253.2,485.998,256,485.798z"/>
	<path style="fill:#FFFFFF;" d="M256,26.398l-8.5-0.5c1.4-0.1,2.8-0.2,4.3-0.2c2,0,4.2,0.1,6.2,0.2c2.2-0.1,4.4-0.2,6.6-0.2
		c1.5,0,2.9,0,4.3,0.1C264.5,25.798,260.3,25.998,256,26.398z"/>
	<path style="fill:#FFFFFF;" d="M0,256.098c0.3-38.5,9.6-76.4,27.3-110.6c10.1-19.2,22.8-37,37.7-52.8c1.8-2,3.6-4,5.5-6l6-5.5
		c4.1-3.6,7.9-7.4,12.2-10.8c8.5-6.8,17.4-13,26.7-18.6c37.3-22.6,80-34.6,123.7-34.8v17.1c-40.5,0.1-80.2,11.3-114.8,32.3
		c-8.6,5.2-16.9,10.9-24.8,17.2c-4,3.1-7.5,6.7-11.3,10l-5.6,5.1c-1.8,1.8-3.4,3.7-5.1,5.6c-13.8,14.7-25.6,31.1-35,49
		c-16.5,31.9-25.2,67-25.4,102.8H0z"/>
</g>
<g>
	<path style="fill:#428DFF;" d="M238.5,494.998c-0.8,0-1.7,0-2.5-0.1c-63.2-0.7-122.5-25.9-167-70.8c-44.4-45-69-104.7-69-168
		c0-4.7,3.8-8.5,8.5-8.5s8.5,3.8,8.5,8.5c0,121,98.5,220.6,219.5,221.8c0.2,0,0.4,0,0.6,0c0.5,0,1.1,0.1,1.6,0.1c0.1,0,0.1,0,0.2,0
		c16.4,0,32.8-1.8,48.8-5.3c2.2-0.5,4.3-1,6.6-1.6c100.1-25.9,168.5-116.1,166.4-219.4c-2-103.4-74.1-190.8-175.1-212.6
		c-14.5-3.1-29.4-4.7-44.3-4.8c-0.2,0-0.4,0-0.7,0c-0.5,0-1.1-0.1-1.6-0.1c-4.7,0.1-8.6-3.7-8.6-8.4c-0.1-4.7,3.7-8.6,8.4-8.6
		c1,0,2,0,3,0.1c15.9,0.2,31.8,1.9,47.4,5.2c52.4,11.3,100,40.3,134.1,81.6s53.4,93.6,54.5,147.2s-16.1,106.6-48.5,149.2
		s-78.8,73.6-130.6,87c-2.3,0.6-4.7,1.2-7.2,1.8c-17.2,3.8-34.8,5.8-52.5,5.7C238.8,494.998,238.7,494.998,238.5,494.998z"/>
	<path style="fill:#428DFF;" d="M12.6,213.698c-2.3-0.4-4.6,0.1-6.4,1.5s-3,3.4-3.3,5.7c-1.7,11.6-2.7,23.4-2.9,35.2h17.1
		c0.2-11,1.1-21.9,2.7-32.7C20.3,218.798,17.2,214.498,12.6,213.698z"/>
	<path style="fill:#428DFF;" d="M38.8,160.798l3.6-7.4c9.4-17.8,21.1-34.3,35-49c1.7-1.8,3.3-3.8,5.1-5.6l5.6-5.1
		c3.8-3.3,7.3-6.9,11.3-10c7.9-6.3,16.1-12,24.8-17.2c34.6-21,74.3-32.2,114.8-32.3v-17c-43.6,0.1-86.4,12.2-123.7,34.8
		c-9.3,5.6-18.2,11.8-26.7,18.6c-4.3,3.3-8.1,7.2-12.2,10.8l-6,5.5c-1.9,1.9-3.7,4-5.5,6c-14.9,15.8-27.6,33.5-37.7,52.8l-3.8,8
		c-1,2-1.2,4.4-0.5,6.5c0.8,2.2,2.4,3.9,4.5,4.8C31.7,166.698,36.7,164.898,38.8,160.798z"/>
	<path style="fill:#428DFF;" d="M24.2,182.498c-0.8-0.7-1.8-1.3-2.8-1.7c-2.2-0.7-4.5-0.6-6.6,0.4c-2.1,1.1-3.7,2.9-4.4,5.2
		c-0.6,2.3-0.3,4.7,0.8,6.7l1,1.4c0.4,0.4,0.8,0.8,1.3,1.2c0.4,0.4,0.9,0.7,1.4,0.9s1.1,0.4,1.6,0.6c2.2,0.5,4.5,0.3,6.5-0.8
		c0.9-0.6,1.8-1.3,2.4-2.2c1.9-2.7,2.3-6.1,1-9.1C25.8,183.998,25.1,183.198,24.2,182.498z"/>
	<path style="fill:#428DFF;" d="M238,426.698c0.3,0,0.8,0.1,1,0.1c12.6,0,25.2-1.4,37.6-4.1c1.5-0.3,2.9-0.7,5.1-1.3
		c76.6-19.8,129.6-89.6,128-168.7s-57.5-146.8-134.8-163.5c-11.2-2.4-22.6-3.6-34.1-3.7h-0.5c-0.3,0-1.1-0.1-1.4-0.1
		c-93.9,0-170.1,75.9-170.6,169.7c-0.5,93.9,74.9,170.5,168.8,171.5L238,426.698z M85.3,256.098c0-84.5,68.2-153.1,152.7-153.6
		c0.2,0,1,0.1,1.3,0.1h1.2c84.3,0.6,152.2,69.3,152,153.5c0,70.2-47.6,131.5-115.6,148.9c-1.5,0.4-2.8,0.7-4.1,1
		c-10.8,2.4-21.9,3.7-33,3.7l-0.6-0.1c-0.2,0-0.5,0-0.7,0h-1.3C153.2,408.498,85.6,340.198,85.3,256.098z"/>
	<path style="fill:#428DFF;" d="M242.2,51.998c-3.2-1.3-6.8-0.6-9.3,1.8c-0.8,0.8-1.4,1.8-1.8,2.8c-0.4,1-0.7,2.1-0.7,3.2
		c0,2.3,0.9,4.5,2.5,6.1c1.6,1.6,3.8,2.5,6.1,2.5c1.1,0,2.2-0.2,3.2-0.7c1-0.4,2-1,2.8-1.8c1.6-1.6,2.4-3.8,2.5-6.1
		c0-1.1-0.2-2.2-0.7-3.2c-0.4-1-1-2-1.8-2.8C244.2,52.998,243.2,52.398,242.2,51.998z"/>
	<path style="fill:#428DFF;" d="M245,446.298c-0.8-0.8-1.8-1.4-2.8-1.8c-3.2-1.3-6.8-0.6-9.3,1.8c-0.8,0.8-1.4,1.8-1.8,2.8
		c-0.4,1-0.7,2.1-0.7,3.2c0,2.3,0.9,4.5,2.5,6.1s3.8,2.5,6.1,2.5c1.1,0,2.2-0.2,3.2-0.7c1-0.4,2-1,2.8-1.8c1.6-1.6,2.4-3.8,2.5-6.1
		c0-1.1-0.2-2.2-0.7-3.2C246.4,448.098,245.8,447.098,245,446.298z"/>
	<path style="fill:#428DFF;" d="M195.2,61.798c-0.3-0.5-0.7-0.9-1.1-1.3c-3.4-3.2-8.7-3.2-12,0c-1.6,1.6-2.5,3.7-2.5,6
		c0,1.1,0.2,2.3,0.6,3.3c0.4,1,1.1,1.9,1.9,2.7c1.6,1.6,3.8,2.5,6.1,2.5c2.2,0,4.4-0.9,6-2.5s2.6-3.8,2.6-6.1c0-0.5-0.1-1.1-0.2-1.6
		c-0.1-0.6-0.3-1.1-0.5-1.6C195.8,62.698,195.5,62.298,195.2,61.798z"/>
	<path style="fill:#428DFF;" d="M286.5,437.798c-1,0.4-1.9,1.1-2.7,1.9c-0.8,0.8-1.5,1.7-1.9,2.7c-0.4,1.1-0.7,2.2-0.7,3.3
		c0,2.3,0.9,4.4,2.6,6c0.8,0.8,1.7,1.5,2.7,1.9c3.2,1.4,6.9,0.6,9.3-1.9c1.6-1.6,2.5-3.7,2.5-6c0-1.1-0.2-2.3-0.6-3.3
		C295.8,438.098,290.8,435.998,286.5,437.798z"/>
	<path style="fill:#428DFF;" d="M144,78.298c-1.6-0.7-3.3-0.9-5-0.5c-0.5,0.1-1.1,0.3-1.5,0.5c-0.5,0.2-1.1,0.4-1.5,0.8
		c-0.4,0.3-0.9,0.7-1.3,1c-0.8,0.8-1.4,1.8-1.8,2.8c-0.4,1-0.7,2.1-0.7,3.2c0,0.6,0.1,1.1,0.2,1.7c0.1,0.5,0.3,1.1,0.5,1.5
		c0.2,0.6,0.4,1.1,0.8,1.5l1,1.3c0.4,0.4,0.8,0.7,1.3,1s1,0.6,1.5,0.9c0.5,0.2,1,0.3,1.5,0.4c0.6,0.1,1.1,0.2,1.7,0.2
		c1.1,0,2.2-0.2,3.2-0.6c1-0.5,2-1.1,2.8-1.9c0.3-0.4,0.7-0.9,1-1.3c0.3-0.5,0.6-1,0.8-1.5s0.4-1,0.5-1.5c0.1-0.6,0.2-1.1,0.2-1.7
		c0-1.1-0.2-2.2-0.7-3.2C147.9,80.698,146.2,78.998,144,78.298L144,78.298z"/>
	<path style="fill:#428DFF;" d="M335.4,417.698c-0.5,0.1-1.1,0.3-1.5,0.5c-0.5,0.2-1.1,0.4-1.5,0.8c-0.4,0.3-0.9,0.7-1.3,1
		c-3.3,3.4-3.3,8.8,0,12.1c0.4,0.3,0.9,0.7,1.3,1c0.5,0.3,1,0.6,1.5,0.8c0.5,0.2,1,0.4,1.5,0.5c0.6,0.1,1.1,0.2,1.7,0.2
		c3.5,0,6.6-2.1,7.9-5.3c1.3-3.2,0.6-6.9-1.8-9.3C341.1,417.998,338.2,417.098,335.4,417.698z"/>
	<path style="fill:#428DFF;" d="M103.4,109.398c-2.6-1.1-5.7-0.9-8.1,0.7s-3.8,4.3-3.7,7.2c0,2.2,0.9,4.4,2.5,6
		c0.8,0.8,1.7,1.5,2.7,1.9c1.1,0.4,2.2,0.7,3.3,0.7c1.1,0,2.2-0.2,3.2-0.7c1-0.4,2-1.1,2.7-1.9c1.6-1.6,2.5-3.7,2.6-6
		c0-1.1-0.3-2.3-0.7-3.3c-0.4-1-1.1-2-1.9-2.7C105.4,110.498,104.4,109.898,103.4,109.398z"/>
	<path style="fill:#428DFF;" d="M371.7,388.898c-1.6,1.6-2.6,3.7-2.6,6s0.9,4.5,2.6,6.1c1.6,1.6,3.7,2.5,6,2.5s4.5-0.9,6.1-2.5
		s2.5-3.8,2.5-6.1c0-2.2-0.9-4.4-2.5-6c-0.8-0.8-1.7-1.5-2.7-1.9C377.8,385.698,374.2,386.498,371.7,388.898z"/>
	<path style="fill:#428DFF;" d="M75,151.898c-3.4-3.2-8.7-3.2-12.1,0c-0.8,0.8-1.4,1.8-1.8,2.8c-0.9,2.1-0.9,4.4,0,6.5
		c0.4,1,1,2,1.8,2.8c1.6,1.6,3.8,2.4,6.1,2.5c2.3,0,4.4-0.9,6.1-2.5c0.8-0.8,1.4-1.8,1.8-2.8c0.9-2.1,0.9-4.4,0-6.5
		C76.4,153.698,75.8,152.698,75,151.898z"/>
	<path style="fill:#428DFF;" d="M402.9,348.198c-1.6,1.6-2.4,3.8-2.5,6.1c0,1.1,0.2,2.2,0.7,3.2c0.4,1,1,2,1.8,2.8
		c3.4,3.3,8.8,3.3,12.1,0c0.8-0.8,1.4-1.8,1.8-2.8s0.7-2.1,0.7-3.2c0-3.5-2.1-6.6-5.3-7.9C409,344.998,405.3,345.698,402.9,348.198
		L402.9,348.198z"/>
	<path style="fill:#428DFF;" d="M57.3,202.098c-0.2-0.5-0.5-1.1-0.9-1.5c-0.3-0.5-0.6-0.9-1-1.3c-3.4-3.2-8.6-3.2-12,0
		c-2.4,2.4-3.1,6.1-1.8,9.3s4.4,5.3,7.8,5.3c2.3,0,4.5-0.9,6.1-2.6c1.6-1.6,2.5-3.7,2.5-6c0-0.6,0-1.2-0.2-1.7
		C57.6,203.098,57.4,202.598,57.3,202.098z"/>
	<path style="fill:#428DFF;" d="M422.5,312.898c3.3,3.3,8.7,3.3,12,0c0.8-0.8,1.5-1.7,1.9-2.8c0.4-1,0.7-2.1,0.7-3.2
		c0-2.3-0.9-4.4-2.6-6c-3.4-3.2-8.7-3.2-12,0c-1.6,1.6-2.5,3.7-2.5,6C420,309.098,420.9,311.298,422.5,312.898z"/>
	<path style="fill:#428DFF;" d="M48.7,262.198c1.6-1.6,2.4-3.8,2.5-6.1c0-1.1-0.2-2.2-0.7-3.2c-0.4-1-1-2-1.8-2.8
		c-3.4-3.2-8.7-3.2-12.1,0c-0.8,0.8-1.4,1.8-1.8,2.8c-0.4,1-0.7,2.1-0.7,3.2c0,2.3,0.9,4.4,2.5,6.1
		C40,265.498,45.4,265.498,48.7,262.198L48.7,262.198z"/>
	<path style="fill:#428DFF;" d="M432,248.198c-1,0.4-2,1-2.8,1.8c-3.3,3.4-3.3,8.8,0,12.1c0.8,0.8,1.8,1.4,2.8,1.8
		c1,0.5,2.1,0.7,3.2,0.7c3.5,0,6.6-2.1,7.9-5.3c1.3-3.2,0.6-6.9-1.8-9.3C438.8,247.598,435.1,246.898,432,248.198z"/>
	<path style="fill:#428DFF;" d="M43.3,300.898c-3.3,3.3-3.2,8.7,0.1,12s8.6,3.3,12,0.1c0.4-0.4,0.7-0.8,1-1.3s0.6-1,0.9-1.5
		c0.2-0.5,0.3-1,0.4-1.5c0.1-0.6,0.2-1.1,0.2-1.7c0-2.2-0.9-4.4-2.5-6C52,297.698,46.7,297.698,43.3,300.898z"/>
	<path style="fill:#428DFF;" d="M434.5,199.298c-0.8-0.8-1.7-1.4-2.7-1.9c-3.2-1.3-6.8-0.5-9.3,1.9c-1.6,1.6-2.5,3.8-2.5,6.1
		c0,0.5,0,1.1,0.2,1.6c0.1,0.6,0.2,1.1,0.4,1.6c0.3,0.5,0.5,1,0.8,1.4c0.3,0.5,0.7,0.9,1.1,1.3c2.8,3,7.4,3.5,10.8,1.2
		s4.7-6.6,3.1-10.4C436,200.998,435.4,199.998,434.5,199.298z"/>
	<path style="fill:#428DFF;" d="M75,348.198c-3.4-3.2-8.7-3.2-12.1,0c-0.8,0.8-1.4,1.8-1.8,2.8c-0.9,2.1-0.9,4.4,0,6.5
		c0.4,1,1,2,1.8,2.8c1.6,1.6,3.8,2.4,6.1,2.5c2.3,0,4.4-0.9,6.1-2.5c0.8-0.8,1.4-1.8,1.8-2.8c0.9-2.1,0.9-4.4,0-6.5
		C76.4,349.998,75.8,348.998,75,348.198z"/>
	<path style="fill:#428DFF;" d="M415,151.898c-3.4-3.2-8.7-3.2-12.1,0c-1.6,1.6-2.5,3.8-2.5,6.1c0,4.7,3.8,8.5,8.5,8.5
		s8.5-3.8,8.5-8.5C417.4,155.698,416.5,153.498,415,151.898z"/>
	<path style="fill:#428DFF;" d="M103.4,386.998c-2.1-0.9-4.5-0.9-6.6,0c-1,0.4-2,1.1-2.7,1.9c-0.8,0.8-1.4,1.7-1.9,2.7
		c-1.2,3.2-0.5,6.8,1.9,9.3c0.8,0.8,1.7,1.4,2.7,1.9c1.1,0.4,2.2,0.6,3.3,0.6c1.1,0,2.2-0.2,3.2-0.6s2-1.1,2.7-1.9
		c1.6-1.6,2.6-3.7,2.6-6s-0.9-4.4-2.6-6C105.4,388.098,104.5,387.398,103.4,386.998z"/>
	<path style="fill:#428DFF;" d="M381,125.198c1-0.4,2-1.1,2.7-1.9c1.6-1.6,2.5-3.7,2.5-6s-0.9-4.5-2.5-6.1s-3.7-2.5-6-2.5
		s-4.4,0.9-6,2.5s-2.6,3.8-2.6,6.1c0.1,4.7,3.9,8.4,8.5,8.5C378.8,125.898,380,125.598,381,125.198z"/>
	<path style="fill:#428DFF;" d="M148.6,422.798c-0.2-0.5-0.4-1.1-0.8-1.5c-0.3-0.4-0.7-0.9-1-1.3c-0.8-0.8-1.8-1.4-2.8-1.9
		c-3.2-1.3-6.8-0.5-9.3,1.9l-1,1.3c-0.3,0.5-0.6,1-0.8,1.5s-0.4,1-0.5,1.5c-0.1,0.6-0.2,1.1-0.2,1.7c0,1.1,0.2,2.2,0.7,3.2
		c0.4,1,1,2,1.8,2.8c1.6,1.6,3.8,2.4,6.1,2.5c1.1,0,2.2-0.2,3.2-0.7c2.1-0.8,3.8-2.5,4.6-4.6c0.5-1,0.7-2.1,0.7-3.2
		c0-0.6-0.1-1.1-0.2-1.7C149.1,423.798,148.9,423.298,148.6,422.798z"/>
	<path style="fill:#428DFF;" d="M332.3,93.198c0.5,0.3,1,0.6,1.5,0.8c0.5,0.2,1,0.4,1.5,0.5c0.6,0.1,1.1,0.1,1.7,0.2
		c2.3,0,4.4-0.9,6.1-2.5c0.8-0.8,1.4-1.8,1.8-2.8c0.5-1,0.7-2.1,0.7-3.2c0-4.7-3.8-8.5-8.5-8.5s-8.5,3.8-8.5,8.5
		c0,1.1,0.2,2.2,0.7,3.2c0.4,1.1,1,2,1.8,2.8C331.4,92.498,331.8,92.898,332.3,93.198z"/>
	<path style="fill:#428DFF;" d="M194.1,439.698c-2.4-2.5-6.1-3.3-9.3-1.9c-3.2,1.3-5.3,4.5-5.2,8c0,2.2,0.9,4.4,2.5,6
		s3.8,2.5,6.1,2.6c4.7-0.1,8.4-3.9,8.5-8.5c0-1.1-0.3-2.3-0.7-3.3C195.6,441.298,195,440.398,194.1,439.698z"/>
	<path style="fill:#428DFF;" d="M289.7,74.998c2.3,0,4.5-0.9,6.1-2.5c3.3-3.3,3.3-8.7,0-12c-2.5-2.4-6.1-3.1-9.3-1.9
		c-1,0.4-2,1.1-2.7,1.9c-1.6,1.6-2.6,3.7-2.6,6s0.9,4.4,2.6,6c0.8,0.8,1.7,1.4,2.7,1.9C287.5,74.798,288.6,74.998,289.7,74.998z"/>
	<path style="fill:#428DFF;" d="M501.2,327.298c14.4-46.4,14.4-96,0-142.4c-0.1-0.2-0.1-0.4-0.2-0.6c-8-25.3-20.2-49.1-36-70.4
		c-0.1-0.1-0.2-0.3-0.3-0.4c-45-60.6-116.1-96.3-191.6-96.3c-6.7,0-12.5,0.2-17.8,0.7c-3,0.3-5.7,2.1-7,4.9s-1,6,0.8,8.5
		s4.7,3.9,7.8,3.6c4.8-0.4,10.1-0.7,16.3-0.7c64.4,0,125.6,28,167.7,76.8h-16.2c-4.7,0-8.5,3.8-8.5,8.5s3.8,8.5,8.5,8.5h29.6
		c11.2,15.8,20.3,33,27.1,51.2h-22.1c-4.7,0-8.5,3.8-8.5,8.5s3.8,8.5,8.5,8.5h27.6c4.7,16.7,7.4,33.9,8,51.2h-25.4
		c-4.7,0-8.5,3.8-8.5,8.5s3.8,8.5,8.5,8.5h25.4c-0.7,17.3-3.3,34.5-8,51.2h-27.6c-4.7,0-8.5,3.8-8.5,8.5s3.8,8.5,8.5,8.5h22.1
		c-6.8,18.2-15.9,35.4-27.1,51.2h-29.6c-4.7,0-8.5,3.8-8.5,8.5s3.8,8.5,8.5,8.5h16.2c-42.1,48.8-103.3,76.8-167.7,76.8
		c-6.2,0-11.5-0.2-16.3-0.6c-3-0.3-6,1.1-7.8,3.6s-2.1,5.7-0.8,8.5s3.9,4.6,7,4.9c5.3,0.5,11.1,0.7,17.8,0.7
		c75.5,0,146.6-35.7,191.6-96.3c0.1-0.1,0.2-0.3,0.3-0.4c15.8-21.3,28-45.1,36-70.4C501.1,327.698,501.1,327.498,501.2,327.298z"/>
	<path style="fill:#428DFF;" d="M325.5,310.398l28.8-68.3c6.7-15.8,5.1-33.9-4.2-48.3c-9.2-14.4-25.1-23.1-42.2-23.1H203.4
		c-3.3,0-6.2,1.8-7.7,4.8l-16.8,34.1c-1.3,2.6-1.1,5.8,0.4,8.3c1.6,2.5,4.3,4,7.2,4h121.1l-28.6,68.2H153c-3.3,0-6.2,1.8-7.7,4.8
		l-16.7,34.2c-1.3,2.6-1.1,5.8,0.4,8.3c1.6,2.5,4.3,4,7.2,4h142.9C299.4,341.398,317.8,329.098,325.5,310.398z M158.4,307.298h120.8
		c6.8,0,13-4.1,15.6-10.4l28.8-68.3c2.2-5.2,1.7-11.2-1.4-16s-8.4-7.8-14.2-7.7H200.3l8.4-17.1h99.2c11.3,0,21.8,5.8,27.9,15.3
		c6.3,9.6,7.3,21.8,2.8,32.3l-28.8,68.3c-5.1,12.4-17.2,20.6-30.7,20.6H150L158.4,307.298z"/>
	<path style="fill:#428DFF;" d="M211.1,276.898l16.8-34.1c1.3-2.6,1.1-5.8-0.4-8.3c-1.6-2.5-4.3-4-7.2-4h-83.9
		c-3.3,0-6.2,1.8-7.7,4.8l-16.8,34.1c-1.3,2.6-1.1,5.8,0.4,8.3c1.6,2.5,4.3,4,7.2,4h83.9C206.6,281.698,209.6,279.898,211.1,276.898
		z M133.2,264.598l8.4-17.1h64.9l-8.4,17.1H133.2z"/>
</g>
<g>
</g>
<g>
</g>
<g>
</g>
<g>
</g>
<g>
</g>
<g>
</g>
<g>
</g>
<g>
</g>
<g>
</g>
<g>
</g>
<g>
</g>
<g>
</g>
<g>
</g>
<g>
</g>
<g>
</g>
</svg>
