<?xml version="1.0" encoding="UTF-8" standalone="no"?>
<!-- Generator: Adobe Illustrator 19.0.0, SVG Export Plug-In . SVG Version: 6.00 Build 0)  -->

<svg
   xmlns:dc="http://purl.org/dc/elements/1.1/"
   xmlns:cc="http://creativecommons.org/ns#"
   xmlns:rdf="http://www.w3.org/1999/02/22-rdf-syntax-ns#"
   xmlns:svg="http://www.w3.org/2000/svg"
   xmlns="http://www.w3.org/2000/svg"
   xmlns:sodipodi="http://sodipodi.sourceforge.net/DTD/sodipodi-0.dtd"
   xmlns:inkscape="http://www.inkscape.org/namespaces/inkscape"
   version="1.1"
   id="Capa_1"
   x="0px"
   y="0px"
   viewBox="0 0 512 512"
   style="enable-background:new 0 0 512 512;"
   xml:space="preserve"
   sodipodi:docname="fan-2.svg"
   inkscape:version="0.92.3 (2405546, 2018-03-11)"><metadata
   id="metadata260"><rdf:RDF><cc:Work
       rdf:about=""><dc:format>image/svg+xml</dc:format><dc:type
         rdf:resource="http://purl.org/dc/dcmitype/StillImage" /><dc:title></dc:title></cc:Work></rdf:RDF></metadata><defs
   id="defs258" /><sodipodi:namedview
   pagecolor="#ffffff"
   bordercolor="#666666"
   borderopacity="1"
   objecttolerance="10"
   gridtolerance="10"
   guidetolerance="10"
   inkscape:pageopacity="0"
   inkscape:pageshadow="2"
   inkscape:window-width="640"
   inkscape:window-height="480"
   id="namedview256"
   showgrid="false"
   inkscape:zoom="0.4609375"
   inkscape:cx="256"
   inkscape:cy="259.0265"
   inkscape:window-x="0"
   inkscape:window-y="0"
   inkscape:window-maximized="0"
   inkscape:current-layer="g223" />
<g
   id="g223">
	<path
   style="fill:#A5A5A4;"
   d="M35.31,0H476.69C496.191,0,512,15.809,512,35.31V476.69c0,19.501-15.809,35.31-35.31,35.31H35.31   C15.809,512,0,496.191,0,476.69V35.31C0,15.809,15.809,0,35.31,0z"
   id="path203" />
	<circle
   style="fill:#5E5F62;"
   cx="256"
   cy="256"
   r="220.69"
   id="circle205" />
	<circle
   style="fill:#285680;"
   cx="256"
   cy="256"
   r="185.379"
   id="circle207" />
	<path
   style="fill:#4482c3"
   d="m 290.73562,406.22902 0.0213,0.12262 -53.67583,0.63348 c -5.25852,-9.85848 -30.80062,-62.50701 -9.64092,-112.17202 -54.49929,-5.56069 -97.32323,36.07945 -104.77253,43.89832 l -0.072,-0.0507 -17.1146,-50.81652 c 7.79752,-8.00415 49.83756,-48.68584 103.71545,-43.77808 -11.65509,-53.66552 -64.43183,-81.44339 -74.10951,-86.10071 l -0.0736,-0.0518 43.02085,-32.10777 c 10.0595,5.03388 61.57203,32.46197 73.74346,85.08699 47.36147,-27.54002 57.56233,-86.32646 58.93827,-97.01875 l 0.0507,-0.0719 43.77872,31.05059 c -1.6307,11.05226 -11.7262,68.6176 -58.1633,96.3769 40.92049,36.48762 99.96529,28.08185 110.52107,26.12278 l 0.12262,-0.0213 -16.00725,51.24276 c -10.94794,1.89936 -69.02807,10.01218 -109.72803,-25.56422 -22.00546,50.25454 4.32343,103.78135 9.44512,113.21933 z"
   id="path209"
   inkscape:connector-curvature="0" />
	<circle
   style="fill:#E6E7E8;"
   cx="255.991"
   cy="256"
   r="44.138"
   id="circle211" />
	<g
   id="g221">
		<circle
   style="fill:#5E5F62;"
   cx="52.966"
   cy="52.966"
   r="17.655"
   id="circle213" />
		<circle
   style="fill:#5E5F62;"
   cx="52.966"
   cy="459.034"
   r="17.655"
   id="circle215" />
		<circle
   style="fill:#5E5F62;"
   cx="459.034"
   cy="52.966"
   r="17.655"
   id="circle217" />
		<circle
   style="fill:#5E5F62;"
   cx="459.034"
   cy="459.034"
   r="17.655"
   id="circle219" />
	</g>
</g>
<g
   id="g225">
</g>
<g
   id="g227">
</g>
<g
   id="g229">
</g>
<g
   id="g231">
</g>
<g
   id="g233">
</g>
<g
   id="g235">
</g>
<g
   id="g237">
</g>
<g
   id="g239">
</g>
<g
   id="g241">
</g>
<g
   id="g243">
</g>
<g
   id="g245">
</g>
<g
   id="g247">
</g>
<g
   id="g249">
</g>
<g
   id="g251">
</g>
<g
   id="g253">
</g>
</svg>