<?xml version="1.0" encoding="UTF-8" standalone="no"?>
<svg
   xmlns:dc="http://purl.org/dc/elements/1.1/"
   xmlns:cc="http://creativecommons.org/ns#"
   xmlns:rdf="http://www.w3.org/1999/02/22-rdf-syntax-ns#"
   xmlns:svg="http://www.w3.org/2000/svg"
   xmlns="http://www.w3.org/2000/svg"
   xmlns:sodipodi="http://sodipodi.sourceforge.net/DTD/sodipodi-0.dtd"
   xmlns:inkscape="http://www.inkscape.org/namespaces/inkscape"
   version="1.1"
   id="Capa_1"
   x="0px"
   y="0px"
   viewBox="0 0 59 59"
   style="enable-background:new 0 0 59 59;"
   xml:space="preserve"
   width="512px"
   height="512px"
   class=""
   sodipodi:docname="nvidiaGtx-2.svg"
   inkscape:version="0.92.3 (2405546, 2018-03-11)"><metadata
   id="metadata142"><rdf:RDF><cc:Work
       rdf:about=""><dc:format>image/svg+xml</dc:format><dc:type
         rdf:resource="http://purl.org/dc/dcmitype/StillImage" /><dc:title /></cc:Work></rdf:RDF></metadata><defs
   id="defs140" /><sodipodi:namedview
   pagecolor="#ffffff"
   bordercolor="#666666"
   borderopacity="1"
   objecttolerance="10"
   gridtolerance="10"
   guidetolerance="10"
   inkscape:pageopacity="0"
   inkscape:pageshadow="2"
   inkscape:window-width="1920"
   inkscape:window-height="1017"
   id="namedview138"
   showgrid="false"
   inkscape:zoom="1.3037281"
   inkscape:cx="387.72527"
   inkscape:cy="182.85722"
   inkscape:window-x="-8"
   inkscape:window-y="-8"
   inkscape:window-maximized="1"
   inkscape:current-layer="g135" /><g
   id="g135"><rect
     x="4"
     y="12.5"
     style="fill:#38454F;"
     width="55"
     height="32"
     data-original="#38454F"
     class=""
     id="rect77" /><circle
     style="fill:#546A79;"
     cx="7"
     cy="15.5"
     r="1"
     data-original="#546A79"
     class=""
     id="circle79" /><circle
     style="fill:#546A79;"
     cx="7"
     cy="41.5"
     r="1"
     data-original="#546A79"
     class=""
     id="circle81" /><circle
     style="fill:#546A79;"
     cx="56"
     cy="15.5"
     r="1"
     data-original="#546A79"
     class=""
     id="circle83" /><circle
     style="fill:#546A79;"
     cx="56"
     cy="41.5"
     r="1"
     data-original="#546A79"
     class=""
     id="circle85" /><rect
     y="27.5"
     style="fill:#839594;"
     width="3"
     height="13"
     data-original="#839594"
     id="rect87" /><path
     style="fill:#F3CC6D;"
     d="M3,26.5H1c-0.553,0-1-0.447-1-1s0.447-1,1-1h2c0.553,0,1,0.447,1,1S3.553,26.5,3,26.5z"
     data-original="#F3CC6D"
     id="path89" /><path
     style="fill:#F3CC6D;"
     d="M3,43.5H1c-0.553,0-1-0.447-1-1s0.447-1,1-1h2c0.553,0,1,0.447,1,1S3.553,43.5,3,43.5z"
     data-original="#F3CC6D"
     id="path91" /><rect
     y="15.5"
     style="fill:#839594;"
     width="3"
     height="4"
     data-original="#839594"
     id="rect93" /><g
     id="g97">
	<rect
   x="12"
   y="44.5"
   style="fill:#28812F;"
   width="24"
   height="4"
   data-original="#28812F"
   id="rect95" />
</g><path
     style="fill:#2A7909"
     d="M24.389,38.655c-1.76-2.032-2.974-4.996-3.295-8.376c-0.003-0.025-0.005-0.05-0.008-0.075  C21.035,29.645,21,29.079,21,28.5s0.035-1.145,0.086-1.704c0.003-0.025,0.005-0.05,0.008-0.075c0.321-3.38,1.535-6.344,3.295-8.376  c0.781-1.046,1.67-2.005,2.667-2.845H17c-4.971,0-9,5.82-9,13s4.029,13,9,13h10.057C26.059,40.66,25.171,39.7,24.389,38.655z"
     data-original="#6C797A"
     class="active-path"
     data-old_color="#2B7B0A"
     id="path99" /><path
     style="fill:#283238;"
     d="M34.846,41.5C29.534,39.394,26,34.23,26,28.5s3.534-10.894,8.846-13h10.309  C50.466,17.606,54,22.77,54,28.5s-3.534,10.894-8.846,13H34.846z"
     data-original="#283238"
     class=""
     id="path101" /><circle
     style="fill:#CBD4D8"
     cx="40"
     cy="28.5"
     r="3"
     data-original="#CBD4D8"
     class=""
     id="circle103" /><path
     style="fill:#546a79"
     d="m 30.494297,31.781118 c 0.113692,0.500235 0.724098,0.657769 1.093425,0.300887 1.252855,-1.213335 3.471284,-2.208843 5.8474,-1.917636 -0.06956,-0.105084 -0.143672,-0.205685 -0.200646,-0.321424 -0.576099,-1.169841 -0.310743,-2.525553 0.550143,-3.409868 0,0 -4.670675,-0.831025 -7.686487,0.236134 -0.34391,1.329745 0.06862,3.663609 0.396162,5.111906 z"
     data-original="#546A79"
     class=""
     id="path105"
     inkscape:connector-curvature="0" /><path
     style="fill:#546a79"
     d="m 49.427331,25.219554 c -0.113693,-0.500236 -0.724098,-0.657771 -1.093426,-0.300888 -1.252853,1.213333 -3.471283,2.208842 -5.8474,1.917635 0.06956,0.105085 0.143672,0.205685 0.200207,0.320526 0.576098,1.169839 0.310743,2.525553 -0.550144,3.409868 0,0 4.670676,0.831025 7.686489,-0.236133 0.345248,-1.32929 -0.06728,-3.663155 -0.395726,-5.111008 z"
     data-original="#546A79"
     class=""
     id="path107"
     inkscape:connector-curvature="0" /><path
     style="fill:#546a79"
     d="m 41.3357,18.575858 c -0.497891,-0.125998 -0.914879,0.346876 -0.764454,0.83794 0.512266,1.667212 0.392896,4.095802 -0.945995,6.080518 0.124855,-0.01352 0.248415,-0.03428 0.377204,-0.03308 1.303992,0.01773 2.391396,0.870006 2.788614,2.038764 0,0 2.860519,-3.784076 3.279084,-6.95637 -1.028021,-0.910504 -3.295268,-1.603105 -4.734458,-1.967802 z"
     data-original="#546A79"
     class=""
     id="path109"
     inkscape:connector-curvature="0" /><path
     style="fill:#546a79"
     d="m 38.586827,38.42437 c 0.49789,0.125998 0.914878,-0.346875 0.764454,-0.837939 -0.512266,-1.667213 -0.392897,-4.0958 0.945996,-6.080518 -0.124857,0.01352 -0.248416,0.03428 -0.377206,0.03308 -1.303991,-0.01773 -2.391396,-0.870005 -2.788614,-2.038765 0,0 -2.86052,3.784078 -3.279083,6.956373 1.028019,0.910502 3.295268,1.603103 4.734457,1.967801 z"
     data-original="#546A79"
     class=""
     id="path111"
     inkscape:connector-curvature="0" /><path
     style="fill:#546a79"
     d="m 32.161758,22.210821 c -0.364882,0.361387 -0.174432,0.963155 0.324374,1.086475 1.693329,0.419007 3.713288,1.772896 4.724746,3.942227 0.05211,-0.113733 0.09844,-0.23017 0.165742,-0.340227 0.686932,-1.108533 1.977915,-1.601608 3.183384,-1.340292 0,0 -1.770308,-4.400641 -4.27298,-6.392951 -1.309722,0.412018 -3.070648,1.999283 -4.125261,3.044767 z"
     data-original="#546A79"
     class=""
     id="path113"
     inkscape:connector-curvature="0" /><path
     style="fill:#546a79"
     d="m 47.75987,34.789849 c 0.364888,-0.361379 0.174431,-0.963154 -0.324373,-1.086475 -1.693328,-0.419008 -3.713287,-1.772896 -4.724746,-3.942227 -0.05211,0.113734 -0.09844,0.23017 -0.165741,0.340227 -0.686932,1.108532 -1.977915,1.601608 -3.183385,1.340292 0,0 1.770309,4.400641 4.272982,6.392953 1.310619,-0.41246 3.070646,-1.999285 4.12526,-3.044769 z"
     data-original="#546A79"
     class=""
     id="path115"
     inkscape:connector-curvature="0" /><g
     id="g131">
	<rect
   x="14"
   y="46.5"
   style="fill:#F3CC6D;"
   width="2"
   height="2"
   data-original="#F3CC6D"
   id="rect117" />
	<rect
   x="17"
   y="46.5"
   style="fill:#F3CC6D;"
   width="2"
   height="2"
   data-original="#F3CC6D"
   id="rect119" />
	<rect
   x="20"
   y="46.5"
   style="fill:#F3CC6D;"
   width="2"
   height="2"
   data-original="#F3CC6D"
   id="rect121" />
	<rect
   x="23"
   y="46.5"
   style="fill:#F3CC6D;"
   width="2"
   height="2"
   data-original="#F3CC6D"
   id="rect123" />
	<rect
   x="26"
   y="46.5"
   style="fill:#F3CC6D;"
   width="2"
   height="2"
   data-original="#F3CC6D"
   id="rect125" />
	<rect
   x="29"
   y="46.5"
   style="fill:#F3CC6D;"
   width="2"
   height="2"
   data-original="#F3CC6D"
   id="rect127" />
	<rect
   x="32"
   y="46.5"
   style="fill:#F3CC6D;"
   width="2"
   height="2"
   data-original="#F3CC6D"
   id="rect129" />
</g><path
     style="fill:#CBD4D8"
     d="M4,7.5H1c-0.553,0-1,0.447-1,1s0.447,1,1,1h2v41c0,0.553,0.447,1,1,1s1-0.447,1-1v-42  C5,7.947,4.553,7.5,4,7.5z"
     data-original="#CBD4D8"
     class=""
     id="path133" /></g> </svg>