<?xml version="1.0" encoding="UTF-8" standalone="no"?>
<svg
   xmlns:dc="http://purl.org/dc/elements/1.1/"
   xmlns:cc="http://creativecommons.org/ns#"
   xmlns:rdf="http://www.w3.org/1999/02/22-rdf-syntax-ns#"
   xmlns:svg="http://www.w3.org/2000/svg"
   xmlns="http://www.w3.org/2000/svg"
   xmlns:sodipodi="http://sodipodi.sourceforge.net/DTD/sodipodi-0.dtd"
   xmlns:inkscape="http://www.inkscape.org/namespaces/inkscape"
   version="1.1"
   id="Capa_1"
   x="0px"
   y="0px"
   viewBox="0 0 59 59"
   style="enable-background:new 0 0 59 59;"
   xml:space="preserve"
   width="512px"
   height="512px"
   class=""
   sodipodi:docname="nvidiaGtx-2.svg"
   inkscape:version="0.92.3 (2405546, 2018-03-11)"><metadata
   id="metadata142"><rdf:RDF><cc:Work
       rdf:about=""><dc:format>image/svg+xml</dc:format><dc:type
         rdf:resource="http://purl.org/dc/dcmitype/StillImage" /><dc:title></dc:title></cc:Work></rdf:RDF></metadata><defs
   id="defs140" /><sodipodi:namedview
   pagecolor="#ffffff"
   bordercolor="#666666"
   borderopacity="1"
   objecttolerance="10"
   gridtolerance="10"
   guidetolerance="10"
   inkscape:pageopacity="0"
   inkscape:pageshadow="2"
   inkscape:window-width="1920"
   inkscape:window-height="1017"
   id="namedview138"
   showgrid="false"
   inkscape:zoom="1.3037281"
   inkscape:cx="387.72527"
   inkscape:cy="182.85722"
   inkscape:window-x="-8"
   inkscape:window-y="-8"
   inkscape:window-maximized="1"
   inkscape:current-layer="g135" /><g
   id="g135"><rect
     x="4"
     y="12.5"
     style="fill:#38454F;"
     width="55"
     height="32"
     data-original="#38454F"
     class=""
     id="rect77" /><circle
     style="fill:#546A79;"
     cx="7"
     cy="15.5"
     r="1"
     data-original="#546A79"
     class=""
     id="circle79" /><circle
     style="fill:#546A79;"
     cx="7"
     cy="41.5"
     r="1"
     data-original="#546A79"
     class=""
     id="circle81" /><circle
     style="fill:#546A79;"
     cx="56"
     cy="15.5"
     r="1"
     data-original="#546A79"
     class=""
     id="circle83" /><circle
     style="fill:#546A79;"
     cx="56"
     cy="41.5"
     r="1"
     data-original="#546A79"
     class=""
     id="circle85" /><rect
     y="27.5"
     style="fill:#839594;"
     width="3"
     height="13"
     data-original="#839594"
     id="rect87" /><path
     style="fill:#F3CC6D;"
     d="M3,26.5H1c-0.553,0-1-0.447-1-1s0.447-1,1-1h2c0.553,0,1,0.447,1,1S3.553,26.5,3,26.5z"
     data-original="#F3CC6D"
     id="path89" /><path
     style="fill:#F3CC6D;"
     d="M3,43.5H1c-0.553,0-1-0.447-1-1s0.447-1,1-1h2c0.553,0,1,0.447,1,1S3.553,43.5,3,43.5z"
     data-original="#F3CC6D"
     id="path91" /><rect
     y="15.5"
     style="fill:#839594;"
     width="3"
     height="4"
     data-original="#839594"
     id="rect93" /><g
     id="g97">
	<rect
   x="12"
   y="44.5"
   style="fill:#28812F;"
   width="24"
   height="4"
   data-original="#28812F"
   id="rect95" />
</g><path
     style="fill:#2A7909"
     d="M24.389,38.655c-1.76-2.032-2.974-4.996-3.295-8.376c-0.003-0.025-0.005-0.05-0.008-0.075  C21.035,29.645,21,29.079,21,28.5s0.035-1.145,0.086-1.704c0.003-0.025,0.005-0.05,0.008-0.075c0.321-3.38,1.535-6.344,3.295-8.376  c0.781-1.046,1.67-2.005,2.667-2.845H17c-4.971,0-9,5.82-9,13s4.029,13,9,13h10.057C26.059,40.66,25.171,39.7,24.389,38.655z"
     data-original="#6C797A"
     class="active-path"
     data-old_color="#2B7B0A"
     id="path99" /><path
     style="fill:#283238;"
     d="M34.846,41.5C29.534,39.394,26,34.23,26,28.5s3.534-10.894,8.846-13h10.309  C50.466,17.606,54,22.77,54,28.5s-3.534,10.894-8.846,13H34.846z"
     data-original="#283238"
     class=""
     id="path101" /><circle
     style="fill:#CBD4D8"
     cx="40"
     cy="28.5"
     r="3"
     data-original="#CBD4D8"
     class=""
     id="circle103" /><path
     style="fill:#546a79"
     d="m 48.695877,33.407179 c 0.29889,-0.416925 0.01184,-0.978182 -0.500213,-1.017792 -1.739036,-0.132578 -3.955625,-1.132178 -5.313998,-3.103359 -0.03247,0.121766 -0.05862,0.24395 -0.10741,0.363368 -0.493192,1.207136 -1.683677,1.907933 -2.916489,1.850391 0,0 2.476612,4.046257 5.275787,5.594991 1.223165,-0.624791 2.695882,-2.481725 3.562323,-3.687599 z"
     data-original="#546A79"
     class=""
     id="path105"
     inkscape:connector-curvature="0" /><path
     style="fill:#546a79"
     d="m 31.226123,23.592821 c -0.29889,0.416925 -0.01184,0.978182 0.500213,1.017792 1.739036,0.132578 3.955625,1.132178 5.313998,3.103359 0.03247,-0.121766 0.05862,-0.24395 0.107032,-0.362442 0.493192,-1.207136 1.683676,-1.907934 2.916489,-1.850391 0,0 -2.476613,-4.046258 -5.275787,-5.594991 -1.223713,0.623487 -2.69643,2.480421 -3.561945,3.686673 z"
     data-original="#546A79"
     class=""
     id="path107"
     inkscape:connector-curvature="0" /><path
     style="fill:#546a79"
     d="m 31.622645,34.054941 c 0.23601,0.456147 0.866475,0.454474 1.134139,0.01615 0.90771,-1.489321 2.804143,-3.011103 5.177482,-3.32585 -0.09297,-0.08443 -0.190442,-0.163147 -0.274963,-0.260333 -0.851781,-0.987511 -0.935408,-2.366581 -0.324358,-3.439145 0,0 -4.729168,0.369829 -7.380599,2.161075 6.62e-4,1.37326 0.986459,3.529255 1.668299,4.848104 z"
     data-original="#546A79"
     class=""
     id="path109"
     inkscape:connector-curvature="0" /><path
     style="fill:#546a79"
     d="m 48.298429,22.94468 c -0.23601,-0.456146 -0.866475,-0.454473 -1.134139,-0.01615 -0.90771,1.489321 -2.804142,3.011103 -5.177482,3.32585 0.09297,0.08443 0.190442,0.163147 0.274963,0.260333 0.851781,0.987511 0.935408,2.36658 0.324358,3.439145 0,0 4.729168,-0.369829 7.380599,-2.161076 -6.62e-4,-1.373259 -0.986459,-3.529254 -1.668299,-4.848104 z"
     data-original="#546A79"
     class=""
     id="path111"
     inkscape:connector-curvature="0" /><path
     style="fill:#546a79"
     d="m 40.428458,38.508234 c 0.512474,0.0333 0.836423,-0.508418 0.597805,-0.96347 -0.809793,-1.545045 -1.136715,-3.954686 -0.184435,-6.150639 -0.119674,0.03645 -0.237535,0.07903 -0.364535,0.10168 -1.285191,0.221365 -2.510567,-0.417551 -3.114719,-1.492932 0,0 -2.118513,4.244 -1.949085,7.438365 1.177152,0.706713 3.533041,0.971408 5.014969,1.066996 z"
     data-original="#546A79"
     class=""
     id="path113"
     inkscape:connector-curvature="0" /><path
     style="fill:#546a79"
     d="m 39.493542,18.491766 c -0.512474,-0.0333 -0.836423,0.508418 -0.597805,0.96347 0.809793,1.545045 1.136715,3.954686 0.184435,6.150639 0.119674,-0.03645 0.237535,-0.07903 0.364535,-0.10168 1.285191,-0.221365 2.510567,0.417551 3.114719,1.492932 0,0 2.118513,-4.244 1.949085,-7.438365 -1.178078,-0.707091 -3.533041,-0.971408 -5.014969,-1.066996 z"
     data-original="#546A79"
     class=""
     id="path115"
     inkscape:connector-curvature="0" /><g
     id="g131">
	<rect
   x="14"
   y="46.5"
   style="fill:#F3CC6D;"
   width="2"
   height="2"
   data-original="#F3CC6D"
   id="rect117" />
	<rect
   x="17"
   y="46.5"
   style="fill:#F3CC6D;"
   width="2"
   height="2"
   data-original="#F3CC6D"
   id="rect119" />
	<rect
   x="20"
   y="46.5"
   style="fill:#F3CC6D;"
   width="2"
   height="2"
   data-original="#F3CC6D"
   id="rect121" />
	<rect
   x="23"
   y="46.5"
   style="fill:#F3CC6D;"
   width="2"
   height="2"
   data-original="#F3CC6D"
   id="rect123" />
	<rect
   x="26"
   y="46.5"
   style="fill:#F3CC6D;"
   width="2"
   height="2"
   data-original="#F3CC6D"
   id="rect125" />
	<rect
   x="29"
   y="46.5"
   style="fill:#F3CC6D;"
   width="2"
   height="2"
   data-original="#F3CC6D"
   id="rect127" />
	<rect
   x="32"
   y="46.5"
   style="fill:#F3CC6D;"
   width="2"
   height="2"
   data-original="#F3CC6D"
   id="rect129" />
</g><path
     style="fill:#CBD4D8"
     d="M4,7.5H1c-0.553,0-1,0.447-1,1s0.447,1,1,1h2v41c0,0.553,0.447,1,1,1s1-0.447,1-1v-42  C5,7.947,4.553,7.5,4,7.5z"
     data-original="#CBD4D8"
     class=""
     id="path133" /></g> </svg>