<?xml version="1.0" encoding="UTF-8" standalone="no"?>
<svg
   xmlns:dc="http://purl.org/dc/elements/1.1/"
   xmlns:cc="http://creativecommons.org/ns#"
   xmlns:rdf="http://www.w3.org/1999/02/22-rdf-syntax-ns#"
   xmlns:svg="http://www.w3.org/2000/svg"
   xmlns="http://www.w3.org/2000/svg"
   xmlns:sodipodi="http://sodipodi.sourceforge.net/DTD/sodipodi-0.dtd"
   xmlns:inkscape="http://www.inkscape.org/namespaces/inkscape"
   version="1.1"
   id="Capa_1"
   x="0px"
   y="0px"
   viewBox="0 0 512 512"
   style="enable-background:new 0 0 512 512;"
   xml:space="preserve"
   width="512px"
   height="512px"
   class=""
   sodipodi:docname="radeonLow-2.svg"
   inkscape:version="0.92.3 (2405546, 2018-03-11)"><metadata
   id="metadata19401"><rdf:RDF><cc:Work
       rdf:about=""><dc:format>image/svg+xml</dc:format><dc:type
         rdf:resource="http://purl.org/dc/dcmitype/StillImage" /><dc:title></dc:title></cc:Work></rdf:RDF></metadata><defs
   id="defs19399" /><sodipodi:namedview
   pagecolor="#ffffff"
   bordercolor="#666666"
   borderopacity="1"
   objecttolerance="10"
   gridtolerance="10"
   guidetolerance="10"
   inkscape:pageopacity="0"
   inkscape:pageshadow="2"
   inkscape:window-width="981"
   inkscape:window-height="778"
   id="namedview19397"
   showgrid="false"
   inkscape:zoom="1.84375"
   inkscape:cx="348.91222"
   inkscape:cy="271.13486"
   inkscape:window-x="611"
   inkscape:window-y="107"
   inkscape:window-maximized="0"
   inkscape:current-layer="g19392" /><g
   id="g19394"><g
     id="g19392">
	<path
   style="fill:#B19046;"
   d="M425.22,403.525h-26.034c-4.793,0-8.678-3.885-8.678-8.678v-34.712c0-4.793,3.885-8.678,8.678-8.678   c4.793,0,8.678,3.885,8.678,8.678v26.034h17.356c4.793,0,8.678,3.885,8.678,8.678C433.898,399.64,430.013,403.525,425.22,403.525z"
   data-original="#B19046"
   class=""
   id="path19326" />
	<path
   style="fill:#D33E04"
   d="M512,134.508V342.78c-0.028,9.574-7.782,17.328-17.356,17.356H43.39V117.153h451.254   C504.218,117.181,511.972,124.935,512,134.508z"
   data-original="#4482C3"
   class="active-path"
   data-old_color="#D33F05"
   id="path19328" />
	<g
   id="g19336">
		<path
   style="fill:#E4C05C;"
   d="M78.102,360.136h34.712v26.034c0,4.793-3.885,8.678-8.678,8.678H86.78    c-4.793,0-8.678-3.885-8.678-8.678V360.136z"
   data-original="#E4C05C"
   class=""
   id="path19330" />
		<path
   style="fill:#E4C05C;"
   d="M147.525,360.136h52.068v26.034c0,4.793-3.885,8.678-8.678,8.678h-34.712    c-4.793,0-8.678-3.885-8.678-8.678V360.136z"
   data-original="#E4C05C"
   class=""
   id="path19332" />
		<path
   style="fill:#E4C05C;"
   d="M234.305,360.136h130.169v26.034c0,4.793-3.885,8.678-8.678,8.678H242.983    c-4.793,0-8.678-3.885-8.678-8.678V360.136z"
   data-original="#E4C05C"
   class=""
   id="path19334" />
	</g>
	<g
   id="g19354">
		<path
   style="fill:#3B3C42"
   d="M477.288,160.542h-34.712c-4.793,0-8.678-3.885-8.678-8.678s3.885-8.678,8.678-8.678h34.712    c4.793,0,8.678,3.885,8.678,8.678S482.081,160.542,477.288,160.542z"
   data-original="#285680"
   class=""
   data-old_color="#3C3D42"
   id="path19338" />
		<path
   style="fill:#3B3C42"
   d="M477.288,334.102h-34.712c-4.793,0-8.678-3.885-8.678-8.678c0-4.793,3.885-8.678,8.678-8.678    h34.712c4.793,0,8.678,3.885,8.678,8.678C485.966,330.216,482.081,334.102,477.288,334.102z"
   data-original="#285680"
   class=""
   data-old_color="#3C3D42"
   id="path19340" />
		<path
   style="fill:#3B3C42"
   d="M112.814,160.542H78.102c-4.793,0-8.678-3.885-8.678-8.678s3.885-8.678,8.678-8.678h34.712    c4.793,0,8.678,3.885,8.678,8.678S117.606,160.542,112.814,160.542z"
   data-original="#285680"
   class=""
   data-old_color="#3C3D42"
   id="path19342" />
		<path
   style="fill:#3B3C42"
   d="M112.814,334.102H78.102c-4.793,0-8.678-3.885-8.678-8.678c0-4.793,3.885-8.678,8.678-8.678h34.712    c4.793,0,8.678,3.885,8.678,8.678C121.492,330.216,117.606,334.102,112.814,334.102z"
   data-original="#285680"
   class=""
   data-old_color="#3C3D42"
   id="path19344" />
		<path
   style="fill:#3B3C42"
   d="M295.051,160.542h-34.712c-4.793,0-8.678-3.885-8.678-8.678s3.885-8.678,8.678-8.678h34.712    c4.793,0,8.678,3.885,8.678,8.678S299.844,160.542,295.051,160.542z"
   data-original="#285680"
   class=""
   data-old_color="#3C3D42"
   id="path19346" />
		<path
   style="fill:#3B3C42"
   d="M295.051,334.102h-34.712c-4.793,0-8.678-3.885-8.678-8.678c0-4.793,3.885-8.678,8.678-8.678    h34.712c4.793,0,8.678,3.885,8.678,8.678C303.729,330.216,299.844,334.102,295.051,334.102z"
   data-original="#285680"
   class=""
   data-old_color="#3C3D42"
   id="path19348" />
		<path
   style="fill:#3B3C42"
   d="M121.492,247.322H43.39c-4.793,0-8.678-3.885-8.678-8.678c0-4.793,3.885-8.678,8.678-8.678h78.102    c4.793,0,8.678,3.885,8.678,8.678C130.169,243.437,126.284,247.322,121.492,247.322z"
   data-original="#285680"
   class=""
   data-old_color="#3C3D42"
   id="path19350" />
		<path
   style="fill:#3B3C42"
   d="M512,229.966v17.356h-78.102c-4.793,0-8.678-3.885-8.678-8.678c0-4.793,3.885-8.678,8.678-8.678    H512z"
   data-original="#285680"
   class=""
   data-old_color="#3C3D42"
   id="path19352" />
	</g>
	<path
   style="fill:#5E5F62;"
   d="M43.39,108.475H8.678c-4.793,0-8.678,3.885-8.678,8.678s3.885,8.678,8.678,8.678h26.034v269.017   c0,4.793,3.885,8.678,8.678,8.678s8.678-3.885,8.678-8.678V117.153C52.068,112.36,48.183,108.475,43.39,108.475z"
   data-original="#5E5F62"
   class=""
   id="path19356" />
	<path
   style="fill:#A5A5A4;"
   d="M252.182,238.644v1.041c-0.318,22.607-11.658,43.634-30.373,56.32h-0.087   c-4.968,3.468-10.402,6.214-16.141,8.157h-0.087c-7.301,2.587-14.99,3.908-22.736,3.905c-14.553,0.021-28.74-4.566-40.526-13.104   c-4.981-3.564-9.474-7.765-13.364-12.496c-10.08-12.378-15.568-27.861-15.534-43.824c-0.04-12.572,3.383-24.912,9.893-35.666   c11.577-19.355,31.836-31.879,54.324-33.584c1.736-0.086,3.471-0.174,5.207-0.174c4.396,0.005,8.782,0.412,13.104,1.215   C228.621,176.625,252.302,205.305,252.182,238.644z"
   data-original="#A5A5A4"
   class=""
   id="path19358" />
	<g
   id="g19370"
   transform="rotate(174.92656,183.27942,238.54528)">
		<path
   style="fill:#5e5f62"
   d="m 188.572,227.797 c -1.603,1.417 -3.675,2.19 -5.814,2.169 -3.621,0.027 -6.878,-2.196 -8.172,-5.577 -1.295,-3.381 -0.355,-7.211 2.358,-9.609 0.347,-0.347 11.889,-12.062 1.475,-41.828 -0.551,-1.106 -0.848,-2.322 -0.868,-3.558 1.736,-0.086 3.471,-0.174 5.207,-0.174 4.396,0.005 8.782,0.412 13.104,1.215 12.409,39.138 -6.422,56.581 -7.29,57.362 z"
   data-original="#5E5F62"
   class=""
   id="path19360"
   inkscape:connector-curvature="0" />
		<path
   style="fill:#5e5f62"
   d="m 169.654,240.814 c -1.02,0.41 -2.111,0.616 -3.211,0.607 -3.484,0.001 -6.629,-2.085 -7.984,-5.294 -0.434,-0.955 -7.897,-15.707 -39.658,-15.881 -0.979,0.011 -1.951,-0.165 -2.864,-0.521 1.655,-5.889 4.108,-11.524 7.289,-16.748 23.344,2.603 33.41,7.723 40.005,12.93 3.341,2.543 6.268,5.587 8.678,9.025 1.032,1.434 1.905,2.976 2.603,4.599 1.743,4.458 -0.423,9.486 -4.858,11.283 z"
   data-original="#5E5F62"
   class=""
   id="path19362"
   inkscape:connector-curvature="0" />
		<path
   style="fill:#5e5f62"
   d="m 180.241,251.661 c 0.014,0.522 -0.015,1.045 -0.087,1.562 -0.654,4.067 -4.046,7.133 -8.157,7.376 -1.041,0.087 -17.443,1.996 -28.377,31.848 -0.323,0.909 -0.792,1.759 -1.388,2.517 -4.981,-3.564 -9.474,-7.765 -13.364,-12.496 11.976,-29.071 29.852,-36.621 38.096,-38.53 1.42,-0.373 2.873,-0.606 4.339,-0.694 2.304,-0.079 4.545,0.766 6.223,2.347 1.678,1.58 2.656,3.765 2.715,6.07 z"
   data-original="#5E5F62"
   class=""
   id="path19364"
   inkscape:connector-curvature="0" />
		<path
   style="fill:#5e5f62"
   d="m 221.722,296.005 c -4.968,3.468 -10.402,6.214 -16.141,8.157 h -0.087 c -25.079,-22.823 -24.125,-43.563 -22.91,-50.679 0.125,-0.856 0.328,-1.698 0.607,-2.517 0.951,-2.959 3.412,-5.182 6.451,-5.829 3.039,-0.647 6.193,0.382 8.266,2.697 2.073,2.315 2.749,5.562 1.771,8.512 -0.174,0.521 -4.339,16.748 20.306,37.489 0.747,0.574 1.342,1.318 1.737,2.17 z"
   data-original="#5E5F62"
   class=""
   id="path19366"
   inkscape:connector-curvature="0" />
		<path
   style="fill:#5e5f62"
   d="m 252.182,238.644 v 1.041 c -10.443,5.848 -22.141,9.092 -34.104,9.459 -8.392,0.35 -16.673,-2.024 -23.604,-6.769 -2.439,-1.916 -3.665,-4.99 -3.213,-8.058 0.451,-3.068 2.511,-5.659 5.398,-6.791 2.887,-1.132 6.159,-0.631 8.576,1.312 0.434,0.26 14.232,9.719 42.088,-6.335 0.86,-0.484 1.801,-0.808 2.777,-0.955 1.401,5.59 2.1,11.333 2.082,17.096 z"
   data-original="#5E5F62"
   class=""
   id="path19368"
   inkscape:connector-curvature="0" />
	</g>
	<path
   style="fill:#A5A5A4;"
   d="M443.097,238.644v1.041c-0.318,22.607-11.658,43.634-30.373,56.32h-0.087   c-4.968,3.468-10.402,6.214-16.141,8.157h-0.087c-7.301,2.587-14.99,3.908-22.736,3.905c-14.553,0.021-28.74-4.566-40.526-13.104   c-4.981-3.564-9.474-7.765-13.364-12.496c-10.08-12.378-15.568-27.861-15.534-43.824c-0.04-12.572,3.383-24.912,9.893-35.666   c11.577-19.355,31.836-31.879,54.324-33.584c1.736-0.086,3.471-0.174,5.207-0.174c4.396,0.005,8.782,0.412,13.104,1.215   C419.536,176.625,443.217,205.305,443.097,238.644z"
   data-original="#A5A5A4"
   class=""
   id="path19372" />
	<g
   id="g19384"
   transform="rotate(-103.20226,374.263,238.12381)">
		<path
   style="fill:#5e5f62"
   d="m 379.487,227.797 c -1.603,1.417 -3.675,2.19 -5.814,2.169 -2.475,0 -4.836,-1.039 -6.508,-2.864 -0.694,-0.832 -1.25,-1.77 -1.649,-2.777 -1.234,-3.362 -0.307,-7.137 2.343,-9.546 0.347,-0.347 11.889,-12.062 1.475,-41.828 -0.551,-1.106 -0.848,-2.322 -0.868,-3.558 1.736,-0.086 3.471,-0.174 5.207,-0.174 4.396,0.005 8.782,0.412 13.104,1.215 12.409,39.139 -6.422,56.582 -7.29,57.363 z"
   data-original="#5E5F62"
   class=""
   id="path19374"
   inkscape:connector-curvature="0" />
		<path
   style="fill:#5e5f62"
   d="m 360.569,240.814 c -1.02,0.41 -2.111,0.616 -3.211,0.607 -3.484,0.001 -6.629,-2.085 -7.984,-5.294 -0.434,-0.955 -7.897,-15.707 -39.658,-15.881 -0.979,0.011 -1.951,-0.165 -2.864,-0.521 1.655,-5.889 4.108,-11.524 7.29,-16.748 23.344,2.603 33.41,7.723 40.005,12.93 4.815,3.553 8.689,8.231 11.281,13.624 1.742,4.458 -0.424,9.486 -4.859,11.283 z"
   data-original="#5E5F62"
   class=""
   id="path19376"
   inkscape:connector-curvature="0" />
		<path
   style="fill:#5e5f62"
   d="m 371.157,251.661 c 0.014,0.522 -0.015,1.045 -0.087,1.562 -0.654,4.067 -4.046,7.133 -8.157,7.376 -1.041,0.087 -17.443,1.996 -28.377,31.848 -0.323,0.909 -0.792,1.759 -1.388,2.517 -4.981,-3.564 -9.474,-7.765 -13.364,-12.496 11.976,-29.071 29.852,-36.621 38.096,-38.53 1.42,-0.373 2.873,-0.606 4.339,-0.694 2.308,-0.093 4.556,0.747 6.238,2.331 1.681,1.583 2.654,3.777 2.7,6.086 z"
   data-original="#5E5F62"
   class=""
   id="path19378"
   inkscape:connector-curvature="0" />
		<path
   style="fill:#5e5f62"
   d="m 412.637,296.005 c -4.968,3.468 -10.402,6.214 -16.141,8.157 h -0.087 c -25.079,-22.823 -24.125,-43.563 -22.91,-50.679 0.125,-0.856 0.328,-1.698 0.607,-2.517 0.951,-2.959 3.412,-5.182 6.451,-5.829 3.039,-0.647 6.193,0.382 8.266,2.697 2.073,2.315 2.749,5.562 1.771,8.512 -0.174,0.521 -4.339,16.748 20.306,37.489 0.747,0.574 1.342,1.318 1.737,2.17 z"
   data-original="#5E5F62"
   class=""
   id="path19380"
   inkscape:connector-curvature="0" />
		<path
   style="fill:#5e5f62"
   d="m 443.097,238.644 v 1.041 c -10.443,5.848 -22.141,9.092 -34.104,9.459 -8.392,0.35 -16.673,-2.024 -23.604,-6.769 -3.706,-2.981 -4.309,-8.395 -1.35,-12.118 2.959,-3.723 8.37,-4.357 12.11,-1.419 0.434,0.26 14.232,9.719 42.088,-6.335 0.86,-0.484 1.801,-0.808 2.777,-0.955 1.402,5.59 2.101,11.333 2.083,17.096 z"
   data-original="#5E5F62"
   class=""
   id="path19382"
   inkscape:connector-curvature="0" />
	</g>
	<g
   id="g19390">
		<circle
   style="fill:#D1D4D1"
   cx="182.237"
   cy="238.644"
   r="26.034"
   data-original="#D1D4D1"
   class=""
   id="circle19386" />
		<circle
   style="fill:#D1D4D1"
   cx="373.153"
   cy="238.644"
   r="26.034"
   data-original="#D1D4D1"
   class=""
   id="circle19388" />
	</g>
</g></g> </svg>