<?xml version="1.0" encoding="UTF-8" standalone="no"?>
<!-- Generator: Adobe Illustrator 19.0.0, SVG Export Plug-In . SVG Version: 6.00 Build 0)  -->

<svg
   xmlns:dc="http://purl.org/dc/elements/1.1/"
   xmlns:cc="http://creativecommons.org/ns#"
   xmlns:rdf="http://www.w3.org/1999/02/22-rdf-syntax-ns#"
   xmlns:svg="http://www.w3.org/2000/svg"
   xmlns="http://www.w3.org/2000/svg"
   xmlns:sodipodi="http://sodipodi.sourceforge.net/DTD/sodipodi-0.dtd"
   xmlns:inkscape="http://www.inkscape.org/namespaces/inkscape"
   version="1.1"
   id="Capa_1"
   x="0px"
   y="0px"
   viewBox="0 0 52 52"
   style="enable-background:new 0 0 52 52;"
   xml:space="preserve"
   sodipodi:docname="server-2.svg"
   inkscape:version="0.92.3 (2405546, 2018-03-11)"><metadata
   id="metadata258"><rdf:RDF><cc:Work
       rdf:about=""><dc:format>image/svg+xml</dc:format><dc:type
         rdf:resource="http://purl.org/dc/dcmitype/StillImage" /><dc:title></dc:title></cc:Work></rdf:RDF></metadata><defs
   id="defs256" /><sodipodi:namedview
   pagecolor="#ffffff"
   bordercolor="#666666"
   borderopacity="1"
   objecttolerance="10"
   gridtolerance="10"
   guidetolerance="10"
   inkscape:pageopacity="0"
   inkscape:pageshadow="2"
   inkscape:window-width="1920"
   inkscape:window-height="1017"
   id="namedview254"
   showgrid="false"
   inkscape:zoom="16.307692"
   inkscape:cx="26"
   inkscape:cy="26"
   inkscape:window-x="-8"
   inkscape:window-y="-8"
   inkscape:window-maximized="1"
   inkscape:current-layer="Capa_1" />
<path
   style="fill:#38454F;"
   d="M50.594,45H1.406C0.63,45,0,44.37,0,43.594V32.406C0,31.63,0.63,31,1.406,31h49.187  C51.37,31,52,31.63,52,32.406v11.187C52,44.37,51.37,45,50.594,45z"
   id="path141" />
<path
   style="fill:#28384C;"
   d="M6,49L6,49c-1.657,0-3-1.343-3-3v-1h6v1C9,47.657,7.657,49,6,49z"
   id="path143" />
<path
   style="fill:#28384C;"
   d="M46,49L46,49c-1.657,0-3-1.343-3-3v-1h6v1C49,47.657,47.657,49,46,49z"
   id="path145" />
<circle
   style="fill:#546A79;"
   cx="48"
   cy="36"
   r="1"
   id="circle147" />
<circle
   style="fill:#546A79;"
   cx="44"
   cy="36"
   r="1"
   id="circle149" />
<circle
   style="fill:#546A79;"
   cx="46"
   cy="40"
   r="1"
   id="circle151" />
<circle
   style="fill:#546A79;"
   cx="42"
   cy="40"
   r="1"
   id="circle153" />
<circle
   style="fill:#546A79;"
   cx="40"
   cy="36"
   r="1"
   id="circle155" />
<circle
   style="fill:#546A79;"
   cx="38"
   cy="40"
   r="1"
   id="circle157" />
<circle
   style="fill:#546A79;"
   cx="36"
   cy="36"
   r="1"
   id="circle159" />
<circle
   style="fill:#546A79;"
   cx="34"
   cy="40"
   r="1"
   id="circle161" />
<circle
   style="fill:#546A79;"
   cx="32"
   cy="36"
   r="1"
   id="circle163" />
<circle
   style="fill:#546A79;"
   cx="30"
   cy="40"
   r="1"
   id="circle165" />
<path
   style="fill:#546A79;"
   d="M50.594,31H1.406C0.63,31,0,30.37,0,29.594V18.406C0,17.63,0.63,17,1.406,17h49.187  C51.37,17,52,17.63,52,18.406v11.187C52,30.37,51.37,31,50.594,31z"
   id="path167" />
<path
   style="fill:#38454F;"
   d="M50.594,17H1.406C0.63,17,0,16.37,0,15.594V4.406C0,3.63,0.63,3,1.406,3h49.187  C51.37,3,52,3.63,52,4.406v11.187C52,16.37,51.37,17,50.594,17z"
   id="path169" />
<circle
   style="fill:#38454F;"
   cx="48"
   cy="22"
   r="1"
   id="circle171" />
<circle
   style="fill:#38454F;"
   cx="44"
   cy="22"
   r="1"
   id="circle173" />
<circle
   style="fill:#38454F;"
   cx="46"
   cy="26"
   r="1"
   id="circle175" />
<circle
   style="fill:#38454F;"
   cx="42"
   cy="26"
   r="1"
   id="circle177" />
<circle
   style="fill:#38454F;"
   cx="40"
   cy="22"
   r="1"
   id="circle179" />
<circle
   style="fill:#38454F;"
   cx="38"
   cy="26"
   r="1"
   id="circle181" />
<circle
   style="fill:#38454F;"
   cx="36"
   cy="22"
   r="1"
   id="circle183" />
<circle
   style="fill:#38454F;"
   cx="34"
   cy="26"
   r="1"
   id="circle185" />
<circle
   style="fill:#38454F;"
   cx="32"
   cy="22"
   r="1"
   id="circle187" />
<circle
   style="fill:#38454F;"
   cx="30"
   cy="26"
   r="1"
   id="circle189" />
<circle
   style="fill:#546A79;"
   cx="48"
   cy="8"
   r="1"
   id="circle191" />
<circle
   style="fill:#546A79;"
   cx="44"
   cy="8"
   r="1"
   id="circle193" />
<circle
   style="fill:#546A79;"
   cx="46"
   cy="12"
   r="1"
   id="circle195" />
<circle
   style="fill:#546A79;"
   cx="42"
   cy="12"
   r="1"
   id="circle197" />
<circle
   style="fill:#546A79;"
   cx="40"
   cy="8"
   r="1"
   id="circle199" />
<circle
   style="fill:#546A79;"
   cx="38"
   cy="12"
   r="1"
   id="circle201" />
<circle
   style="fill:#546A79;"
   cx="36"
   cy="8"
   r="1"
   id="circle203" />
<circle
   style="fill:#546A79;"
   cx="34"
   cy="12"
   r="1"
   id="circle205" />
<circle
   style="fill:#546A79;"
   cx="32"
   cy="8"
   r="1"
   id="circle207" />
<circle
   style="fill:#546A79;"
   cx="30"
   cy="12"
   r="1"
   id="circle209" />
<circle
   style="fill:#283238;"
   cx="8"
   cy="10"
   r="3"
   id="circle211" />
<circle
   style="fill:#81EA1C;"
   cx="8"
   cy="10"
   r="2"
   id="circle213" />
<circle
   style="fill:#283238;"
   cx="8"
   cy="24"
   r="3"
   id="circle215" />
<circle
   style="fill:#008000"
   cx="8"
   cy="24"
   r="2"
   id="circle217" />
<circle
   style="fill:#283238;"
   cx="8"
   cy="38"
   r="3"
   id="circle219" />
<circle
   style="fill:#81EA1C;"
   cx="8"
   cy="38"
   r="2"
   id="circle221" />
<g
   id="g223">
</g>
<g
   id="g225">
</g>
<g
   id="g227">
</g>
<g
   id="g229">
</g>
<g
   id="g231">
</g>
<g
   id="g233">
</g>
<g
   id="g235">
</g>
<g
   id="g237">
</g>
<g
   id="g239">
</g>
<g
   id="g241">
</g>
<g
   id="g243">
</g>
<g
   id="g245">
</g>
<g
   id="g247">
</g>
<g
   id="g249">
</g>
<g
   id="g251">
</g>
</svg>